<svg height="1483" viewBox="0 0 1142 1483" width="1142" xmlns="http://www.w3.org/2000/svg" xmlns:xlink="http://www.w3.org/1999/xlink"><defs><rect id="a" height="176" rx="12" width="132" x="307" y="766"/><filter id="b" height="131.3%" width="141.7%" x="-20.8%" y="-9.9%"><feMorphology in="SourceAlpha" operator="erode" radius="2.5" result="shadowSpreadOuter1"/><feOffset dx="0" dy="10" in="shadowSpreadOuter1" result="shadowOffsetOuter1"/><feGaussianBlur in="shadowOffsetOuter1" result="shadowBlurOuter1" stdDeviation="10"/><feColorMatrix in="shadowBlurOuter1" type="matrix" values="0 0 0 0 0.826086957   0 0 0 0 0.826086957   0 0 0 0 0.826086957  0 0 0 1 0"/></filter><rect id="c" height="151.602739" rx="12" width="132" x="681" y="723"/><filter id="d" height="136.3%" width="141.7%" x="-20.8%" y="-11.5%"><feMorphology in="SourceAlpha" operator="erode" radius="2.5" result="shadowSpreadOuter1"/><feOffset dx="0" dy="10" in="shadowSpreadOuter1" result="shadowOffsetOuter1"/><feGaussianBlur in="shadowOffsetOuter1" result="shadowBlurOuter1" stdDeviation="10"/><feColorMatrix in="shadowBlurOuter1" type="matrix" values="0 0 0 0 0.826086957   0 0 0 0 0.826086957   0 0 0 0 0.826086957  0 0 0 1 0"/></filter><path id="e" d="m440.667642 142.325324c0-6.623532 5.382103-11.992966 11.998053-11.992966h101.728504c6.626342 0 11.998053 5.373209 11.998053 11.992966v229.073961c0 6.623533-5.382103 11.992967-11.998053 11.992967h-101.728504c-6.626341 0-11.998053-5.373209-11.998053-11.992967z"/><filter id="f" height="121.7%" width="143.7%" x="-21.9%" y="-6.9%"><feMorphology in="SourceAlpha" operator="erode" radius="2.5" result="shadowSpreadOuter1"/><feOffset dx="0" dy="10" in="shadowSpreadOuter1" result="shadowOffsetOuter1"/><feGaussianBlur in="shadowOffsetOuter1" result="shadowBlurOuter1" stdDeviation="10"/><feColorMatrix in="shadowBlurOuter1" type="matrix" values="0 0 0 0 0.826086957   0 0 0 0 0.826086957   0 0 0 0 0.826086957  0 0 0 1 0"/></filter><path id="g" d="m900.137695 300.871738c0-6.632627 5.382103-12.009433 11.998053-12.009433h101.728502c6.62634 0 11.99805 5.373249 11.99805 12.009433v111.981133c0 6.632627-5.3821 12.009434-11.99805 12.009434h-101.728502c-6.626342 0-11.998053-5.37325-11.998053-12.009434z"/><filter id="h" height="140.4%" width="143.7%" x="-21.9%" y="-12.9%"><feMorphology in="SourceAlpha" operator="erode" radius="2.5" result="shadowSpreadOuter1"/><feOffset dx="0" dy="10" in="shadowSpreadOuter1" result="shadowOffsetOuter1"/><feGaussianBlur in="shadowOffsetOuter1" result="shadowBlurOuter1" stdDeviation="10"/><feColorMatrix in="shadowBlurOuter1" type="matrix" values="0 0 0 0 0.826086957   0 0 0 0 0.826086957   0 0 0 0 0.826086957  0 0 0 1 0"/></filter><path id="i" d="m754.137695 300.871738c0-6.632627 5.382103-12.009433 11.998053-12.009433h101.728504c6.626342 0 11.998053 5.373249 11.998053 12.009433v111.981133c0 6.632627-5.382103 12.009434-11.998053 12.009434h-101.728504c-6.626342 0-11.998053-5.37325-11.998053-12.009434z"/><filter id="j" height="140.4%" width="143.7%" x="-21.9%" y="-12.9%"><feMorphology in="SourceAlpha" operator="erode" radius="2.5" result="shadowSpreadOuter1"/><feOffset dx="0" dy="10" in="shadowSpreadOuter1" result="shadowOffsetOuter1"/><feGaussianBlur in="shadowOffsetOuter1" result="shadowBlurOuter1" stdDeviation="10"/><feColorMatrix in="shadowBlurOuter1" type="matrix" values="0 0 0 0 0.826086957   0 0 0 0 0.826086957   0 0 0 0 0.826086957  0 0 0 1 0"/></filter><rect id="k" height="259" rx="12" width="334" x="338" y="345"/><filter id="l" height="121.2%" width="116.5%" x="-8.2%" y="-6.8%"><feMorphology in="SourceAlpha" operator="erode" radius="2.5" result="shadowSpreadOuter1"/><feOffset dx="0" dy="10" in="shadowSpreadOuter1" result="shadowOffsetOuter1"/><feGaussianBlur in="shadowOffsetOuter1" result="shadowBlurOuter1" stdDeviation="10"/><feColorMatrix in="shadowBlurOuter1" type="matrix" values="0 0 0 0 0.826086957   0 0 0 0 0.826086957   0 0 0 0 0.826086957  0 0 0 1 0"/></filter><rect id="m" height="156" rx="12" width="140" x="74" y="505"/><filter id="n" height="135.3%" width="139.3%" x="-19.6%" y="-11.2%"><feMorphology in="SourceAlpha" operator="erode" radius="2.5" result="shadowSpreadOuter1"/><feOffset dx="0" dy="10" in="shadowSpreadOuter1" result="shadowOffsetOuter1"/><feGaussianBlur in="shadowOffsetOuter1" result="shadowBlurOuter1" stdDeviation="10"/><feColorMatrix in="shadowBlurOuter1" type="matrix" values="0 0 0 0 0.826086957   0 0 0 0 0.826086957   0 0 0 0 0.826086957  0 0 0 1 0"/></filter><rect id="o" height="156" rx="12" width="155" x="63" y="216"/><filter id="p" height="135.3%" width="135.5%" x="-17.7%" y="-11.2%"><feMorphology in="SourceAlpha" operator="erode" radius="2.5" result="shadowSpreadOuter1"/><feOffset dx="0" dy="10" in="shadowSpreadOuter1" result="shadowOffsetOuter1"/><feGaussianBlur in="shadowOffsetOuter1" result="shadowBlurOuter1" stdDeviation="10"/><feColorMatrix in="shadowBlurOuter1" type="matrix" values="0 0 0 0 0.826086957   0 0 0 0 0.826086957   0 0 0 0 0.826086957  0 0 0 1 0"/></filter><mask id="q" fill="#fff"><path d="m8.73985319 17.3844269 45.40074781 9.5910958-6.3395893 11.2959468-45.4007478-9.5910957z" fill="#fff" fill-rule="evenodd"/></mask><mask id="r" fill="#fff"><path d="m8.44263485.24315752h21.30484465v48.47543878h-21.30484465z" fill="#fff" fill-rule="evenodd"/></mask><mask id="s" fill="#fff"><path d="m8.73985319 17.3844269 45.40074781 9.5910958-6.3395893 11.2959468-45.4007478-9.5910957z" fill="#fff" fill-rule="evenodd"/></mask><mask id="t" fill="#fff"><path d="m8.44263485.24315752h21.30484465v48.47543878h-21.30484465z" fill="#fff" fill-rule="evenodd"/></mask><mask id="u" fill="#fff"><path d="m-.92218 18.470873h52.571283v21.222487h-52.571283z" fill="#fff" fill-rule="evenodd"/></mask><mask id="v" fill="#fff"><path d="m7.03200876.24706261h21.64699904v49.25395099h-21.64699904z" fill="#fff" fill-rule="evenodd"/></mask><mask id="w" fill="#fff"><path d="m6.73985319 17.3844269 45.40074781 9.5910958-6.3395893 11.2959468-45.4007478-9.5910957z" fill="#fff" fill-rule="evenodd"/></mask><mask id="x" fill="#fff"><path d="m5.44263485.24315752h21.30484465v48.47543878h-21.30484465z" fill="#fff" fill-rule="evenodd"/></mask><mask id="y" fill="#fff"><path d="m-.92218 18.470873h52.571283v21.222487h-52.571283z" fill="#fff" fill-rule="evenodd"/></mask><mask id="z" fill="#fff"><path d="m7.03200876.24706261h21.64699904v49.25395099h-21.64699904z" fill="#fff" fill-rule="evenodd"/></mask><mask id="A" fill="#fff"><path d="m-.92218 18.470873h52.571283v21.222487h-52.571283z" fill="#fff" fill-rule="evenodd"/></mask><mask id="B" fill="#fff"><path d="m7.03200876.24706261h21.64699904v49.25395099h-21.64699904z" fill="#fff" fill-rule="evenodd"/></mask></defs><g fill="none" fill-rule="evenodd"><path d="m0 0h1142v1483h-1142z" fill="#f9f9f9"/><path d="m912 663-206 66" stroke="#8cd3f6" stroke-dasharray="10 10" stroke-linecap="square" stroke-width="2"/><g transform="translate(22 306)"><use fill="#000" filter="url(#b)" xlink:href="#a"/><use fill="#fff" fill-rule="evenodd" xlink:href="#a"/><use fill="#000" filter="url(#d)" xlink:href="#c"/><use fill="#fff" fill-rule="evenodd" xlink:href="#c"/><g transform="matrix(0 1 -1 0 760.392252 -246.667642)"><use fill="#000" filter="url(#f)" xlink:href="#e"/><use fill="#fff" fill-rule="evenodd" xlink:href="#e"/></g><g transform="matrix(0 1 -1 0 1319.862305 -606.137695)"><use fill="#000" filter="url(#h)" xlink:href="#g"/><use fill="#fff" fill-rule="evenodd" xlink:href="#g"/></g><g transform="matrix(0 1 -1 0 1173.862305 -460.137695)"><use fill="#000" filter="url(#j)" xlink:href="#i"/><use fill="#fff" fill-rule="evenodd" xlink:href="#i"/></g><use fill="#000" filter="url(#l)" xlink:href="#k"/><use fill="#fff" fill-rule="evenodd" xlink:href="#k"/><use fill="#000" filter="url(#n)" xlink:href="#m"/><use fill="#fff" fill-rule="evenodd" xlink:href="#m"/><use fill="#000" filter="url(#p)" xlink:href="#o"/><use fill="#fff" fill-rule="evenodd" xlink:href="#o"/><g transform="translate(365)"><g fill="#2597d0" transform="translate(98)"><path d="m39.9012195 41.7618308c9.8856098 0 17.9002439-9.3489816 17.9002439-20.8807939 0-15.99178767-8.0146341-20.8810369-17.9002439-20.8810369-9.8865854 0-17.9012195 4.88924923-17.9012195 20.8810369 0 11.5318123 8.0146341 20.8807939 17.9012195 20.8807939z"/><path d="m79.4463415 72.6744092-9.0309756-20.2752892c-.4124391-.9285538-1.1385366-1.6976492-2.0417074-2.1658154l-14.0158536-7.2714031c-.3085366-.1604307-.6831708-.1290738-.9612195.0807016-3.9634147 2.9881446-8.6243903 4.5671723-13.477561 4.5671723-4.8541464 0-9.515122-1.5790277-13.4785366-4.5671723-.2790244-.2097754-.6534146-.2411323-.9621951-.0807016l-14.0148781 7.2714031c-.9041463.4681662-1.62829265 1.2372616-2.04170728 2.1658154l-9.03097561 20.2752892c-.62317073 1.3976923-.49560976 2.9966523.34097561 4.278397.83658536 1.2819876 2.25121951 2.0471938 3.78536585 2.0471938h70.80219513c1.534878 0 2.9495122-.7652062 3.7860976-2.0471938.8356097-1.2817447.9641463-2.881677.3409756-4.278397z"/></g><text fill="#505050" font-family="Helvetica" font-size="21"><tspan x="106.04208" y="115">Patient</tspan></text></g><text fill="#4cb3e7" font-family="Helvetica" font-size="21"><tspan x="568.861171" y="675">Anonymization</tspan></text><rect height="484" opacity=".174139" rx="16" stroke="#087fb9" stroke-width="2" width="395.733042" x="307.133479" y="155.5"/><g transform="translate(233 776)"><g fill="#2597d0" transform="translate(103 201)"><path d="m39.9012195 41.7618308c9.8856098 0 17.9002439-9.3489816 17.9002439-20.8807939 0-15.99178767-8.0146341-20.8810369-17.9002439-20.8810369-9.8865854 0-17.9012195 4.88924923-17.9012195 20.8810369 0 11.5318123 8.0146341 20.8807939 17.9012195 20.8807939z"/><path d="m79.4463415 72.6744092-9.0309756-20.2752892c-.4124391-.9285538-1.1385366-1.6976492-2.0417074-2.1658154l-14.0158536-7.2714031c-.3085366-.1604307-.6831708-.1290738-.9612195.0807016-3.9634147 2.9881446-8.6243903 4.5671723-13.477561 4.5671723-4.8541464 0-9.515122-1.5790277-13.4785366-4.5671723-.2790244-.2097754-.6534146-.2411323-.9621951-.0807016l-14.0148781 7.2714031c-.9041463.4681662-1.62829265 1.2372616-2.04170728 2.1658154l-9.03097561 20.2752892c-.62317073 1.3976923-.49560976 2.9966523.34097561 4.278397.83658536 1.2819876 2.25121951 2.0471938 3.78536585 2.0471938h70.80219513c1.534878 0 2.9495122-.7652062 3.7860976-2.0471938.8356097-1.2817447.9641463-2.881677.3409756-4.278397z"/></g><text fill="#505050" font-family="Helvetica" font-size="21"><tspan x="103.048915" y="315">Doctor 2</tspan></text><text fill="#505050" font-family="Helvetica-Bold, Helvetica" font-size="21" font-weight="bold"><tspan x="93.224697" y="20">Subset B</tspan></text><g transform="translate(99 92)"><path d="m.83308385 44.4723657c-.40916048 0-.74085059-.3284645-.74085059-.7260969v-42.49364617c0-.40101228.32574678-.72609697.72680073-.72609697h20.39075181c.4014009 0 .9602069.23308735 1.2428189.51531317l9.6666153 9.65340767c.2849889.2845996.5160182.844517.5160182 1.2409667v31.8104991c0 .4007673-.3220896.7256534-.7408506.7256534z" fill="#78cca0"/><path d="m20.4316113.52652566v.9289914 10.50178474c0 .5130678.4076992.9289914.9123042.9289914h10.8608118" stroke="#fff" stroke-width="2"/></g><g transform="matrix(.82903757 -.5591929 .5591929 .82903757 122 116.336691)"><g transform="translate(1.521775 10.604002)"><ellipse cx="28.170607" cy="16.406526" fill="#09a8a7" rx="15.978634" ry="15.906003"/><ellipse cx="28.170607" cy="16.406526" fill="#81efef" mask="url(#q)" rx="15.978634" ry="15.906003"/></g><ellipse cx="29.692382" cy="27.010528" fill="#148484" mask="url(#r)" rx="15.978634" ry="15.906003"/></g><g fill="#0989a8" transform="matrix(0 1 -1 0 160 63)"><path d="m.20572 11.688661h4.383622v16.63958h-4.383622z"/><path d="m15.5483964 4.36369635h4.3836219v23.96454445h-4.3836219z"/><path d="m8.200668 0h4.383622v28.328241h-4.383622z"/><path d="m23.543344 8.727393h4.383622v19.600848h-4.383622z"/></g></g><g transform="translate(608 736)"><g fill="#2597d0" transform="translate(87.444444 181)"><path d="m28.3932743 85.0496346h18.5569874v-18.9727796h11.1534267v18.9727796h18.5569874v-84.94264575h-48.2674015zm27.5201478-63.7797096h11.1534267v-11.1528427h-11.1534267zm0 17.9232054h11.1534267v-11.1528427h-11.1534267zm0 17.9221219h11.1534267v-11.1517592h-11.1534267zm-17.9263207-35.8453273h11.1536976v-11.1528427h-11.1536976zm0 17.9232054h11.1536976v-11.1528427h-11.1536976zm0 17.9221219h11.1536976v-11.1517592h-11.1536976z"/><g transform="translate(0 7.58402)"><path d="m80.9943419.13244949v60.06056051h7.1651644v17.2726049h16.8944437v-77.33316541zm5.1702205 51.90205141h10.1548712v-10.1528356h-10.1548712zm0-16.3181019h10.1548712v-10.1528355h-10.1548712zm0-16.3170183h10.1548712v-10.1531064h-10.1548712z"/><path d="m0 77.4656149h16.8944439v-17.2726049h7.166248v-60.06056051h-24.0606919zm8.73451661-58.0662342h10.15487109v-10.1531064h-10.15487109zm0 16.3170183h10.15487109v-10.1528355h-10.15487109zm0 16.3170184h10.15487109v-10.1528355h-10.15487109z"/></g></g><text fill="#505050" font-family="Helvetica" font-size="21"><tspan x="56.106044" y="318">Research Institute</tspan></text><g transform="matrix(.82903757 -.5591929 .5591929 .82903757 76 58.336691)"><g transform="translate(1.521775 10.604002)"><ellipse cx="28.170607" cy="16.406526" fill="#09a8a7" rx="15.978634" ry="15.906003"/><ellipse cx="28.170607" cy="16.406526" fill="#81efef" mask="url(#s)" rx="15.978634" ry="15.906003"/></g><ellipse cx="29.692382" cy="27.010528" fill="#148484" mask="url(#t)" rx="15.978634" ry="15.906003"/></g><g transform="matrix(.22495105 .97437006 -.97437006 .22495105 136.26368 70.999999)"><g transform="translate(0 10.774302)"><ellipse cx="28.623025" cy="16.670013" fill="#0989a8" rx="16.235249" ry="16.161453"/><ellipse cx="28.623025" cy="16.670013" fill="#61cbff" mask="url(#u)" rx="16.235249" ry="16.161453"/></g><path d="m28.6230253 43.6057676c8.9664806 0 16.2352493-7.2357288 16.2352493-16.1614527 0-8.9257238-7.2687687-16.1614526-16.2352493-16.1614526s-16.2352492 7.2357288-16.2352492 16.1614526c0 8.9257239 7.2687686 16.1614527 16.2352492 16.1614527z" fill="#147384" mask="url(#v)"/></g><g fill="#0989a8" transform="translate(144 98)"><path d="m.12331 7.006296h2.627585v9.973925h-2.627585z"/><path d="m18.804568 2.615642h2.627585v14.36458h-2.627585z"/><path d="m9.31985924 2.61564182h2.62758536v14.36457988h-2.62758536z"/><path d="m4.91555949 0h2.62758539v16.9802217h-2.62758539z"/><path d="m23.596817 0h2.627585v16.980222h-2.627585z"/><path d="m14.1121083 5.23128364h2.6275854v11.74893806h-2.6275854z"/></g><path d="m.62313716 9.00103055s1.42936172 1.42867585 3.17918435 3.17765875l-1.07645572-1.0759391c1.75581503 1.7549725 4.78654372 1.9473594 6.7553093.4404338l-1.09488548.8380434c1.97503929-1.5117277 5.23433899-1.6030324 7.28271769-.2019732l-.6346594-.4340971c2.0470946 1.4001809 4.8348594.8631336 6.2190438-1.1882608l.8994321-1.33297993c1.3875884-2.05643925 3.5732757-2.01324726 4.8868191.1044522l1.8538809 2.98883363c1.3113273 2.1141266 3.0871774 1.9533006 3.9705327-.3698936l4.2170103-11.09059322" stroke="#09a8a7" stroke-width="3" transform="translate(140 56)"/><text fill="#505050" font-family="Helvetica-Bold, Helvetica" font-size="21" font-weight="bold"><tspan x="93.224697" y="20">Subset C</tspan></text></g><g transform="translate(365 209)"><g transform="translate(76 46)"><path d="m.83308385 44.4723657c-.40916048 0-.74085059-.3284645-.74085059-.7260969v-42.49364617c0-.40101228.32574678-.72609697.72680073-.72609697h20.39075181c.4014009 0 .9602069.23308735 1.2428189.51531317l9.6666153 9.65340767c.2849889.2845996.5160182.844517.5160182 1.2409667v31.8104991c0 .4007673-.3220896.7256534-.7408506.7256534z" fill="#ff9191"/><path d="m20.4316113.52652566v.9289914 10.50178474c0 .5130678.4076992.9289914.9123042.9289914h10.8608118" stroke="#fff" stroke-width="2"/></g><g transform="translate(120 47)"><path d="m.83308385 44.4723657c-.40916048 0-.74085059-.3284645-.74085059-.7260969v-42.49364617c0-.40101228.32574678-.72609697.72680073-.72609697h20.39075181c.4014009 0 .9602069.23308735 1.2428189.51531317l9.6666153 9.65340767c.2849889.2845996.5160182.844517.5160182 1.2409667v31.8104991c0 .4007673-.3220896.7256534-.7408506.7256534z" fill="#4d8db3"/><path d="m20.4316113.52652566v.9289914 10.50178474c0 .5130678.4076992.9289914.9123042.9289914h10.8608118" stroke="#fff" stroke-width="2"/></g><g transform="translate(168 49)"><path d="m.83308385 44.4723657c-.40916048 0-.74085059-.3284645-.74085059-.7260969v-42.49364617c0-.40101228.32574678-.72609697.72680073-.72609697h20.39075181c.4014009 0 .9602069.23308735 1.2428189.51531317l9.6666153 9.65340767c.2849889.2845996.5160182.844517.5160182 1.2409667v31.8104991c0 .4007673-.3220896.7256534-.7408506.7256534z" fill="#78cca0"/><path d="m20.4316113.52652566v.9289914 10.50178474c0 .5130678.4076992.9289914.9123042.9289914h10.8608118" stroke="#fff" stroke-width="2"/></g><text fill="#505050" font-family="Helvetica-Bold, Helvetica" font-size="21" font-weight="bold"><tspan x="53.567714" y="20">Subset on phone</tspan></text></g><g transform="translate(678 313)"><path d="m273.196213 220.766842c.159654-.493717.254334-1.022699.254334-1.566529v-57.698001c0-2.741425-2.220318-4.952013-4.953017-4.952013h-27.572038v61.410155c0 .985576-.180076 1.928463-.49196 2.806388h-3.235797c.159654-.493717.254334-1.022699.254334-1.566529v-79.245196c0-2.734001-2.218462-4.952012-4.953017-4.952012h-43.264634c-2.732699 0-4.953017 2.218011-4.953017 4.952012v79.245196c0 .54383.094679 1.072812.26176 1.566529h-3.233941c-.311884-.877925-.493816-1.820812-.493816-2.806388v-61.410155h-26.911141c-2.740125 0-4.953017 2.210588-4.953017 4.952013v57.698001c0 .54383.094679 1.072812.254334 1.566529h-8.513693v10.236263h140.357121v-10.236263zm-116.484994-20.221956h7.099076v-7.097638h-7.099076zm0-12.463555h7.099076v-7.105062h-7.099076zm0-12.057075h7.099076v-7.097637h-7.099076zm11.05889 24.52063h7.099076v-7.097638h-7.099076zm0-12.463555h7.099076v-7.105062h-7.099076zm0-12.057075h7.099076v-7.097637h-7.099076zm33.271349 44.415916h20.847966v-26.007347h-20.847966zm9.826205-48.295116c-9.646129 0-17.461796-7.815939-17.461796-17.458258 0-9.642318 7.823093-17.458257 17.461796-17.458257 9.644273 0 17.461796 7.815939 17.461796 17.458257 0 9.642319-7.817523 17.458258-17.461796 17.458258zm37.984883 28.39983h7.099076v-7.097638h-7.099076zm0-12.463555h7.099076v-7.105062h-7.099076zm0-12.057075h7.099076v-7.097637h-7.099076zm11.05889 24.52063h7.099076v-7.097638h-7.099076zm0-12.463555h7.099076v-7.105062h-7.099076zm0-12.057075h7.099076v-7.097637h-7.099076zm-44.707099-25.665829h6.685087v8.664167h-6.685087v6.685588h-8.665922v-6.685588h-6.694369v-8.664167h6.694369v-6.691156h8.665922z" fill="#2597d0"/><g fill="#505050" font-family="Helvetica" font-size="21"><text><tspan x="167.797206" y="288">Hospital</tspan></text><text><tspan x="121.045498" y="259">unit 1</tspan></text><text><tspan x="240.045498" y="259">unit 2</tspan></text></g><path d="m248.833084 92.4723657c-.409161 0-.740851-.3284645-.740851-.7260969v-42.4936462c0-.4010123.325747-.7260969.726801-.7260969h20.390752c.401401 0 .960207.2330873 1.242819.5153131l9.666615 9.6534077c.284989.2845996.516018.844517.516018 1.2409667v31.8104991c0 .4007673-.322089.7256534-.74085.7256534z" fill="#ff9191"/><path d="m121.833084 92.4723657c-.409161 0-.740851-.3284645-.740851-.7260969v-42.4936462c0-.4010123.325747-.7260969.726801-.7260969h20.390752c.401401 0 .960207.2330873 1.242819.5153131l9.666615 9.6534077c.284989.2845996.516018.844517.516018 1.2409667v31.8104991c0 .4007673-.322089.7256534-.74085.7256534z" fill="#ffbf55"/><path d="m291.833084 92.4723657c-.409161 0-.740851-.3284645-.740851-.7260969v-42.4936462c0-.4010123.325747-.7260969.726801-.7260969h20.390752c.401401 0 .960207.2330873 1.242819.5153131l9.666615 9.6534077c.284989.2845996.516018.844517.516018 1.2409667v31.8104991c0 .4007673-.322089.7256534-.74085.7256534z" fill="#ffbf55"/><text fill="#505050" font-family="Helvetica-Bold, Helvetica" font-size="21" font-weight="bold"><tspan x="93.224697" y="20">Subset D</tspan></text><text fill="#505050" font-family="Helvetica-Bold, Helvetica" font-size="21" font-weight="bold"><tspan x="239.804042" y="20">Subset E</tspan></text><path d="m20.4316113.52652566v.9289914 10.50178474c0 .5130678.4076992.9289914.9123042.9289914h10.8608118" stroke="#fff" stroke-width="2" transform="translate(248 48)"/><path d="m.43161133.52652566v.9289914 10.50178474c0 .5130678.40769922.9289914.91230413.9289914h10.86081184" stroke="#fff" stroke-width="2" transform="translate(141 48)"/><path d="m20.4316113.52652566v.9289914 10.50178474c0 .5130678.4076992.9289914.9123042.9289914h10.8608118" stroke="#fff" stroke-width="2" transform="translate(291 48)"/></g><g transform="translate(367 366)"><g transform="translate(22 61)"><path d="m.83308385 44.4723657c-.40916048 0-.74085059-.3284645-.74085059-.7260969v-42.49364617c0-.40101228.32574678-.72609697.72680073-.72609697h20.39075181c.4014009 0 .9602069.23308735 1.2428189.51531317l9.6666153 9.65340767c.2849889.2845996.5160182.844517.5160182 1.2409667v31.8104991c0 .4007673-.3220896.7256534-.7408506.7256534z" fill="#ff9191"/><path d="m20.4316113.52652566v.9289914 10.50178474c0 .5130678.4076992.9289914.9123042.9289914h10.8608118" stroke="#fff" stroke-width="2"/></g><g transform="translate(70 61)"><path d="m.83308385 44.4723657c-.40916048 0-.74085059-.3284645-.74085059-.7260969v-42.49364617c0-.40101228.32574678-.72609697.72680073-.72609697h20.39075181c.4014009 0 .9602069.23308735 1.2428189.51531317l9.6666153 9.65340767c.2849889.2845996.5160182.844517.5160182 1.2409667v31.8104991c0 .4007673-.3220896.7256534-.7408506.7256534z" fill="#4d8db3"/><path d="m20.4316113.52652566v.9289914 10.50178474c0 .5130678.4076992.9289914.9123042.9289914h10.8608118" stroke="#fff" stroke-width="2"/></g><g transform="translate(118 61)"><path d="m.83308385 44.4723657c-.40916048 0-.74085059-.3284645-.74085059-.7260969v-42.49364617c0-.40101228.32574678-.72609697.72680073-.72609697h20.39075181c.4014009 0 .9602069.23308735 1.2428189.51531317l9.6666153 9.65340767c.2849889.2845996.5160182.844517.5160182 1.2409667v31.8104991c0 .4007673-.3220896.7256534-.7408506.7256534z" fill="#78cca0"/><path d="m20.4316113.52652566v.9289914 10.50178474c0 .5130678.4076992.9289914.9123042.9289914h10.8608118" stroke="#fff" stroke-width="2"/></g><g transform="translate(164 61)"><path d="m.83308385 44.4723657c-.40916048 0-.74085059-.3284645-.74085059-.7260969v-42.49364617c0-.40101228.32574678-.72609697.72680073-.72609697h20.39075181c.4014009 0 .9602069.23308735 1.2428189.51531317l9.6666153 9.65340767c.2849889.2845996.5160182.844517.5160182 1.2409667v31.8104991c0 .4007673-.3220896.7256534-.7408506.7256534z" fill="#ffbf55"/><path d="m20.4316113.52652566v.9289914 10.50178474c0 .5130678.4076992.9289914.9123042.9289914h10.8608118" stroke="#fff" stroke-width="2"/></g><g transform="matrix(.82903757 -.5591929 .5591929 .82903757 39 137.196417)"><g transform="translate(.521775 10.604002)"><ellipse cx="26.170607" cy="16.406526" fill="#09a8a7" rx="15.978634" ry="15.906003"/><ellipse cx="26.170607" cy="16.406526" fill="#81efef" mask="url(#w)" rx="15.978634" ry="15.906003"/></g><ellipse cx="26.692382" cy="27.010528" fill="#148484" mask="url(#x)" rx="15.978634" ry="15.906003"/></g><g transform="matrix(.22495105 .97437006 -.97437006 .22495105 97.26368 154.999999)"><g transform="translate(0 10.774302)"><ellipse cx="28.623025" cy="16.670013" fill="#0989a8" rx="16.235249" ry="16.161453"/><ellipse cx="28.623025" cy="16.670013" fill="#61cbff" mask="url(#y)" rx="16.235249" ry="16.161453"/></g><path d="m28.6230253 43.6057676c8.9664806 0 16.2352493-7.2357288 16.2352493-16.1614527 0-8.9257238-7.2687687-16.1614526-16.2352493-16.1614526s-16.2352492 7.2357288-16.2352492 16.1614526c0 8.9257239 7.2687686 16.1614527 16.2352492 16.1614527z" fill="#147384" mask="url(#z)"/></g><g fill="#0989a8" transform="translate(114 178)"><path d="m.12331 7.006296h2.627585v9.973925h-2.627585z"/><path d="m18.804568 2.615642h2.627585v14.36458h-2.627585z"/><path d="m9.31985924 2.61564182h2.62758536v14.36457988h-2.62758536z"/><path d="m4.91555949 0h2.62758539v16.9802217h-2.62758539z"/><path d="m23.596817 0h2.627585v16.980222h-2.627585z"/><path d="m14.1121083 5.23128364h2.6275854v11.74893806h-2.6275854z"/></g><g fill="#0989a8" transform="matrix(0 1 -1 0 243 77)"><path d="m.20572 11.688661h4.383622v16.63958h-4.383622z"/><path d="m16 4h4.3836219v23.9645444h-4.3836219z"/><path d="m8.200668 0h4.383622v28.328241h-4.383622z"/><path d="m23.543344 8.727393h4.383622v19.600848h-4.383622z"/></g><path d="m.62313716 9.00103055s1.42936172 1.42867585 3.17918435 3.17765875l-1.07645572-1.0759391c1.75581503 1.7549725 4.78654372 1.9473594 6.7553093.4404338l-1.09488548.8380434c1.97503929-1.5117277 5.23433899-1.6030324 7.28271769-.2019732l-.6346594-.4340971c2.0470946 1.4001809 4.8348594.8631336 6.2190438-1.1882608l.8994321-1.33297993c1.3875884-2.05643925 3.5732757-2.01324726 4.8868191.1044522l1.8538809 2.98883363c1.3113273 2.1141266 3.0871774 1.9533006 3.9705327-.3698936l4.2170103-11.09059322" stroke="#09a8a7" stroke-width="3" transform="translate(111 135)"/><text fill="#505050" font-family="Helvetica-Bold, Helvetica" font-size="21" font-weight="bold"><tspan x="19.140224" y="20">Patient controlled cloud</tspan></text></g><g stroke="#8cd3f6" stroke-dasharray="10 10" stroke-linecap="square" stroke-width="2" transform="translate(231 320)"><path d="m197 306-40 123"/><path d="m91 194-91 41"/><path d="m507 57-54 31"/><path d="m266.923914 8v16.1126478"/><path d="m372 295 69 111"/><path d="m91 62-91-62"/></g><g transform="translate(4 523)"><path d="m138.90122 214.761831c9.885609 0 17.900243-9.348982 17.900243-20.880794 0-15.991788-8.014634-20.881037-17.900243-20.881037-9.886586 0-17.90122 4.889249-17.90122 20.881037 0 11.531812 8.014634 20.880794 17.90122 20.880794z" fill="#2597d0"/><path d="m178.446341 245.674409-9.030975-20.275289c-.412439-.928554-1.138537-1.697649-2.041707-2.165815l-14.015854-7.271403c-.308537-.160431-.683171-.129074-.96122.080701-3.963414 2.988145-8.62439 4.567172-13.477561 4.567172-4.854146 0-9.515122-1.579027-13.478536-4.567172-.279025-.209775-.653415-.241132-.962195-.080701l-14.014878 7.271403c-.904147.468166-1.628293 1.237261-2.041708 2.165815l-9.0309753 20.275289c-.6231707 1.397693-.4956097 2.996653.3409756 4.278397.8365857 1.281988 2.2512197 2.047194 3.7853657 2.047194h70.802195c1.534878 0 2.949512-.765206 3.786098-2.047194.83561-1.281744.964146-2.881677.340975-4.278397z" fill="#2597d0"/><text fill="#505050" font-family="Helvetica" font-size="21"><tspan x="101.048915" y="288">Doctor 1</tspan></text><g transform="translate(102 71)"><path d="m.83308385 44.4723657c-.40916048 0-.74085059-.3284645-.74085059-.7260969v-42.49364617c0-.40101228.32574678-.72609697.72680073-.72609697h20.39075181c.4014009 0 .9602069.23308735 1.2428189.51531317l9.6666153 9.65340767c.2849889.2845996.5160182.844517.5160182 1.2409667v31.8104991c0 .4007673-.3220896.7256534-.7408506.7256534z" fill="#78cca0"/><path d="m20.4316113.52652566v.9289914 10.50178474c0 .5130678.4076992.9289914.9123042.9289914h10.8608118" stroke="#fff" stroke-width="2"/></g><text fill="#505050" font-family="Helvetica-Bold, Helvetica" font-size="21" font-weight="bold"><tspan x="93.609218" y="20">Subset A</tspan></text><path d="m146.833084 115.472366c-.409161 0-.740851-.328465-.740851-.726097v-42.4936464c0-.4010123.325747-.7260969.726801-.7260969h20.390752c.401401 0 .960207.2330873 1.242819.5153131l9.666615 9.6534077c.284989.2845996.516018.844517.516018 1.2409667v31.8104988c0 .400768-.322089.725654-.74085.725654z" fill="#ffbf55"/><path d="m166.431611 71.5265257v.9289914 10.5017847c0 .5130678.4077.9289914.912304.9289914h10.860812" stroke="#fff" stroke-width="2"/></g><g transform="translate(0 169)"><text fill="#505050" font-family="Helvetica" font-size="21"><tspan x="57.116298" y="20">3rd Party Provider</tspan></text><g transform="matrix(.22495105 .97437006 -.97437006 .22495105 182.26368 120.999999)"><g transform="translate(0 10.774302)"><ellipse cx="28.623025" cy="16.670013" fill="#0989a8" rx="16.235249" ry="16.161453"/><ellipse cx="28.623025" cy="16.670013" fill="#61cbff" mask="url(#A)" rx="16.235249" ry="16.161453"/></g><path d="m28.6230253 43.6057676c8.9664806 0 16.2352493-7.2357288 16.2352493-16.1614527 0-8.9257238-7.2687687-16.1614526-16.2352493-16.1614526s-16.2352492 7.2357288-16.2352492 16.1614526c0 8.9257239 7.2687686 16.1614527 16.2352492 16.1614527z" fill="#147384" mask="url(#B)"/></g><g fill="#0989a8" transform="matrix(0 1 -1 0 124 139)"><path d="m.20572 11.688661h4.383622v16.63958h-4.383622z"/><path d="m16 4h4.3836219v23.9645444h-4.3836219z"/><path d="m8.200668 0h4.383622v28.328241h-4.383622z"/><path d="m23.543344 8.727393h4.383622v19.600848h-4.383622z"/></g><text fill="#505050" font-family="Helvetica-Bold, Helvetica" font-size="21" font-weight="bold"><tspan x="87.405605" y="89">Additional</tspan> <tspan x="93.209316" y="118">data sets</tspan></text></g></g><text fill="#1b1b1b" font-family="Helvetica-Bold, Helvetica" font-size="44" font-weight="bold"><tspan x="332.652344" y="135">How it should look like</tspan></text></g></svg>