<svg height="381" viewBox="0 0 1177 381" width="1177" xmlns="http://www.w3.org/2000/svg"><g fill="none" fill-rule="evenodd"><path d="m0 0h1177v381h-1177z" fill="#fff"/><g transform="translate(1015.470447 144.266298)"><circle cx="44.464852" cy="44.4806" fill="#087fb9" r="44.31619"/><path d="m30.3082643 33.0081303c2.9264177 0 5.8779189 1.1083559 8.1187187 3.3417346 0 0 12.1320915 12.0919127 15.6772374 15.6253179 3.9381221 3.9250799 6.5050084 4.5584261 8.6621963 4.4250901 0 0-7.4414621 7.4168175-11.8394497 11.8002401-2.1404655 2.1333767-4.3394593 3.11673-6.4966472 3.11673-2.2742446 0-4.498322-1.1000223-6.5217308-3.11673l-.3018672-.3008675c-4.2039256-4.1900032-15.4171762-15.366118-15.4171762-15.366118-4.4732384-4.475091-4.4732384-11.7085715 0-16.1836626 2.2324386-2.2250452 5.1923011-3.3417346 8.1187187-3.3417346zm36.3377461 3.3417346c4.4899608 4.4750911 4.4899608 11.7252386-.0167224 16.1669956-2.4987214 2.4986384-6.233708 3.2657947-11.1255277-1.4590619l-.2540564-.2493062-9.6822618-9.6501963 4.8411309-4.8084312c4.4899608-4.458424 11.7641989-4.458424 16.2374374 0zm-8.1187187-15.2836443c2.7341102 0 4.97491 2.2083783 4.97491 4.9584343 0 2.7333889-2.2157162 4.9584342-4.97491 4.9584342s-4.97491-2.2333788-4.97491-4.9584342c0-2.750056 2.2157162-4.9584343 4.97491-4.9584343zm-28.202305 0c2.7341102 0 4.97491 2.2083783 4.97491 4.9584343 0 2.7333889-2.2157162 4.9584342-4.97491 4.9584342-2.7424714 0-4.97491-2.2083783-4.97491-4.9584342 0-2.750056 2.2157162-4.9584343 4.97491-4.9584343z" fill="#fff"/></g><circle cx="970.622963" cy="187.244937" r="43.75369" stroke="#93d7ff" stroke-width="1.125"/><circle cx="1061.11619" cy="277.474243" r="43.75369" stroke="#93d7ff" stroke-width="1.125"/><path d="m987.168272 116.043566v145.426086h145.426088v-145.426086z" stroke="#93d7ff" stroke-width="1.125"/><text fill="#93d7ff" font-family="Avenir-Heavy, Avenir" font-size="12.375" font-weight="600"><tspan x="1056.2086" y="136.074778">X</tspan></text><text fill="#93d7ff" font-family="Avenir-Heavy, Avenir" font-size="12.375" font-weight="600"><tspan x="991.254125" y="136.074778">X/3</tspan></text><path d="m1059.9838 99.2449894 5.27801 9.9350636-.99351.5278-3.722-7.005107v82.111l3.722-7.004908.99351.5278-5.27801 9.935063-5.278-9.935063.99351-.5278 3.72199 7.006908v-82.115l-3.72199 7.007107-.99351-.5278z" fill="#93d7ff" fill-rule="nonzero" transform="matrix(0 1 -1 0 1203.742148 -916.225458)"/><path d="m1001.18267 130.470567 5.278 9.935064-.9935.5278-3.72231-7.005697v19.66l3.72231-7.004474.9935.5278-5.278 9.935063-5.278004-9.935063.993506-.5278 3.721688 7.006474v-19.664l-3.721688 7.007697-.993506-.5278z" fill="#93d7ff" fill-rule="nonzero" transform="matrix(0 1 -1 0 1144.941014 -857.424324)"/><path d="m1105.0625 128.056452v119.277271" stroke="#93d7ff" stroke-linecap="square" stroke-width="1.125"/><path d="m1015.0625 128.056452v119.277271" stroke="#93d7ff" stroke-linecap="square" stroke-width="1.125"/><path d="m79.8063303 100.105971v177.309392h415.6045667v-177.309392z" stroke="#93d7ff" stroke-width="1.125"/><text fill="#93d7ff" font-family="Avenir-Heavy, Avenir" font-size="12.375" font-weight="600"><tspan x="162.980919" y="133.499778">X</tspan></text><text fill="#93d7ff" font-family="Avenir-Heavy, Avenir" font-size="12.375" font-weight="600"><tspan x="91.745401" y="133.374778">X/2</tspan></text><g stroke="#93d7ff" stroke-width="1.125"><circle cx="168.530381" cy="277.474243" r="43.75369"/><circle cx="79.655381" cy="188.880806" r="43.75369"/><circle cx="495.591176" cy="188.880806" r="43.75369"/><g stroke-linecap="square"><path d="m446.014034 167.137977v56.794926"/><path d="m450.71916 167.171853v56.794926"/></g></g><path d="m168.5625 99.9502437 5.278003 9.9350633-.993506.5278-3.721997-7.005107v82.111l3.721997-7.004908.993506.5278-5.278003 9.935064-5.278003-9.935064.993506-.5278 3.721997 7.006908v-82.115l-3.721997 7.007107-.993506-.5278z" fill="#93d7ff" fill-rule="nonzero" transform="matrix(0 1 -1 0 313.0261 -24.0989)"/><path d="m101.378978 123.214438 5.278002 9.935064-.993505.5278-3.72279-7.007655v35.789l3.72279-7.006716.993505.5278-5.278002 9.935063-5.2780031-9.935063.9935052-.5278 3.7212049 7.004716v-35.785l-3.7212049 7.005655-.9935052-.5278z" fill="#93d7ff" fill-rule="nonzero" transform="matrix(0 1 -1 0 245.943594 43.185638)"/><path d="m213.5625 128.056452v119.277271" stroke="#93d7ff" stroke-linecap="square" stroke-width="1.125"/><path d="m123.5625 128.056452v119.277271" stroke="#93d7ff" stroke-linecap="square" stroke-width="1.125"/><text fill="#93d7ff" font-family="Avenir-Heavy, Avenir" font-size="12.375" font-weight="600"><tspan x="730.230919" y="110.874778">X</tspan></text><text fill="#93d7ff" font-family="Avenir-Heavy, Avenir" font-size="12.375" font-weight="600"><tspan x="630.120401" y="110.874778">X/2</tspan></text><path d="m732.8125 76.3252437 5.278003 9.9350637-.993506.5277996-3.721997-7.005107v82.111l3.721997-7.004908.993506.5278-5.278003 9.935064-5.278003-9.935064.993506-.5278 3.721997 7.006908v-82.115l-3.721997 7.007107-.993506-.5277996z" fill="#93d7ff" fill-rule="nonzero" transform="matrix(0 1 -1 0 853.6511 -611.9739)"/><path d="m641.233167 98.2646362 5.278002 9.9350638-.993505.5278-3.72229-7.005575v38.232l3.72229-7.004225.993505.5278-5.278002 9.935063-5.278003-9.935063.993505-.5278 3.721705 7.006225v-38.236l-3.721705 7.007575-.993505-.5278z" fill="#93d7ff" fill-rule="nonzero" transform="matrix(0 1 -1 0 762.071767 -520.394567)"/><g stroke="#93d7ff" stroke-width="1.125"><path d="m778.8125 104.431452v104.652271" stroke-linecap="square"/><path d="m688.8125 104.431452v104.652271" stroke-linecap="square"/><path d="m414.188984 167.137977v56.794926" stroke-linecap="square"/><path d="m418.89411 167.171853v56.794926" stroke-linecap="square"/></g><text fill="#3d3d3d" font-family="Avenir-Heavy, Avenir" font-size="53.372492" font-weight="600" letter-spacing=".112500004"><tspan x="234.4013" y="207.170884">LifeTim</tspan> <tspan x="417.135624" y="207.170884">e</tspan></text><circle cx="168.386203" cy="188.712888" fill="#087fb9" r="44.31619"/><path d="m154.229615 177.240418c2.926418 0 5.877919 1.108355 8.118719 3.341734 0 0 12.132092 12.091913 15.677238 15.625318 3.938122 3.92508 6.505008 4.558426 8.662196 4.42509 0 0-7.441462 7.416818-11.83945 11.80024-2.140465 2.133377-4.339459 3.11673-6.496647 3.11673-2.274245 0-4.498322-1.100022-6.521731-3.11673l-.301867-.300867c-4.203926-4.190003-15.417176-15.366118-15.417176-15.366118-4.473239-4.475091-4.473239-11.708572 0-16.183663 2.232438-2.225045 5.192301-3.341734 8.118718-3.341734zm36.337746 3.341734c4.489961 4.475091 4.489961 11.725239-.016722 16.166996-2.498721 2.498638-6.233708 3.265794-11.125528-1.459062l-.254056-.249306-9.682262-9.650197 4.841131-4.808431c4.489961-4.458424 11.764199-4.458424 16.237437 0zm-8.118718-15.283644c2.73411 0 4.97491 2.208378 4.97491 4.958434 0 2.733389-2.215716 4.958434-4.97491 4.958434s-4.97491-2.233378-4.97491-4.958434c0-2.750056 2.215716-4.958434 4.97491-4.958434zm-28.202305 0c2.73411 0 4.97491 2.208378 4.97491 4.958434 0 2.733389-2.215716 4.958434-4.97491 4.958434-2.742472 0-4.97491-2.208378-4.97491-4.958434s2.215716-4.958434 4.97491-4.958434z" fill="#fff"/><path d="m618.588661 76.7165773v224.3749997h231.375v-224.3749997z" stroke="#93d7ff" stroke-width="1.125"/><path d="m663.977084 120.861833v135.929582h141.740488v-135.929582zm141.740488 135.929582h.5625l-.5625.5625z" stroke="#93d7ff" stroke-width="1.125"/><path d="m664.254972 230.035828h4.586401v21.621605h10.956403v4.149601h-15.542804zm18.68039 8.299202h4.368001v17.472004h-4.368001zm-.6188-5.933202c0-.703737.260864-1.316464.7826-1.8382s1.182996-.7826 1.983801-.7826c.800804 0 1.474197.248731 2.0202.7462s.819 1.12233.819 1.8746c0 .752271-.272997 1.377131-.819 1.874601-.546003.497469-1.219396.7462-2.0202.7462-.800805 0-1.462065-.260864-1.983801-.7826s-.7826-1.134464-.7826-1.838201zm11.691588 9.646002h-3.603601v-3.7128h3.603601v-2.475201c0-1.21334.084933-2.311396.2548-3.294201.169868-.982805.491398-1.826063.964601-2.5298.473202-.703737 1.134462-1.243665 1.9838-1.619801.849338-.376135 1.95346-.5642 3.312401-.5642.994938 0 1.917063.084933 2.7664.2548l-.2912 3.712801c-.315468-.0728-.618798-.133466-.91-.182-.291201-.048534-.594532-.0728-.91-.0728-.60667 0-1.091998.097066-1.456.2912s-.649133.454999-.855401.7826c-.206267.327602-.339733.709798-.4004 1.146601-.060667.436802-.091.897864-.091 1.3832v3.166801h4.040401v3.7128h-4.040401v13.759204h-4.368001zm14.858389 6.552002c.145601 1.310407.655196 2.329597 1.528801 3.057601.873604.728004 1.929194 1.092 3.1668 1.092 1.092006 0 2.008064-.224465 2.748201-.6734.740137-.448936 1.389264-1.01313 1.947401-1.692601l3.1304 2.366001c-1.019205 1.261873-2.159727 2.159731-3.421601 2.693601-1.261873.533869-2.584393.8008-3.9676.8008-1.310407 0-2.547995-.218398-3.712801-.6552-1.164806-.436803-2.171863-1.055597-3.021201-1.856401s-1.522731-1.765395-2.0202-2.8938c-.49747-1.128406-.746201-2.384194-.746201-3.767401 0-1.383208.248731-2.638995.746201-3.767401.497469-1.128406 1.170862-2.092997 2.0202-2.893801s1.856395-1.419598 3.021201-1.8564c1.164806-.436803 2.402394-.6552 3.712801-.6552 1.213339 0 2.323528.212331 3.3306.637s1.868531 1.037396 2.584401 1.8382 1.273998 1.789661 1.6744 2.966601c.400402 1.176939.6006 2.529793.6006 4.058601v1.2012zm8.954402-3.276001c-.024266-1.28614-.424662-2.299263-1.2012-3.0394-.776537-.740138-1.856393-1.110201-3.239601-1.110201-1.310406 0-2.347796.37613-3.1122 1.128401-.764404.75227-1.231533 1.759327-1.401401 3.0212zm14.239589-11.138402h-7.898801v-4.149601h20.384004v4.149601h-7.898802v21.621605h-4.586401zm15.40439 4.149601h4.368001v17.472004h-4.368001zm-.618801-5.933202c0-.703737.260865-1.316464.782601-1.8382s1.182996-.7826 1.9838-.7826 1.474198.248731 2.020201.7462c.546002.497469.819 1.12233.819 1.8746 0 .752271-.272998 1.377131-.819 1.874601-.546003.497469-1.219397.7462-2.020201.7462s-1.462064-.260864-1.9838-.7826-.782601-1.134464-.782601-1.838201zm9.944388 5.933202h4.149601v2.73h.0728c.388269-.825071 1.01313-1.55913 1.874601-2.2022s2.020193-.9646 3.476201-.9646c2.742147 0 4.562129 1.079856 5.460001 3.2396.630936-1.116272 1.419595-1.935264 2.366-2.457s2.074794-.7826 3.385201-.7826c1.164806 0 2.147597.194131 2.948401.5824.800804.388268 1.449931.92213 1.9474 1.6016.49747.67947.855399 1.474196 1.073801 2.384201.218401.910004.3276 1.886728.3276 2.9302v10.410403h-4.368001v-9.900803c0-.533869-.048533-1.049531-.1456-1.547-.097068-.497469-.266933-.934265-.509601-1.3104-.242667-.376136-.570264-.673399-.9828-.891801-.412535-.218401-.946397-.3276-1.6016-.3276-.67947 0-1.255798.127399-1.729001.382201-.473202.254801-.861465.594531-1.1648 1.0192s-.521733.909997-.6552 1.456-.2002 1.098064-.2002 1.6562v9.464003h-4.368001v-10.410403c0-1.092005-.230531-1.95953-.6916-2.6026s-1.225462-.964601-2.293201-.964601c-.728004 0-1.340731.121333-1.8382.364001-.497469.242667-.909999.570264-1.2376.9828-.327602.412535-.5642.885731-.709801 1.4196-.1456.53387-.2184 1.091997-.2184 1.6744v9.536803h-4.368001zm35.460794 10.264802c.145601 1.310407.655196 2.329597 1.528801 3.057601.873604.728004 1.929194 1.092 3.1668 1.092 1.092006 0 2.008064-.224465 2.748201-.6734.740137-.448936 1.389264-1.01313 1.9474-1.692601l3.130401 2.366001c-1.019205 1.261873-2.159727 2.159731-3.421601 2.693601-1.261873.533869-2.584393.8008-3.967601.8008-1.310406 0-2.547994-.218398-3.7128-.6552-1.164807-.436803-2.171863-1.055597-3.021201-1.856401s-1.522731-1.765395-2.020201-2.8938c-.497469-1.128406-.7462-2.384194-.7462-3.767401 0-1.383208.248731-2.638995.7462-3.767401.49747-1.128406 1.170863-2.092997 2.020201-2.893801s1.856394-1.419598 3.021201-1.8564c1.164806-.436803 2.402394-.6552 3.7128-.6552 1.21334 0 2.323529.212331 3.330601.637s1.86853 1.037396 2.584401 1.8382c.71587.800804 1.273998 1.789661 1.6744 2.966601.400402 1.176939.6006 2.529793.6006 4.058601v1.2012zm8.954402-3.276001c-.024267-1.28614-.424663-2.299263-1.2012-3.0394-.776537-.740138-1.856394-1.110201-3.239601-1.110201-1.310407 0-2.347796.37613-3.1122 1.128401-.764404.75227-1.231533 1.759327-1.401401 3.0212z" fill="#3d3d3d"/><g fill="#000" transform="translate(689.56269 121.278645)"><path d="m44.4893424 88.8456985c24.4886364 0 44.3405987-19.8519623 44.3405987-44.3405987 0-24.4886365-19.8519623-44.34059868-44.3405987-44.34059868-24.4886365 0-44.34059869 19.85196218-44.34059869 44.34059868 0 24.4886364 19.85196219 44.3405987 44.34059869 44.3405987z" fill="#087fb9"/><path d="m30.2237467 33.0648971c2.9280295 0 5.8811564 1.1089663 8.1231904 3.3435752l.130697.1302642c1.3176972 1.3133333 12.2243632 12.1838788 15.5551753 15.50366 3.9402911 3.9272418 6.5085913 4.5609368 8.6669673 4.4275273 0 0-7.4455607 7.4209027-11.8459708 11.8067396-2.1416444 2.1345518-4.3418494 3.1184467-6.5002254 3.1184467-2.1765626 0-4.3072002-1.007002-6.2601284-2.8604695l-.2651945-.2579772-15.7277013-15.6756147c-4.4757022-4.4775558-4.4757022-11.7150205 0-16.1925764 2.2336682-2.2262708 5.1951609-3.3435752 8.1231904-3.3435752zm36.3577605 3.3435752c4.4924339 4.4775559 4.4924339 11.7316967-.0167316 16.1759003-2.5000976 2.5000146-6.2371414 3.2675934-11.1316555-1.4598656l-.2541963-.2494435-9.6875947-9.6555116 4.8437973-4.8110796c4.4924339-4.4608797 11.7706786-4.4608797 16.2463808 0zm-8.1231904-15.2920623c2.7356162 0 4.9776502 2.2095946 4.9776502 4.9611652 0 2.7348945-2.2169367 4.9611653-4.9776502 4.9611653s-4.9776501-2.2346089-4.9776501-4.9611653c0-2.7515706 2.2169366-4.9611652 4.9776501-4.9611652zm-28.2178385 0c2.7356161 0 4.9776501 2.2095946 4.9776501 4.9611652 0 2.7348945-2.2169366 4.9611653-4.9776501 4.9611653-2.7439819 0-4.9776502-2.2095946-4.9776502-4.9611653 0-2.7515706 2.2169367-4.9611652 4.9776502-4.9611652z" fill="#fff"/></g><circle cx="618.61619" cy="187.170639" r="43.75369" stroke="#93d7ff" stroke-width="1.125"/><circle cx="850.01619" cy="187.244937" r="43.75369" stroke="#93d7ff" stroke-width="1.125"/><circle cx="733.710421" cy="76.81619" r="43.75369" stroke="#93d7ff" stroke-width="1.125"/><circle cx="733.12869" cy="301.01619" r="43.75369" stroke="#93d7ff" stroke-width="1.125"/></g></svg>