<svg height="539" viewBox="0 0 539 539" width="539" xmlns="http://www.w3.org/2000/svg" xmlns:xlink="http://www.w3.org/1999/xlink"><mask id="a" fill="#fff"><path d="m31.4922857 41.4694262c15.007274 0 23.5016218.8157808 23.5016218-14.1914932s-12.1657993-27.17307337-27.1730733-27.17307337c-15.0072741 0-27.17307341 12.16579937-27.17307341 27.17307337s15.83725081 14.1914932 30.84452491 14.1914932z" fill="#fff" fill-rule="evenodd"/></mask><g fill="none" fill-rule="evenodd"><path d="m0 0h539v539h-539z" fill="#fff"/><circle cx="104.890736" cy="105.309738" fill="#4a767c" r="31.546223"/><g fill="#fff" transform="translate(73.344513 73.763515)"><path d="m14.3021941 10.6248717c-.6691796 0-1.2116568-.5343887-1.2116568-1.2117982v-11.64663931c0-.66925767.5446382-1.2117982 1.2116568-1.2117982h1.6150985c.6691796 0 1.2116568.53438867 1.2116568 1.2117982v11.64663931c0 .6692577-.5446382 1.2117982-1.2116568 1.2117982h-.1085934v27.8867106h-1.3979119v-27.8867106z" transform="matrix(.76604444 -.64278761 .64278761 .76604444 4.846619 31.21798)"/><path d="m14.9050311 10.7306985c-.6629708 0-1.2004148-.5386897-1.2004148-1.20927554v-11.76492946c0-.66786446.539585-1.20927558 1.2004148-1.20927558h1.6001133c.6629708 0 1.2004148.53868972 1.2004148 1.20927558v11.76492946c0 .66786444-.539585 1.20927554-1.2004148 1.20927554h-.1075859v28.111158h-1.3849417v-28.111158z" transform="matrix(.99939083 .03489949 -.03489949 .99939083 15.774951 11.669422)"/><path d="m12.0432804 11.8746382c-.6730358 0-1.2186392-.5394151-1.2186392-1.2002937v-12.26679828c0-.66290392.5355348-1.20029373 1.2186392-1.20029373h1.4142232c.6730358 0 1.2186392.53941508 1.2186392 1.20029373v12.26679828c0 .6629039-.5355348 1.2002937-1.2186392 1.2002937h-.0405056v20.2149416h-1.3332122v-20.2149416z" transform="matrix(.98768834 .15643446 -.15643446 .98768834 26.214107 17.331957)"/><rect height="5.262626" rx="1.21" width="24.332776" x="19.379835" y="47.488755"/></g><g transform="translate(155.282755 73.540048)"><path d="m31.5462233 63.0924466c17.422498 0 31.5462233-14.1237253 31.5462233-31.5462233 0-17.4224981-14.1237253-31.5462233-31.5462233-31.5462233-17.4224981 0-31.5462233 14.1237252-31.5462233 31.5462233 0 17.422498 14.1237252 31.5462233 31.5462233 31.5462233z" fill="#518c86"/><path d="m32.3703389 12.471738s-.6968491 1.9926438-.8595374 2.8430021c-.1626884.8503583.9038628 3.0691623 1.4311331 5.0267761.2716368 1.008515.6137078 2.0283506.9890185 3.0046467.109859.2857762.2101198.5363164.2964245.7454436.1639429-.1671613.3590407-.3606764.5803867-.5746362.7981484-.7715147 1.6532598-1.5291813 2.5346304-2.2196311 1.8186161-1.4246708 3.5093999-2.3828422 5.0278076-2.6899619 1.2269901-.2481763 1.564374-.5252429 3.7256901-1.277005-.6577919.5638216-2.3772903 1.5199643-4.1006146 2.7807456-1.7233243 1.2607812-1.8343047 1.4966431-3.4302768 2.7468987-.822206.6441012-1.6273118 1.3574607-2.3793515 2.0844053-.4503794.4353506-.7806887.7760878-.9568149.9671877.0610902-.0070088.1237398-.0110255.1895101-.0154676l.2020292-.1922528c.0443602.046477.0983021.1019338.1612958.1655482.0957616-.0074193.1985798-.015907.3058343-.0252379 1.0420146-.090653 2.1085908-.2302681 3.1341158-.4282264 1.9906318-.384254 4.4524248-.3983038 5.1454039-.9172997.6929791-.5189958 2.3335263-.9971697 2.3335263-.9971697-1.3163304.9321184-.5788344 1.1360264-2.3788366 2.1286658-1.0858431.5988051-2.4560052 1.2945539-4.7243374 1.7324127-.2885664.0557024-.5794413.1070006-.8715317.1541089.7324621.1904521 1.4783357.3569069 2.2152655.4878358 1.9961191.3546466 4.299436 1.2237577 5.1323792.9875748.8329432-.2361828 2.9617163-.2032518 3.01718.0402964.0554637.2435483-1.594332.5818764-2.7942116.9387867-1.084574.322612-5.0889742.0942593-5.7021513-.0146827l-.0947875-.0180713c1.0771811.9500058 2.0482601 1.8526171 2.6344051 1.9683495.8493826.1677079 2.731183 1.1634924 2.6700329 1.4056755s-1.6847266-.2053559-2.9158611-.4320805c-1.1128252-.2049369-4.577102-2.2263603-5.0739881-2.6018049-.6277721-.4743413-1.2431565-.982101-1.8351749-1.5049445-.0256701-.0101859-.0497842-.0185564-.0725195-.0265338l.0096769-.0291001c-.2287684-.2030145-.4539697-.4081966-.6749648-.6144793-.0738359-.0689203-.1448084-.1356896-.2128013-.2001224-.0909256.0050372-.1717848.0080924-.2408868.0101011l-.0076631-.2479177c-.1421554-.1373944-.2667961-.2603725-.3723839-.3664801-.059511.1788315-.1277614.3725308-.2027794.5811629l-.0866602.2393517c-.6362865 1.7457088-1.504047 3.8614845-2.638365 6.3569845-.6260649 1.3773431-1.5897307 2.8481187-2.8633023 4.4321096-1.166674 1.4510381-2.5682075 2.9680603-4.2420573 4.6286061-1.3290597 1.318496-3.267016 4.9514671-3.8790647 5.6247207 0 0-1.7278386 1.1621959-2.9702302.9291524-1.2423915-.2330435-2.0599702-1.3484311-2.0599702-1.8727s.1796976-2.5896638 2.0599702-3.6354187c1.8802726-1.0457548 2.7211586-1.1649548 3.3172592-1.7563174 1.6058153-1.5930521 4.511682-4.3033823 5.6044472-5.6624972 1.139427-1.4171499 1.9816674-2.7026024 2.4985161-3.8396698 1.1051304-2.4312872 1.9457492-4.4808862 2.5571558-6.1583349.1710277-.4692297.3064195-.8591257.4099408-1.1707078-.1152528-.0693547-.2357439-.1438857-.3604902-.2217514-1.3223554-.8254039-2.6451935-1.7331258-3.8853675-2.6994616-2.558969-1.9939324-4.4388926-3.9721675-5.3731803-5.9367081-.7549764-1.5874997-.9476134-3.3681239-.9476134-3.3681239 3.3829294 4.8079007 5.0839929 5.877183 7.3296804 7.6270084.8518425.6637503 2.0175388 1.2020508 3.0704505 1.7502421-.2680148-.7506012-.5112662-1.519636-.7181163-2.2876152-.6008265-2.2307081-.822186-4.1614702-.5116021-5.6791731.2509757-1.2264206.4099203-1.3214466 1.8543278-2.7062149zm2.3616218 13.568-1.325311.9560726c.1556528.009153.4309384.0243468.810078.0437669l.4097888-.3894221c.043593-.1348931.0814705-.2558439.1139167-.3629305zm.2196625-.1181373c.0808896-.0039367.1720394-.0088937.2726891-.0150028l-.2532113-.2350732c-.0038259.0838403-.0103369.1676054-.0194778.250076z" fill="#fff" fill-rule="nonzero"/></g><g transform="translate(237.220998 73.540048)"><path d="m31.5462233 63.0924466c17.422498 0 31.5462233-14.1237253 31.5462233-31.5462233 0-17.4224981-14.1237253-31.5462233-31.5462233-31.5462233-17.4224981 0-31.5462233 14.1237252-31.5462233 31.5462233 0 17.422498 14.1237252 31.5462233 31.5462233 31.5462233z" fill="#5fad84"/><path d="m31.2917078 58.4994161.039847.0117452.1135124.0194565.1172087.0066454h-.5392029c.0793239 0 .1565451-.0091083.2306586-.0263276zm-.2482874-52.08200001c1.5838635 0 2.8678385 1.22815002 2.8678385 2.74314985 0 1.04039336-.6055173 1.94550966-1.4978474 2.41050076l-.0169347 2.0837306c3.0909775.4961477 5.5933018 2.9665246 6.234124 3.4091836.7130861.4925766 1.5191379.1641922 1.5191379.1641922s-.6305657 1.2259896-2.7698239 1.6329427c-1.9591426.3726895-4.0063184-.5298347-5.021793-.6844534l-.0698681 8.5983443.4822697.2897732c2.7430017 1.6505167 5.6001263 3.4639943 5.6001262 6.4094415-.0000001 3.4731385-3.4908512 5.1049877-6.1918825 6.5179848l-.0492171 6.0704804c1.9566337 1.1820228 4.1343236 2.3415365 4.1343236 4.0536784 0 1.4884677-2.0566678 2.9709649-4.2005214 4.0612212l-.0282572 3.362821c-.0035526.4325737-.2834986.8007948-.6726494.9387407l-.0707378.0202682-.0692009-.0198027c-.3907182-.1369632-.6759053-.5032533-.6851072-.9392062l-.0554424-2.6297994c-1.7363789.7328164-3.1892397 1.1208628-3.1892397.9347986 0-.2304033 1.5821944-.8923504 3.169685-1.8449447l-.1357958-6.4529788c-2.2210655-1.0624921-4.7330048-2.2610889-4.7330048-4.7343577 0-2.2739352 2.2911344-3.8082076 4.5230002-5.2065054l-.1622841-7.7099446c-3.2057794-1.6548174-7.0116103-3.7131608-7.0116103-7.748829 0-5.8969561 3.4467988-7.9564388 6.6694283-8.4513758l-.0466136-2.1845763c-.8328877-.4799989-1.3899406-1.3534386-1.3899406-2.35132816 0-1.51499983 1.2839751-2.74314985 2.8678385-2.74314985zm1.0675863 42.04419481-.0372864 4.4296029c.9130006-.7458736 1.5903573-1.5949194 1.5903573-2.50767 0-.7864637-.6369972-1.3786428-1.5530709-1.9219329zm-1.844147-3.6665213-.0766361-3.6322573c-.6753235.497695-1.1056082 1.0243889-1.1056082 1.6502927 0 .748481.4757202 1.3895617 1.1822443 1.9819646l-.0766361-3.6322573zm1.986225-13.6633921-.0430356 5.1220338c1.2062419-.8542045 2.0917255-1.732359 2.0917256-2.7795101 0-.8894765-.8333864-1.6165622-2.04869-2.3425237zm-2.399095-5.9325713-.1394896-6.6617122c-1.0021647.4562534-1.9112921 1.4503079-1.9112921 3.6104318 0 1.1810353.8420611 2.1464481 2.0507817 3.0512804l-.1394896-6.6617122z" fill="#fff"/></g><g transform="translate(319.382708 73.540048)"><path d="m31.5462233 63.0924466c17.422498 0 31.5462233-14.1237253 31.5462233-31.5462233 0-17.4224981-14.1237253-31.5462233-31.5462233-31.5462233-17.4224981 0-31.5462233 14.1237252-31.5462233 31.5462233 0 17.422498 14.1237252 31.5462233 31.5462233 31.5462233z" fill="#64ba6f"/><path d="m44.1911422 14.6184092c-.3917105-.3917055-1.0270236-.3914536-1.4168863-.0015628l-3.5201265 3.5203809-2.2691302-2.2690719c-.3892357-.3892258-1.0203078-.3892747-1.4103226.0006743l-.400373.4003055c-.3896639.3895982-.3918467 1.0191514.0031857 1.4142081l.5344272.53446-16.9728968 16.9735078c-.2402005.2402005-.3753849.5659414-.3753849.9057354 0 .3395649.1351844.6653058.3753849.9058118l.872894.8726649-.6482741.6482741c-.5000295.500335-.5000295 1.3112122 0 1.8115472l.9063465.9063464-4.9957877 7.3469559 7.253367-5.0897584.9066519.9064228c.2401242.2404296.5659415.3753085.9057354.3753085.3395649 0 .6653058-.1351844.9058118-.3753085l.6479686-.6483505.8729704.8729704c.2499766.2499766.577856.3753085.9054299.3753085.3278795 0 .6557589-.1250264.9057354-.3753085l16.9729732-16.9728968.5345585.5345585c.3915195.3915195 1.0244562.3933614 1.4144875.0033301l.4003898-.4003898c.3896804-.3896804.3873189-1.0238303.000805-1.4103343l-2.2691302-2.2690719 3.5204445-3.5201901c.3908495-.3908212.3862813-1.0290546-.001559-1.41689zm-16.9190088 27.2945448-5.8161366-5.8159075 2.8840101-2.8840101 2.2223406 2.1858718c.392004.3855712 1.0253335.3826043 1.4153648-.0074105l.4003898-.400373c.3896804-.3896639.3917571-1.0141967-.0042813-1.4037058l-2.2225722-2.1859297 2.7170535-2.7169771 2.2222828 2.1856402c.3919938.3855304 1.0252618.3825836 1.4152272-.0073654l.4003224-.4003055c.3896146-.3895982.3917034-1.014045-.0042525-1.4035129l-2.222109-2.1856981 2.7169771-2.7172827 2.2223406 2.1858718c.3920041.3855712 1.0252803.3826575 1.4152458-.0072915l.4003223-.4003055c.3896147-.3895982.3916708-1.0140777-.0043263-1.4035868l-2.2223407-2.1859297 2.3151664-2.3151664 4.9912063 4.9912827c.0003055.0003055.8249303.8249303.8249303.8249303z" fill="#fff"/></g><g transform="translate(401.544418 73.31658)"><path d="m31.5462233 63.0924466c17.422498 0 31.5462233-14.1237253 31.5462233-31.5462233 0-17.4224981-14.1237253-31.5462233-31.5462233-31.5462233-17.4224981 0-31.5462233 14.1237252-31.5462233 31.5462233 0 17.422498 14.1237252 31.5462233 31.5462233 31.5462233z" fill="#7ed16d"/><path d="m31.5462233 20.5736239c8.3749777 0 15.6347795 4.4589901 19.2020489 10.9725994-3.5676445 6.5136093-10.8270712 10.9725994-19.2020489 10.9725994-8.3753528 0-15.6347795-4.4589901-19.202049-10.9725994 3.5672695-6.5136093 10.8266962-10.9725994 19.202049-10.9725994zm0 1.3715749c-5.3024994 0-9.6010245 4.2985251-9.6010245 9.6010245s4.2985251 9.6010245 9.6010245 9.6010245 9.6010245-4.2985251 9.6010245-9.6010245-4.2985251-9.6010245-9.6010245-9.6010245z" fill="#fff"/></g><g transform="translate(73.344513 155.47829)"><path d="m31.5462233 63.0924466c17.422498 0 31.5462233-14.1237253 31.5462233-31.5462233 0-17.4224981-14.1237253-31.5462233-31.5462233-31.5462233-17.4224981 0-31.5462233 14.1237252-31.5462233 31.5462233 0 17.422498 14.1237252 31.5462233 31.5462233 31.5462233z" fill="#f9ce44"/><path d="m21.6374035 45.6371358s.7310533-1.5267304 1.9062748-6.8853611c-1.1752214-4.3973737-4.5028094-10.7074515-4.5028094-13.0190832 0-4.6071972 2.0177852-10.1139668 9.5786166-11.0354062s7.2712545.7164814 10.1161821 1.9061785c2.8449275 1.1896971 3.4709704 5.2567433 3.4709704 5.9366496 0 .6799064-.8621255 1.9774231.0000009 3.6843805.8621263 1.7069575-.4536499 2.4311204-.4536499 2.4311204s2.5635114 3.8779173 2.8794391 4.7587893c-.5463588.3605514-1.8209239.5946528-2.4257904 1.2089465s-.4536496 2.589035-.4536496 4.1284256c0 1.5393907-.6964797 3.2911112-.6964797 3.2911112s-1.9271739-.0443715-3.1838493-.2610565c-1.2566753-.216685-1.7406898.1855459-2.3520546.9534115-.6113647.7678656-.6024313 4.8943396-.6024307 5.9693512" fill="#fff" stroke="#fff" stroke-width="2.42"/><path d="m36.5678179 36.6277206c.9335174 0 1.6902828.7685591 1.6902828 1.7166249 0 .9480657-.7567654 1.7166248-1.6902828 1.7166248s-1.6902828-.7685591-1.6902828-1.7166248c0-.9480658.7567654-1.7166249 1.6902828-1.7166249zm-5.0708484 0c.9335174 0 1.6902828.7685591 1.6902828 1.7166249 0 .9480657-.7567654 1.7166248-1.6902828 1.7166248s-1.6902828-.7685591-1.6902828-1.7166248c0-.9480658.7567654-1.7166249 1.6902828-1.7166249zm2.2628082-5.7036038c1.5508378 0 2.8080402 1.2767952 2.8080402 2.8518019s-1.2572024 2.8518019-2.8080402 2.8518019c-1.5508379 0-2.8080403-1.2767952-2.8080403-2.8518019s1.2572024-2.8518019 2.8080403-2.8518019zm4.498323.5537292c.9335174 0 1.6902828.7685591 1.6902828 1.7166248 0 .9480658-.7567654 1.7166249-1.6902828 1.7166249s-1.6902828-.7685591-1.6902828-1.7166249c0-.9480657.7567654-1.7166248 1.6902828-1.7166248zm-8.350286-2.7834287c.9335174 0 1.6902828.7685591 1.6902828 1.7166249 0 .9480657-.7567654 1.7166248-1.6902828 1.7166248s-1.6902828-.7685591-1.6902828-1.7166248c0-.9480658.7567654-1.7166249 1.6902828-1.7166249zm5.5668573-2.7834287c.9335175 0 1.6902828.7685592 1.6902828 1.7166249 0 .9480658-.7567653 1.7166249-1.6902828 1.7166249-.9335174 0-1.6902828-.7685591-1.6902828-1.7166249 0-.9480657.7567654-1.7166249 1.6902828-1.7166249z" fill="#f9ce44"/></g><g transform="translate(155.282755 155.47829)"><path d="m31.5462233 63.0924466c17.422498 0 31.5462233-14.1237253 31.5462233-31.5462233 0-17.4224981-14.1237253-31.5462233-31.5462233-31.5462233-17.4224981 0-31.5462233 14.1237252-31.5462233 31.5462233 0 17.422498 14.1237252 31.5462233 31.5462233 31.5462233z" fill="#ffb725"/><path d="m31.2871742 12.0039244c2.687089 17.5791026 13.201141 19.5339442 12.0491275 28.6086318-1.1520135 9.0746875-12.0491274 13.5937834-19.5842652 8.0641082-7.5351379-5.5296752-4.4253597-20.0441692 7.5351377-36.67274z" fill="#fff"/></g><g transform="translate(319.15924 155.254822)"><circle cx="31.546223" cy="31.546223" fill="#ff8200" r="31.546223"/><path d="m31.9033961 15.6868703c.061237-.5477587-.33417-.9918049-.8809007-.9918049h-1.6459516c-.547745 0-1.1023743.4284261-1.2240877.9798692 0 0-1.622731 5.3802633 1.2923297 8.295324 2.9150607 2.9150606 4.3588389 2.2600646 4.6746067 6.5062682.3157678 4.2462037-2.4735113 6.2267515-4.6746067 7.3342001s-9.219164-1.1600763-11.9031882.5240182c-2.6840242 1.6840944-3.2159206 9.1213635-3.2159206 9.1213635-.0537797.5420962.3534027.9928019.8933035 1.0062759l2.3844954.0595085c.5471377.0136547 1.0022969-.4147027 1.0293289-.9768513 0 0 .013979-5.3664039 1.9612124-5.7874265 1.9472334-.4210225 5.0448167 2.2592984 7.7907468 3.3118569 2.7459302 1.0525585 8.9975598 3.0524215 13.5235608-.3157658 4.5260009-3.3681874 7.4205362-8.0148857 6.8942569-15.68312s-5.6311871-9.2098861-8.3678393-9.2098861c-2.7366522.0000001-3.8973266 1.0781172-6.3153493 2.4208842-3.2416216.0000004-2.215997-6.5947141-2.215997-6.5947141z" fill="#fff"/></g><circle cx="104.890736" cy="268.962755" fill="#fb7019" r="31.546223"/><g fill="#fff" transform="translate(93.419382 251.755724)"><path d="m8.60351544 36.8568135c0 1.879961-1.23116746 3.2929252-2.86783848 3.2929252s-2.86783848-1.4129642-2.86783848-3.2929252c0-1.7302825 2.01774666-4.5322625 2.42325023-5.0711048.11236846-.1556655.27359277-.2394854.43970266-.2394854.17099548 0 .32733421.089807.44458825.2394854.40550357.5388423 2.42813582 3.3408223 2.42813582 5.0711048z"/><path d="m22.683093 22.1218622c-.6762061-2.7580997-2.5055852-3.7472114-3.8278097-5.4084117-1.7690035-2.2255012-2.2761581-7.92557402-2.3848341-10.6646524-.1449013-3.58869992-2.0286184-5.99807443-5.0051328-5.99807443-2.9765145 0-4.86023156 2.40937451-5.00513288 5.99807443-.10867598 2.73273793-.62186813 8.4391512-2.3848341 10.6646524-1.32222448 1.6612003-3.15160355 2.650312-3.82780968 5.4084117-.61583058 2.5108219-.06037554 4.4763642 1.83541663 6.5750562.17508909.1965543.44074149.2853207.69431879.2409375.2535773-.0507237.47092927-.2282565.56753014-.4755344.60979302-1.490008 1.34033714-1.490008 1.58183933-1.490008.17508909 0 .36829084.0317023.56753014.0951069.79695722.2472779 1.45505068.8749834 2.15540703 1.5407316.99619652.9447284 2.1191817 2.0162661 3.8036595 2.0162661 1.6844777 0 2.8074629-1.0715377 3.8036594-2.0162661.7003564-.6657482 1.3584498-1.2934537 2.155407-1.5407316.1992393-.0634046.3924411-.0951069.5675302-.0951069.2415022 0 .9780838 0 1.5818393 1.490008.1026384.2472779.3139529.4311512.5735677.4755344.2535773.0443832.5131922-.0443832.6943188-.2409375 1.9199424-2.098692 2.4693599-4.0642343 1.8535293-6.5750562z"/></g><g transform="translate(155.282755 237.416532)"><circle cx="31.546223" cy="31.546223" fill="#ef6439" r="31.546223"/><path d="m30.6650343 12.9052732c1.7333394 0 3.138415 1.4050756 3.138415 3.138415l-.0028473.1298609c3.1667873.6114412 3.5513665 5.5131178 3.5513665 9.9298741 0 4.1497653-1.7336478 9.7810332-6.6585946 11.7529922 1.2400973 6.3968012 4.1308774 10.7658456 7.2968327 11.8189603 2.9246593.9728506 6.010449-.9671174 7.802677-6.3831699-1.4332931-.843581-2.3947813-2.4022838-2.3947813-4.1856176 0-2.6812478 2.1734646-4.8549128 4.8547123-4.8549128 2.6812478 0 4.8547123 2.173665 4.8547123 4.8549128s-2.1734645 4.8547123-4.8547123 4.8547123c-.2026305 0-.4023608-.0124133-.5984722-.036521-2.2275241 6.9179331-5.8088761 10.35716-10.6597169 8.7435896-4.422198-1.4709878-7.9630544-6.8027465-9.4008059-14.2226338-4.415733-.2525026-10.158606-5.1029134-12.0750638-10.8618398-1.19574-3.5931788-1.7535841-8.1480366-.354609-9.908191.2188234-.2752806.4543496-.4871397.7061352-.6510752-.092075-.2937814-.14111-.60851-.14111-.9346944 0-1.7588813 1.4257804-3.1846617 3.1844154-3.1846617 1.7588813 0 3.1846617 1.4257804 3.1846617 3.1846617s-1.4257804 3.1846617-3.1846617 3.1846617c-.5515588 0-1.0703769-.1402442-1.5227382-.3870239-.1188652.102386-.2340726.2365366-.3442613.4145336-.6407038 1.034983-.4695544 4.2055113.3942792 6.8013169 1.8559613 5.5771351 5.5383926 9.3747369 10.842679 8.9224922s6.8977689-6.6082194 6.8977689-9.910308-.3626089-5.3526567-1.084268-6.5972481c-.2071634-.3572793-.4835494-.6049903-.794647-.7745486-.5587019.8660469-1.5311878 1.4382925-2.6373657 1.4382925-1.7330966 0-3.1381722-1.4050756-3.1381722-3.138415s1.4050756-3.138415 3.1381722-3.138415zm17.5877803 24.3407869c-1.0274431 0-1.8603581.832915-1.8603581 1.8604976 0 1.0274431.832915 1.8603581 1.8603581 1.8603581s1.8603581-.832915 1.8603581-1.8603581c0-1.0275826-.832915-1.8604976-1.8603581-1.8604976z" fill="#fff" fill-rule="nonzero"/></g><g transform="translate(318.712304 237.416532)"><path d="m31.5462233 63.0924466c17.422498 0 31.5462233-14.1237253 31.5462233-31.5462233 0-17.4224981-14.1237253-31.5462233-31.5462233-31.5462233-17.4224981 0-31.5462233 14.1237252-31.5462233 31.5462233 0 17.422498 14.1237252 31.5462233 31.5462233 31.5462233z" fill="#cb4c4c"/><path d="m32.4953152 39.85962v7.2513088c0 1.3332399-1.0711558 2.4962223-2.4132713 2.5738995 0 0-11.5326407 1.1259556-11.5326407-2.2539134s7.7043998-1.878817 7.7043998-2.5430119c0-1.7057742-.3379316-5.028283-.3379316-5.028283zm-8.3047913-8.2423065v6.5794437s-3.6581758-.3822423-5.3711198-.3822423c-.6669868 0 1.1036016 7.7015963-2.2904739 7.7015963s-2.2158731-11.4778119-2.2158731-11.4778119c.0801585-1.2860218 1.1609606-2.3306086 2.429253-2.4154248l.1664259-.005561zm8.474389-10.2931121c.5464801 0 1.050698.179305 1.4560086.4832026l.0076344-.0073555.0679155.0663744c.1279137.1040669.2449486.2209931.3491454.3488865l7.0702582 7.0714965c.1880323.1402016.3549515.3071609.4951427.4954096l.1040857.1043805-.0182696.0186418c.2478967.3799833.391973.8347966.391973 1.3252366v11.5730886c0 1.2844277-.9905192 2.3353897-2.2611778 2.4174116l-.16024.005153c-1.3373121 0-2.4214177-1.0772451-2.4214177-2.4225646l-.000753-8.4488316-4.7193735 4.7211232-8.0865475-8.0865476 4.821921-4.8225756-8.669394.0003056c-1.2844276 0-2.3353897-.9905193-2.4174116-2.2611778l-.005153-.16024c0-1.3373121 1.0772452-2.4214178 2.4225646-2.4214178zm10.3087604-6.40447c3.3299834 0 6.0294682 2.6994849 6.0294682 6.0294682 0 3.3299834-2.6994848 6.0294682-6.0294682 6.0294682-3.3299833 0-6.0294682-2.6994848-6.0294682-6.0294682 0-3.3299833 2.6994849-6.0294682 6.0294682-6.0294682z" fill="#fff" transform="matrix(-.70710678 -.70710678 -.70710678 .70710678 76.7797 31.803193)"/></g><circle cx="432.643705" cy="268.962755" fill="#c65378" r="31.546223"/><g fill="#fff" transform="translate(403.921805 249.717617)"><path d="m12.493401 5.2070911s-.7961371.50147321 0 2.88988436c.796137 2.38841114 4.0802029 16.02225874 4.4782713 18.51018734.3980684 2.4879285 3.2840652 2.686963 5.0753738 3.9806856s3.5826158-.0995172 5.572959.7961364 13.3500665 5.863346 15.3256385 3.9806847c1.9755719-1.8826613 1.7126902-10.0408414 1.016069-10.4389092-.6966212-.3980679-2.0947707-.8379089-2.7647558 1.1831019-.3250294-2.6258005-2.3150611-3.3545246-3.5491745-.7954213-.3369625-2.9036539-2.7983154-2.8102473-3.5847398-.7989688.0000003-2.0112785-2.3557289-3.2005521-3.3535681-1.0314098-.6256062-2.985963-3.0894698-2.275927-3.7133456-.6524802 0 0-3.271578-1.1912928-2.448851-5.7750585s2.000346-4.2899336 2.0003464-7.16947834c.0000003-2.8795447-1.5322821-2.53130864-2.3550093-2.94267214-.8227273-.41136349-.4701298.94025936-1.057792 1.52792149s-1.1165583 1.82175269-3.1146098 1.82175279-4.1136352-2.43611941-5.0538946-3.76103786c-.9402595-1.32491844-2.4729175-1.32491844-2.4729175-1.32491844z" mask="url(#a)"/><path d="m27.5960004 18.3439361c-.0000008 1.6677739 1.7043427 3.7963791 3.445646.4489281-.2207234 2.0733286 2.3453698 3.347451 3.5859396.6085817-.0000002 2.7388693 2.634752 3.0026174 3.6216418.610263-.000001 2.3923544 2.36474 3.1940493 3.4029521.8544841-.3574117 1.8682427.5518872 1.9024111.9548609 2.1262009.9551082.5304157 2.0223151-.8520796 2.0223151-.8520796s2.1044892-1.7153245 1.9222283-5.1930703c-.1822609-3.4777459-2.1510634-4.5639469-2.1674582-4.8767811-.0163949-.3128342-3.1146978-2.45161916-1.7770861-5.4186454 1.3376117-2.96702625 6.0379195-7.50869488 6.0379195-7.50869488s-34.6444375-14.85526892-34.6696563-15.33649422-4.64536501 22.60725809-3.9478699 21.29125919c.6974951-1.3159989 2.8641414-2.63191403 3.9478704-1.93523058 1.0837289.69668345 2.2493499 3.15153775 4.7156133 3.02228636 2.4662635-.12925139 3.6970158-2.52829756 6.7346013-1.17044382.1601774.07160208 2.5475085-.13350927 3.2511886 3.96292076.2278522 1.32642799-1.0807055 7.69874189-1.0807064 9.36651579z" mask="url(#a)"/></g><g transform="translate(73.344513 319.354774)"><circle cx="31.546223" cy="31.546223" fill="#c55790" r="31.546223"/><path d="m31.6120554 14.55531-.0343383.0174088c-.2328662.1278264-.4626299.2666917-.6880521.4171483-.6364945.4248242-1.2112182.9257534-1.7081507 1.5090877l.8392029.7149027c.4283364-.5028113.926322-.9368556 1.480958-1.3070438.6959951-.4645375 1.4448755-.8065417 2.1936996-1.0433073.4460839-.1410443.7878051-.2147956.9712395-.2405778l-.0485477-.34589c2.0076433-.0738198 4.6850522.340123 6.3241487 2.6516699l.118433.0190208c.0896982.1540376.1734574.3116533.2514281.4726521.6789592 1.4019565.8675517 2.8791929.7858494 4.0982006-.0052428.0782242-.0102117.1299179-.012961.1523112l1.0942123.1343391c.0051682-.0420958.0120755-.1139562.0187089-.2129271.0864832-1.2903401-.0886852-2.8078687-.7308317-4.2966493 2.2938136.7502186 4.1589259 2.3225977 5.0659254 4.4235133.2792997 1.3387867.1503133 2.6998386-.2418623 3.9759613-.1447923.4711481-.2875164.8127008-.3770724.9884696l.9822765.5004802c.1168581-.2293538.2837553-.6287551.4485842-1.1651016.2327064-.7572165.3835466-1.5424232.4276918-2.3404405 1.4492712.6671417 4.0317956 1.9549516 2.6594621 7.8676847-1.6951622 7.3036486-11.3717178 4.0309091-11.3717178 4.0309091s-2.890232 4.3493753-6.5632106 2.2993329l-.0813195-.0731383c-.3644934-.313938-.7851164-.62694-1.2577892-.9190679-1.1441904-.7071488-2.4073242-1.1808828-3.7660006-1.3099642l-.1042669 1.0974862c1.1753675.1116661 2.2813763.5264709 3.2906867 1.1502592l.1858352.1204487c-2.3590706.7446225-2.762328 3.610586-2.3640357 9.6059951.0196004.2950399.0644866-.7796792.0644869.9079759.0000002.9529625-2.4602589 1.0794113-4.7256944.9210833-.1451843-.6001044-.0409094-1.6961601.3890149-5.2170656.2338247-1.9149299.3609885-3.2389977.4161851-4.5964273.0168667-.4147972.0255159-.8169968.0255159-1.2082919 0-2.6041397-1.0000806-3.4756943-3.5965343-4.2325123l-.0274178-.007991c-1.6579099-.4831892-2.2270534-.8142656-2.5654156-1.7165649-.5648159-1.5061759-.4493913-3.0018866.0884047-4.3687848.1136088-.2887557.22593-.522402.3187343-.6918146l.1422225.0798965c.0688267-.108011.2038203-.3051284.3954757-.5612389.3208608-.4287687.6798573-.8575649 1.0665318-1.2559713 1.061146-1.0933418 2.1159042-1.7375793 3.0406636-1.7375793 1.0981636 0 2.0929505.0361741 2.965946.0963807.3670852.0253162.6554448.0504958.8586358.0712737l-.0041945.0207964c.1223894.0195823.3678229.0871488.6949973.227513.5596961.2401207 1.1222344.6025278 1.6496594 1.1125789.4770342.4613201.9020779 1.0229632 1.2612254 1.6963647.072721.1363517.1496337.2662919.2305679.3899049.2324969 1.2972431.0843297 2.6099793-.3113332 3.842553-.1565588.4877138-.3109733.8416715-.4079998 1.024157l.9733923.517547c.1260434-.2370599.3062337-.6501025.4842797-1.2047535.3050597-.9503252.4801982-1.9454716.4760575-2.956416.2820823.1848955.5876802.330094.911934.4379341.8893381.2957754 1.8187512.2886612 2.692127.1029829.1005737-.0213818.1902973-.0430123.2680621-.0636408 1.0117942.0937246 1.9874968.4077047 2.9004612.8784847.3880268.2000901.7358353.4142956 1.0373582.6276347.177375.1254997.2972248.2203858.3537043.2694815l.7232479-.8320216c-.0831525-.0722817-.2315964-.1898059-.4402061-.3374054-.3417851-.2418261-.7330348-.4827858-1.1688458-.7075165-.6437764-.3319702-1.3175509-.5957584-2.0156383-.7735721.0904718-.0780366.1824107-.163943.2744008-.2550433.859841-.8515243 1.3863391-1.8565526 1.3863391-3.0070695h-1.102428c0 .815431-.390747 1.561325-1.059648 2.2237561-.2422654.2399221-.5034391.4505887-.7641792.6289712-.1097586.0750902-.2003753.1319156-.2647996.1697419-.1912028-.0153652-.3862651-.020678-.5826472-.0187144l.0019563.1600733-.0104957.0025693c-.6277461.102748-1.2800118.0850264-1.8808606-.1148034-.565678-.1881328-1.0492034-.5280467-1.4375045-1.05406l-.0497436-.2343999-.0937344.0246462c-.0523857-.082622-.1027633-.1691915-.1510937-.2598111-.4135587-.7754224-.9083853-1.4292749-1.4675835-1.9700526-.3994235-.386266-.8004904-.6938186-1.1859532-.9342458l.1243408-.0585866c1.1248738-.5805799 1.8125501-1.6453688 1.8125498-3.2250522l-1.102428.0000002c.0000002 1.1555488-.4479333 1.8491232-1.2157425 2.2454116-.2768291.1428795-.578793.2363909-.8816244.2884909-.1796993.030916-.3145989.0408625-.3797114.0408625.014789-.002441-.0854096-.0136633-.229945-.0278799-.2380382-.0234136-.5158338-.0467577-.8311072-.0685007-.8776025-.0605243-1.8722421-.0973298-2.9668903-.0989381l-.1058281.1623285c.7261674-1.0791531 1.2353442-2.2775313 1.428226-3.5794609l-1.0905252-.161562c-.1668135 1.1259716-.6122529 2.1743402-1.2523344 3.1255615-.2011097.2988679-.4121613.5741056-.6259987.8240263-.7627308.3485935-1.517546.9360694-2.2602034 1.7012594-.2533053.2609907-.4990239.4662577-.7300949.6889691l-.1507139.1532277c.002339-.0128997-.001368-.0114091-.0092239.0061533l-.0037761.0068467-.046.048-.012036.0006693c-.028277-.0078971-.064388-.0440501-.1076898-.1360664-.3533849-.7509434-.8624095-.6908969-2.4207197-.6908968-1.4807741.0000001-2.8754251.4719247-4.1442944 1.2542561-.1410395.086959-.2773406.1758954-.4087569.266204.1192114-2.8308888 1.7238722-6.228168 5.1383373-6.9855746 1.5839434-2.5160572 1.2210282-3.0340689 6.9561582-3.4040773 1.6324825-2.919632 5.7421684-1.870411 6.9502097-1.4853784zm-14.4916539 11.4569982c1.1769217-.0000001 1.7106864.2268499 1.8457355.5138294l.00771.0230365-.0388169.062303c-.1382995.223856-.3163159.5679531-.4921255 1.0148023-.629867 1.6009122-.7662913 3.3687436-.0947582 5.1594988.5024258 1.3398022 1.3150661 1.8125232 3.2891877 2.3878705.0137.0039928.0137.0039928.0273821.0079806 2.1806002.6356045 2.8026054 1.1776723 2.8026054 3.1741288 0 .3759023-.0083291.7632196-.0246056 1.1635013-.0537115 1.3209063-.1784633 2.6198599-.4089676 4.5075971-.3916388 3.2073622-.5318104 4.4761124-.4435605 5.2455-1.2651035-.144185-2.2956911-.3560643-2.5267607-.5205531-.685224-.4877824.2899224-2.5428544-1.0842558-4.9858381-1.3741783-2.4429837-6.8708911-3.526727-8.0998152-8.1888333-1.0464236-3.9697635-.5944743-5.8201719.2384089-7.4243771l.035695.0335686c.0572856-.0599699.1782-.1750739.3570056-.3269305.3031915-.2574955.6532989-.5158314 1.0442194-.7568565 1.1077163-.6829713 2.3112589-1.0902283 3.5657164-1.0902283zm1.9768159.6169705c.0039304-.0086782.0079255-.0175135.0119861-.026492zm.5966296-.9071046-.0194289.0682357c-.0250626.0887632-.4212566.5047391-.444322.553753l.0067509-.0099887.0493796-.0951182c.0218231-.0395929.0446978-.0788023.0686561-.1168522l.0751584-.1098955c.0694676-.09283.1410857-.1783019.2145928-.2591255l.0162131-.0170086.0136059.0001702zm.026-.047c-.0033149.0141236-.0063615.021198-.0103501.0282004l-.0146499.0177996.0008567-.0004268.0111433-.0325732zm-.4897509.6689887.0067509-.0099887-.0129672.0240354-.0180328.0359646z" fill="#fff" transform="matrix(-1 0 0 1 63.092438 0)"/></g><circle cx="104.890736" cy="432.83924" fill="#908bfb" r="31.546223"/><g fill="#fff" transform="translate(73.344513 401.293017)"><path d="m18.2017327 44.7018472-1.5394401-.0394728c-.6724714-.0172429-1.1969584-.5712816-1.1721509-1.2374974 0 0 .2187499-1.0383428-.488047-2.0985389-.7067968-1.060196-2.8837873-2.4031099-3.1665064-3.0392273-.282719-.6361174 0-3.2512672.0000001-6.8700136-2.68279249-1.3429148-2.3465114-3.8733037-2.3465114-4.5801009l.00006677-.1089207c.00365846-.8123101.12925372-2.9708286 3.83872543-3.5128627 3.8039677-.5558419 4.8287194 2.6191014 4.8723854 3.9497744l.0014781.0878044v4.7976691h26.6889812v-4.7976691c0-1.2722348.983442-4.6060535 4.8738635-4.0375788s3.8387922 2.9149863 3.8387922 3.6217834c0 .7067972.336281 3.2371861-2.3465115 4.5801009.0000001 3.6187464.2827192 6.2338962.0000001 6.8700136s-2.4597095 1.9790313-3.1665064 3.0392273c-.7067968 1.0601961-.488047 2.0985389-.488047 2.0985389.0248076.6662158-.4996794 1.2202545-1.1721508 1.2374974l-1.5394401.0394728v-2.4547397h-26.6889812z"/><path d="m44.8323086 22.3249404c-1.3709155 1.1107962-1.8444464 2.8819746-1.8864359 3.8695422l-.0031201.1420775-.0009069 3.6986559h-22.862l.0000101-3.4681171c0-1.0035905-.4833392-3.0204024-2.0390216-4.2242451 6.8550265-4.8264872 18.2953857-4.9736312 26.7914744-.0179134z" fill-rule="nonzero"/></g><circle cx="186.828978" cy="432.83924" fill="#899dfa" r="31.546223"/><g fill="#fff" transform="translate(172.489786 415.132938)"><rect height="2.867838" rx="1.433919" width="23.519255" x="2.579565" y="2.749853"/><rect height="2.867838" rx="1.433919" width="23.519255" x="2.579565" y="18.417955"/><path d="m1.65915884 26.5742303c.04907163-.6680846.63982529-1.2096742 1.30695236-1.2096742h22.8187823c.6727383 0 1.2526261.5441108 1.2831187 1.2107184 0 0 .7130237 8.6248904-2.189748 9.0719582-2.9027717.4470677-4.2181134-6.9096439-10.5390718-6.9096439-6.32095838 0-7.64230899 7.3660219-10.60553185 6.9096439s-2.07450171-9.0730024-2.07450171-9.0730024z"/><path d="m-2.76122081 15.953674c0-.670377.53721332-1.2138249 1.21722552-1.2138249h31.76637539c.6722551 0 1.2172255.5444173 1.2172255 1.2138249v3.0416951c0 .670377-.5372133 1.2138249-1.2172255 1.2138249h-31.76637539c-.67225509 0-1.21722552-.5444172-1.21722552-1.2138249z" transform="matrix(0 -1 1 0 -3.13533 31.813714)"/><rect height="2.867838" rx="1.433919" width="28.678385" y="8.074893"/><rect height="2.867838" rx="1.433919" width="27.6645" x=".506943" y="13.358449"/></g><circle cx="268.990689" cy="432.83924" fill="#86adf9" r="31.546223"/><g fill="#fff" transform="translate(257.583193 410.401633)"><path d="m3.35480629 11.9977763c2.88765672-1.7190974 4.82237262-4.87184699 4.82237262-8.47647371 0-1.10743918-.29911306-2.19253157-.29911306-2.19253157-.12164714-.53757173.23125688-.97335972.78337097-.97335972h5.21073928c.554291 0 .8985294.44330674.783371.97335972 0 0-.2991131 1.08509239-.2991131 2.19253157 0 3.60134066 1.9311901 6.75162771 4.8144777 8.47176871 2.0691334.5577565 3.5918597 2.4474842 3.5918597 4.6928636 0 2.6840863-2.1758818 4.8599681-4.859968 4.8599681-1.2107657 0-2.3181207-.4427541-3.1689903-1.1751878-.9729338-.5812184-2.1106225-.9152019-3.3263172-.9152019-1.2156948 0-2.35338345.3339835-3.32631725.9152019-.85086964.7324337-1.95822459 1.1751878-3.1689903 1.1751878-2.68408623 0-4.85996804-2.1758818-4.85996804-4.8599681 0-2.1339967 1.3754027-3.9467509 3.28809255-4.6001471.00467469-.0293897.00950613-.0587271.01449343-.0880115z"/><path d="m19.4601854 33.2333133c-2.8876567 1.7190974-4.8223726 4.871847-4.8223726 8.4764738 0 1.1074391.2991131 2.1925315.2991131 2.1925315.1216471.5375718-.2312569.9733598-.783371.9733598h-5.21073929c-.55429098 0-.89852938-.4433068-.78337098-.9733598 0 0 .29911307-1.0850924.29911307-2.1925315 0-3.6013407-1.93119005-6.7516278-4.81447765-8.4717687-2.06913339-.5577566-3.59185974-2.4474842-3.59185974-4.6928637 0-2.6840862 2.17588181-4.859968 4.85996804-4.859968 1.21076571 0 2.31812066.4427541 3.1689903 1.1751877.9729338.5812184 2.11062245.915202 3.32631725.915202 1.2156947 0 2.3533834-.3339836 3.3263172-.915202.8508696-.7324336 1.9582246-1.1751877 3.1689903-1.1751877 2.6840862 0 4.859968 2.1758818 4.859968 4.859968 0 2.1339968-1.3754027 3.946751-3.2880925 4.6001471-.0046747.0293897-.0095062.0587272-.0144935.0880115z"/></g><circle cx="186.828978" cy="350.900997" fill="#cf66c8" r="31.546223"/><g fill="#fff" transform="translate(168.486924 332.655367)"><path d="m18.4785715.07674693c9.9487517 0 18.0138084 8.0650567 18.0138084 18.01380837 0 9.9487516-8.0650567 18.0138083-18.0138084 18.0138083-9.94875159 0-18.01380829-8.0650567-18.01380829-18.0138083 0-9.94875167 8.0650567-18.01380837 18.01380829-18.01380837zm0 2.60018333c-8.51270999 0-15.41362496 6.90091497-15.41362496 15.41362504 0 8.51271 6.90091497 15.413625 15.41362496 15.413625 8.5127101 0 15.413625-6.900915 15.413625-15.413625 0-8.51271007-6.9009149-15.41362504-15.413625-15.41362504z"/><path d="m25.2061878 22.3806619c2.6637466 0 4.8231399 2.1593932 4.8231399 4.8231398s-2.1593933 4.8231399-4.8231399 4.8231399-4.8231399-2.1593933-4.8231399-4.8231399 2.1593933-4.8231398 4.8231399-4.8231398zm0 1.9477208c-1.5880501 0-2.875419 1.2873689-2.875419 2.875419s1.2873689 2.8754191 2.875419 2.8754191 2.875419-1.287369 2.875419-2.8754191-1.2873689-2.875419-2.875419-2.875419z"/><path d="m13.6554317 17.557522c2.6637466 0 4.8231398 2.1593933 4.8231398 4.8231399s-2.1593932 4.8231398-4.8231398 4.8231398-4.82313988-2.1593932-4.82313988-4.8231398 2.15939328-4.8231399 4.82313988-4.8231399zm0 1.9261188c-1.5999806 0-2.8970211 1.2970405-2.8970211 2.8970211 0 1.5999805 1.2970405 2.897021 2.8970211 2.897021 1.5999805 0 2.8970211-1.2970405 2.8970211-2.897021 0-1.5999806-1.2970406-2.8970211-2.8970211-2.8970211z"/><path d="m28.0018309 11.1956712c2.6637466 0 4.8231398 2.1593933 4.8231398 4.8231399s-2.1593932 4.8231399-4.8231398 4.8231399-4.8231399-2.1593933-4.8231399-4.8231399 2.1593933-4.8231399 4.8231399-4.8231399zm0 2.0026524c-1.5577123 0-2.8204876 1.2627753-2.8204876 2.8204875s1.2627753 2.8204875 2.8204876 2.8204875c1.5577122 0 2.8204875-1.2627753 2.8204875-2.8204875s-1.2627753-2.8204875-2.8204875-2.8204875z"/><path d="m17.3188459 15.6144562c1.3132526-.2896046 3.4199665-.9449156 3.4199665-.9449156s1.4031734-2.5765912 1.4031734-3.8782242c0-1.09041956-2.1603042-3.69308493-2.1603042-3.69308493s-1.0895086-1.13005497-2.6628357-1.13005497c-1.4299021 0-2.5150456.89870925-3.3982783 1.88718589-.7621303.85294401-1.4248615 1.70210949-1.4248615 2.93595401 0 2.6637465 2.2549457 5.38949 4.8231398 4.8231398z"/></g><g transform="translate(401.097482 155.47829)"><circle cx="31.546223" cy="31.546223" fill="#fd7808" r="31.546223"/><path d="m15.2471578 11.6371161c-24.90078081 14.7913496-10.9816047 21.28159-10.59826105 21.3468285 0 0 1.84143197-1.8465169 3.96033568-3.4052321 13.44290737-9.8817474 14.18003447-17.3864921 14.18003377-15.9486867s.3256599 8.0167918-11.6350933 16.533922c-1.30368963.9283932-4.70044946 3.9429912-6.50527632 6.3215953-1.85111072 2.4396023-2.28798091 4.0724779-2.28798091 4.0724779-.1846882.506839.12237765.9177133.67197642.9177133h.60962049c.55581053 0 1.2501007-.3689721 1.56153732-.8304882 0 0 4.13592206-6.4092334 5.9501229-6.4092334 16.5947018.0000005 18.9924344-9.099222 19.706823-13.7958557 1.6886531-11.09270352-5.3471763-20.28000229-5.3471763-20.28000229s-6.6778826 9.34518537-10.2666617 11.47696139z" fill="#fff" transform="matrix(.9961947 .08715574 -.08715574 .9961947 17.228556 9.263603)"/></g><g transform="translate(237.444466 155.47829)"><circle cx="31.546223" cy="31.546223" fill="#ff9709" r="31.546223"/><path d="m44.375604 21.5932914s-.0000001.4153603.0510014 1.1730314c-1.4956464.4726444-3.5700953 2.4480649-4.3861172 4.0291076s-.8160221 6.1884164-2.8705304 10.0941804-4.1676576 5.3959952-4.6266699 6.3650212.3060082 5.012372 0 5.5223857c-.3060082.5100136-.8160218.4080109-1.1781074.4080109 0 0-.5100137.1020027-.8160218-.4080109-.3060082-.5100137.4590123-4.5533597 0-5.5223857s-2.5721616-2.4592572-4.6266699-6.3650212-2.0545086-8.5131377-2.8705304-10.0941804c-.8160219-1.5810427-2.8904708-3.5564632-4.3861172-4.0291076.0392319-.5828239.0482853-.9630971.0503746-1.1075698l.0006267-.0654616s3.3431993.9974171 5.3322526 2.4254553c1.9890533 1.4280383 6.143054 1.9606619 6.9590758 1.9606619h1.0761047c.8160218 0 4.9700225-.5326236 6.9590758-1.9606619 1.9890533-1.4280382 5.3322526-2.4254553 5.3322526-2.4254553zm-27.3361801-.6545734v1.3967348c-5.3413117-.0000001-7.49655473 2.8702374-7.49655473 5.1478602 0 2.2776229 2.96134123 2.6867923 3.54266923 2.8919666.581328.2051742.2051748.3761535.2051748.3761535s-.718111.8206978-.7181111 1.6072009.2393704 1.9818854.2393704 2.188529c-.0000001.2066435-.2051748.1040563-.5471323.1040566s-.5129367-.9916768-1.3336348-1.4704179c-.820698-.478741-2.42789945-1.3336348-3.04342305-3.0776188-.61552359-1.7439839-.00000031-5.9357293 3.04342285-7.7677301 3.0434232-1.8320009 4.7745838-1.6361052 6.1082187-1.3967348zm35.1218174 1.3967348c3.0434232 1.8320008 3.6589465 6.0237462 3.0434229 7.7677301-.6155236 1.743984-2.222725 2.5988778-3.043423 3.0776188-.8206981.4787411-.9916774 1.4704182-1.3336349 1.4704179s-.5471322.1025869-.5471322-.1040566c0-.2066436.2393705-1.4020259.2393703-2.188529-.0000001-.7865031-.718111-1.6072009-.718111-1.6072009s-.3761533-.1709793.2051747-.3761535c.581328-.2051743 3.5426693-.6143437 3.5426693-2.8919666 0-2.2311407-2.0681715-5.0309545-7.1735078-5.1443034l-.3230469-.0035568v-1.3967348c1.3336348-.2393704 3.0647955-.4352661 6.1082186 1.3967348zm-30.645111 5.0680012s.3761534.718111.3761534 1.0942645-.9574814.1709787-1.7097882 1.162656c-.7523067.9916773-.9916771 3.1445408-1.5730052 3.8284563-.5813281.6839154-1.641397 1.5730054-3.487968.9574814-1.846571-.6155241-1.1284606-2.5631038-.3419578-3.417998s2.3937037-.7538854 2.940836-.7538853c.5471322.0000001 1.4034956-.2763712 1.8822363-.7551119.4787406-.4787408.9916773-1.6755925 1.9134935-2.115863zm20.0601859 0c.9218163.4402705 1.4347529 1.6371222 1.9134936 2.115863.4787406.4787407 1.3351041.755112 1.8822363.7551119s2.1543332-.1010089 2.940836.7538853 1.5046131 2.8024739-.3419579 3.417998c-1.846571.615524-2.9066399-.273566-3.487968-.9574814-.5813281-.6839155-.8206984-2.836779-1.5730052-3.8284563-.7523067-.9916773-1.7097882-.7865025-1.7097882-1.162656s.3761534-1.0942645.3761534-1.0942645z" fill="#fff"/></g><g transform="translate(236.99753 237.416532)"><circle cx="31.546223" cy="31.546223" fill="#db5348" r="31.546223"/><path d="m26.1738808 16.548454c4.7700589-4.1423077 17.2558338.2373548 10.7019524.377015-5.3195134.1133564-6.5933643 5.3687809-6.2863767 5.3687809.3069876-.0000001-.38595.1582542 1.23278-1.6034882s4.2910663-2.557738 6.5674295-2.6959139c2.2763631-.1381758 4.4533146.8107724 4.6418434 1.6926545.3175467 1.4853908.0487361 3.4558811-1.9282559 3.4558811s-5.9616639 1.2781269-6.2135117 5.5946393c-.2518479 4.3165124 2.6744465 6.7375286 2.6744465 6.7375286s-1.1436766-1.5177016-1.529491-3.386764c-.1816931-.880205-.1184421-2.4210624.276369-3.7337329 1.1078744-3.6834685 3.1520372-2.8481989 3.1520364-2.8481989s1.898916 1.4240994 4.0691031 4.9843479 1.4338842 8.6590458 1.4338842 11.2698947 1.872487 7.7384944-5.77426 6.314395-14.8425896-2.0777594-19.4542389-8.2488568c-4.4902901-6.0087.7368646-13.5471618 1.0150876-13.9397618l.0114241-.0160019s.401135.7164862 1.5083056 2.4841818c1.1071707 1.7676955 3.4204341 4.7726538 3.5333064 5.3386579.1762321.883725.3681661.1855447.3681661-.1169602.0000002-1.8987984-3.9014725-6.5299001-3.9014725-8.6355981 0-2.1056979-.8685865-4.2503923 3.9014724-8.3927zm-2.7364965-1.1013072c.5205825.5856196-3.0380861 2.2197117-3.038086 7.547986-.9368737.9109637-1.606194 2.2123403-2.2723185 3.4486484s.4764258-10.4760832.9970081-11.2569098c.5205823-.7808265 3.7928139-.3253442 4.3133964.2602754z" fill="#fff"/></g><g transform="translate(237.220998 318.907838)"><circle cx="31.546223" cy="31.546223" fill="#bf7de8" r="31.546223"/><path d="m36.0361289 20.6534517c.1759154-.8757065.8083384-1.4941922 1.4174999-1.3756973.6091615.1112696.9595383.9132781.7850768 1.7918747-.1759153.8757065-.8097922 1.4927472-1.4174998 1.3771424-.6062538-.1170499-.9624461-.9161682-.7850769-1.7933198zm4.4908024 2.3561113c-.0159923-.7283104-.4361538-1.3034444-.9391845-1.294774-.5044846.0115605-.897023.6098154-.8810307 1.3352356.0174462.7268653.4405153 1.3034444.9406384 1.2904388.5059384-.0101154.897023-.6083703.8795768-1.3309004zm-6.0682253-1.6408064c.7632691-.0014451 1.3796999-.9132781 1.3796999-2.0331998 0-1.1228118-.6193385-2.0346448-1.3811538-2.0331997-.7603614-.0014451-1.3767921.9089428-1.378246 2.0317546-.0014538 1.1213668.6178846 2.0331998 1.3796999 2.0346449zm-5.542061 1.6589291c-1.5686999 0-4.5214611.384386-4.5214611 3.7499313 0 4.8756333 5.9520456 4.8366166 5.9520456 10.2050154 0 4.2903839-4.6421304 4.8438419-4.4778458 9.7136949.0886846 2.6184492 1.1165538 4.9247653 5.3864995 4.9247653 2.9105997 0 4.588338-2.7658453 4.588338-5.2643544 0-6.8004535 4.5200073-8.8365434 4.2975688-15.47226-.2238922-6.6357166-8.2927376-7.8567925-11.225145-7.8567925zm-3.031269-1.7355173c1.293923-.2037535 2.0949922-1.9219301 1.7969537-3.8337448-.3009461-1.9132598-1.5905075-3.3019627-2.8815228-3.0996542-1.2910152.2023084-2.0949921 1.9219301-1.7954998 3.8351898.3009461 1.9147048 1.5875998 3.3019627 2.8800689 3.0982092zm4.8703842-.502881c.9391845-.0910388 1.5905075-1.2557573 1.4567537-2.6083337-.1323-1.3540215-1.0002461-2.3756791-1.9394306-2.2846403s-1.5875998 1.2572024-1.4582075 2.6083338c.1352076 1.3511313 1.0031537 2.3727889 1.9408844 2.2846402z" fill="#fff"/></g><g transform="translate(400.650546 319.354774)"><circle cx="31.546223" cy="31.546223" fill="#a187f2" r="31.546223"/><path d="m31.5723718 13.5874672s1.2835006.5080789 1.2835006 1.1731024c0 .6650234-.1567035 8.7374239.6593152 9.3893687.8160186.6519448.8974044-.281192.8974044-.281192s1.8437843-7.4969378 3.5031902-8.0064385c1.6594059-.5095006 8.6657867 2.4019314 10.8783276 10.2627984s3.4110009 17.4580735 1.1062706 18.9137891c-2.3047304 1.4557156-4.7938393-2.1031117-7.8360838-2.539826-3.0422444-.4367142-4.8781061-.0076767-6.2649051-1.8273222-1.3867991-1.8196456-2.8600812-10.9649265-1.9381889-12.2750708s-1.4591273-.9745044-2.2888308-1.9207198l-.0266994-.0374893-.0255977.0374893c-.4584699.522851-3.0337232.4448042-2.3560912 1.6305324l.0759122.1187556c.9218923 1.3101444-.5600416 10.626857-1.9468406 12.4465026-1.3867991 1.8196455-3.2226607 1.390608-6.2649052 1.8273222-3.0422444.4367143-5.5313533 3.9955416-7.8360837 2.539826s-1.1062703-11.0529221 1.1062706-18.9137891 9.2189217-10.772299 10.8783276-10.2627984c1.6594059.5095007 3.5031902 8.0064385 3.5031902 8.0064385s.0813858.9331368.8974044.281192.6593152-8.7243453.6593152-9.3893687c0-.6650235 1.2835005-1.1731024 1.2835005-1.1731024s.0097319.1400754.0260338.3910873c.0165314-.2510119.0262633-.3910873.0262633-.3910873z" fill="#fff"/></g><g transform="translate(319.829644 401.302328)"><circle cx="31.546223" cy="31.546223" fill="#6d8cc7" r="31.546223"/><path d="m26.9328632 26.5623264s3.1537874 1.7476012 3.1537876 4.2554568c.0000001.4599843-.0129647 2.2116759 0 3.6416978.0577197 6.3665228.0047651 18.3263895.0047651 18.3263895-.0026317.6671348-.5451378 1.2079544-1.216739 1.2079544h-.5986096c-.6693547-.0000001-1.201984-.546706-1.1904532-1.2048554l.0006845-.0362489c.0173365-.9228749.3549591-19.1771607-.0222052-21.3501254-.3869607-2.2294054-2.6874663-2.3933377-2.6874663-2.3933377s1.6476046-.6049096 2.5562361-2.4469311zm9.2267201 0c.9086316 1.8420215 2.5562362 2.4469311 2.5562362 2.4469311s-2.3005057.1639323-2.6874664 2.3933377-.0215206 21.3863743-.0215206 21.3863743c.0115308.6581494-.5210985 1.2048553-1.1904532 1.2048554h-.5986097c-.6716012 0-1.2141073-.5408196-1.2167389-1.2079544 0 0-.0529547-11.9598667.004765-18.3263895.0115242-1.2711306.0025609-2.7964199.0004268-3.4427418l-.0004268-.198956c.0000003-2.5078556 3.1537876-4.2554568 3.1537876-4.2554568zm-13.4740731-10.8061137c3.2902167.720966 4.9832897 3.6861044 4.4676843 7.480022-.8205956 6.03809-5.3349042 5.4645692-4.9342556 5.5667163 2.5558123.6516148 5.7402481 7.2057875.9146217 10.4709038-4.8256265 3.2651163-15.31955668-1.4352432-12.6754168-14.0521476 1.8518306-8.8362836 8.9371496-10.1864605 12.2273664-9.4654945zm29.9487925 9.4654945c2.6441399 12.6169044-7.8497903 17.3172639-12.6754167 14.0521476-4.8256265-3.2651163-1.6411906-9.819289.9146216-10.4709038.4006486-.1021471-4.1136599.4713737-4.9342555-5.5667163-.5156055-3.7939176 1.1774675-6.759056 4.4676843-7.480022 3.2902167-.720966 10.3755357.6292109 12.2273663 9.4654945z" fill="#fff"/></g><g transform="translate(401.097482 401.302328)"><circle cx="31.546223" cy="31.546223" fill="#556c97" r="31.546223"/><path d="m27.712626 40.2938586c-1.5622609 2.8729804 1.1282998 9.3365078-2.4301837 9.6827818-3.5584835.3462739-4.5999908-3.19017-5.8150828-6.9126012s.7774012-10.8338691.7774012-14.3831624-3.0377301-3.3761574-3.0377298-7.2717241c.0000003-3.8955668 4.9508893-11.0678726 14.0640789-4.2354142l.2751128.633381.2751142-.633381c9.1131896-6.8324584 14.0640786.3398474 14.0640789 4.2354142.0000003 3.8955667-3.0377298 3.7224308-3.0377298 7.2717241s1.9924932 10.6607312.7774012 14.3831624-2.2565993 7.2588751-5.8150828 6.9126012c-3.5584835-.346274-.8679228-6.8098014-2.4301837-9.6827818-1.4215993-2.6143052-2.6994647-2.8496897-3.8335973-2.8708836-1.1341326.0211939-2.411998.2565784-3.8335973 2.8708836z" fill="#fff"/></g><g transform="translate(318.712304 319.354774)"><path d="m31.5462233 63.0924466c17.422498 0 31.5462233-14.1237253 31.5462233-31.5462233 0-17.4224981-14.1237253-31.5462233-31.5462233-31.5462233-17.4224981 0-31.5462233 14.1237252-31.5462233 31.5462233 0 17.422498 14.1237252 31.5462233 31.5462233 31.5462233z" fill="#b582ec"/><g fill="#fff" transform="translate(13.477676 6.493217)"><path d="m3.17758256 39.6632565c0-.666338.5452845-1.2065116 1.21090231-1.2065116h27.52158173c.6687629 0 1.2109023.5437259 1.2109023 1.2065116v3.4787795c0 .6663379-.5452845 1.2065116-1.2109023 1.2065116h-27.52158173c-.66876288 0-1.21090231-.543726-1.21090231-1.2065116z"/><path d="m3.08159219 8.20903122c0-.66539215.53496014-1.20479907 1.20796997-1.20479907h18.38008174c.6671434 0 1.20797.54274269 1.20797 1.20479907v4.50711268c0 .6653921-.5349602 1.204799-1.20797 1.204799h-18.38008174c-.66714339 0-1.20796997-.5427427-1.20796997-1.204799z" transform="matrix(.46947157 -.88294759 .88294759 .46947157 .902728 20.740113)"/><path d="m2.11029778 17.9334144c0-.6653922.53681361-1.2047991 1.20160864-1.2047991h1.03238981c.66363013 0 1.20160864.5427427 1.20160864 1.2047991v4.5071126c0 .6653922-.53681361 1.2047991-1.20160864 1.2047991h-1.03238981c-.66363013 0-1.20160864-.5427427-1.20160864-1.2047991z" transform="matrix(.46947157 -.88294759 .88294759 .46947157 -9.53893 19.774321)"/><path d="m30.8016169 27.9323578c0 8.8174027-6.9440711 16.0129306-15.6617966 16.4161671l.0002954-5.7562354c5.5419068-.3958359 9.9149346-5.0171961 9.9149346-10.6599317s-4.3730278-10.2640957-9.9149346-10.6599317l-.0002954-5.7562354c8.7177255.4032365 15.6617966 7.5987645 15.6617966 16.4161671z"/></g></g></g></svg>