<svg height="394" viewBox="0 0 1011 394" width="1011" xmlns="http://www.w3.org/2000/svg" xmlns:xlink="http://www.w3.org/1999/xlink"><defs><linearGradient id="a" x1="50%" x2="50%" y1="100%" y2="-4.854489%"><stop offset="0" stop-color="#087fb9"/><stop offset="1" stop-color="#23a3e1"/></linearGradient><path id="b" d="m86.1609108 43.637401c0 23.7610693-19.2624237 43.023493-43.0234929 43.023493-23.7604147 0-43.02283842-19.2624237-43.02283842-43.023493 0-23.7610692 19.26242372-43.02283836 43.02283842-43.02283836 23.7610692 0 43.0234929 19.26176916 43.0234929 43.02283836z"/><path id="c" d="m18.1148222 8.77995131s-1.5703175-4.73008766.4604783-7.46518076c2.0301786-2.7350931-17.99692491 0-17.99692491 0s1.45921013 2.42646151-.02222147 7.50530286c-1.90981225.12777348 9.93798128 37.52206329 17.55866808-.0401221z"/><linearGradient id="d" x1="50%" x2="50%" y1="77.756%" y2="-24.975199%"><stop offset="0" stop-color="#b9f5df"/><stop offset="1" stop-color="#a9f7da"/></linearGradient><path id="e" d="m86.1609108 43.637401c0 23.7610693-19.2624237 43.023493-43.0234929 43.023493-23.7604147 0-43.02283842-19.2624237-43.02283842-43.023493 0-23.7610692 19.26242372-43.02283836 43.02283842-43.02283836 23.7610692 0 43.0234929 19.26176916 43.0234929 43.02283836z"/><path id="f" d="m18.1148222 8.77995131s-1.5703175-4.73008766.4604783-7.46518076c2.0301786-2.7350931-17.99692491 0-17.99692491 0s1.45921013 2.42646151-.02222147 7.50530286c-1.90981225.12777348 9.93798128 37.52206329 17.55866808-.0401221z"/><linearGradient id="g" x1="38.20193%" x2="38.20193%" y1="0%" y2="100%"><stop offset="0" stop-color="#bdf8e2"/><stop offset="1" stop-color="#b4eed9"/></linearGradient><linearGradient id="h" x1="41.185597%" x2="41.185597%" y1="0%" y2="100%"><stop offset="0" stop-color="#d9f2ff"/><stop offset="1" stop-color="#c1eaff"/></linearGradient><linearGradient id="i" x1="50%" x2="50%" y1="0%" y2="100%"><stop offset="0" stop-color="#ffe4e4"/><stop offset="1" stop-color="#ffe3e2"/></linearGradient><linearGradient id="j" x1="50%" x2="50%" y1="-7.18952%" y2="104.980072%"><stop offset="0" stop-color="#ffe9e1"/><stop offset="1" stop-color="#ffe3da"/></linearGradient><linearGradient id="k" x1="-37.42348%" x2="121.708074%" y1="12.995961%" y2="86.891185%"><stop offset="0" stop-color="#f7cecd"/><stop offset="1" stop-color="#ff8079"/></linearGradient><mask id="l" fill="#fff"><use fill="#fff" fill-rule="evenodd" xlink:href="#b"/></mask><mask id="m" fill="#fff"><use fill="#fff" fill-rule="evenodd" xlink:href="#c"/></mask><mask id="n" fill="#fff"><use fill="#fff" fill-rule="evenodd" xlink:href="#e"/></mask><mask id="o" fill="#fff"><use fill="#fff" fill-rule="evenodd" xlink:href="#f"/></mask><mask id="p" fill="#fff"><path d="m4.52603802 10.8237254 28.13849248 5.9715162-3.9291531 7.0329742-28.13849241-5.9715162z" fill="#fff" fill-rule="evenodd"/></mask><mask id="q" fill="#fff"><path d="m3.45107646.15139241h13.20432464v30.18131339h-13.20432464z" fill="#fff" fill-rule="evenodd"/></mask><mask id="r" fill="#fff"><path d="m-.57154921 11.5001582h32.58264961v13.2133416h-32.58264961z" fill="#fff" fill-rule="evenodd"/></mask><mask id="s" fill="#fff"><path d="m4.35830102.15382376h13.41638518v30.66602314h-13.41638518z" fill="#fff" fill-rule="evenodd"/></mask><mask id="t" fill="#fff"><path d="m.74952452 9.91268101h50.39552208v41.79425119h-50.39552208z" fill="#fff" fill-rule="evenodd"/></mask></defs><g fill="none" fill-rule="evenodd"><path d="m0 0h1011v394h-1011z" fill="#006ca2"/><circle cx="116.317952" cy="115.7376" fill="url(#a)" r="115.7376" transform="translate(108.644197 81.379585)"/><g stroke="#8cd3f6" stroke-width="4.224" transform="translate(227.884215 130.155086)"><path d="m.08661224.36525836c3.83415745 0 3.83415745 1.45091535 7.6685551 1.45091535 3.83415746 0 3.83415746-1.45091535 7.66807476-1.45091535 3.8343976 0 3.8343976 1.45091535 7.668555 1.45091535 3.8341575 0 3.8341575-1.45091535 7.668315-1.45091535 3.8346378 0 3.8346378 1.45091535 7.6690354 1.45091535 3.8343977 0 3.8343977-1.45091535 7.6690355-1.45091535 3.8339173 0 3.8339173 1.45091535 7.6678345 1.45091535 3.8341575 0 3.8341575-1.45091535 7.6680748-1.45091535 3.8346378 0 3.8346378 1.45091535 7.6690354 1.45091535 3.8346379 0 3.8346379-1.45091535 7.6692757-1.45091535s3.8346378 1.45091535 7.6692757 1.45091535c3.834878 0 3.834878-1.45091535 7.6692756-1.45091535 3.8353584 0 3.8353584 1.45091535 7.6704767 1.45091535"/><path d="m.08661224 15.7061093c3.83415745 0 3.83415745 1.4509153 7.6685551 1.4509153 3.83415746 0 3.83415746-1.4509153 7.66807476-1.4509153 3.8343976 0 3.8343976 1.4509153 7.668555 1.4509153 3.8341575 0 3.8341575-1.4509153 7.668315-1.4509153 3.8346378 0 3.8346378 1.4509153 7.6690354 1.4509153 3.8343977 0 3.8343977-1.4509153 7.6690355-1.4509153 3.8339173 0 3.8339173 1.4509153 7.6678345 1.4509153 3.8341575 0 3.8341575-1.4509153 7.6680748-1.4509153 3.8346378 0 3.8346378 1.4509153 7.6690354 1.4509153"/><path d="m.08661224 31.0469602c3.83415745 0 3.83415745 1.4509154 7.6685551 1.4509154 3.83415746 0 3.83415746-1.4509154 7.66807476-1.4509154 3.8343976 0 3.8343976 1.4509154 7.668555 1.4509154 3.8341575 0 3.8341575-1.4509154 7.668315-1.4509154 3.8346378 0 3.8346378 1.4509154 7.6690354 1.4509154 3.8343977 0 3.8343977-1.4509154 7.6690355-1.4509154 3.8339173 0 3.8339173 1.4509154 7.6678345 1.4509154"/></g><g stroke="#60e9b7" stroke-width="4.224" transform="translate(227.884215 238.004843)"><path d="m.08661224.36525836c3.83415745 0 3.83415745 1.45091535 7.6685551 1.45091535 3.83415746 0 3.83415746-1.45091535 7.66807476-1.45091535 3.8343976 0 3.8343976 1.45091535 7.668555 1.45091535 3.8341575 0 3.8341575-1.45091535 7.668315-1.45091535 3.8346378 0 3.8346378 1.45091535 7.6690354 1.45091535 3.8343977 0 3.8343977-1.45091535 7.6690355-1.45091535 3.8339173 0 3.8339173 1.45091535 7.6678345 1.45091535 3.8341575 0 3.8341575-1.45091535 7.6680748-1.45091535 3.8346378 0 3.8346378 1.45091535 7.6690354 1.45091535 3.8346379 0 3.8346379-1.45091535 7.6692757-1.45091535s3.8346378 1.45091535 7.6692757 1.45091535"/><path d="m.08661224 31.0469602c3.83415745 0 3.83415745 1.4509154 7.6685551 1.4509154 3.83415746 0 3.83415746-1.4509154 7.66807476-1.4509154 3.8343976 0 3.8343976 1.4509154 7.668555 1.4509154 3.8341575 0 3.8341575-1.4509154 7.668315-1.4509154 3.8346378 0 3.8346378 1.4509154 7.6690354 1.4509154 3.8343977 0 3.8343977-1.4509154 7.6690355-1.4509154 3.8339173 0 3.8339173 1.4509154 7.6678345 1.4509154 3.8341575 0 3.8341575-1.4509154 7.6680748-1.4509154 3.8346378 0 3.8346378 1.4509154 7.6690354 1.4509154"/><path d="m.08661224 15.7061093c3.83415745 0 3.83415745 1.4509153 7.6685551 1.4509153 3.83415746 0 3.83415746-1.4509153 7.66807476-1.4509153 3.8343976 0 3.8343976 1.4509153 7.668555 1.4509153 3.8341575 0 3.8341575-1.4509153 7.668315-1.4509153 3.8346378 0 3.8346378 1.4509153 7.6690354 1.4509153 3.8343977 0 3.8343977-1.4509153 7.6690355-1.4509153 3.8339173 0 3.8339173 1.4509153 7.6678345 1.4509153"/></g><g transform="translate(116.085969 100.233284)"><use fill="#caeeff" xlink:href="#b"/><path d="m52.0642965 58.1610048s-1.5703175-4.7300877.4604783-7.4651808c2.0301785-2.7350931-17.996925 0-17.996925 0s1.4592102 2.4264615-.0222214 7.5053029c-1.9098123.1277735-7.4941922.987621-11.5347969 2.2344926-6.0189331 1.8573449-18.25679268 8.471937-17.63829499 15.7667532.15555032 1.8394442.0419739 3.7011099.05185011 5.5522822 2.31226783 12.6292044 31.98349108 19.8141481 38.41907688 19.8246411 18.7110984.030246 29.8033175-9.8749761 37.021593-19.6777325.0857996-1.0265087.1425878-2.0573381.2604851-3.0813777.8475023-7.3664187-8.4077416-12.9341325-14.6871598-16.437101-6.4831151-3.6171621-7.2985197-3.3702569-14.3340853-4.22208z" fill="#4cb3e7" mask="url(#l)"/><g fill="#29a4e2"><circle cx="51.850106" cy="83.947791" mask="url(#l)" r="2.237579"/><circle cx="59.695521" cy="83.947791" mask="url(#l)" r="2.237579"/><path d="m51.3663471 58.5853424s10.676123-1.5178034 5.7406093 12.3289306c-3.577542-.3913783-5.7406093 12.3695363-5.7406093 13.1033698-.0000001.7338336 1.3734926-.30096 1.3734926-.30096s2.1911848-11.0180782 4.3671167-11.0180782 1.985934 11.3190373 1.985934 11.3190373 1.3967903.9692675 1.3967903-.3009601c0-4.6576616.1414004-9.9580073-1.7849438-12.2431284 1.9263445-7.2294545 1.283241-13.1671766-6.9741406-13.6135216-6.6144119-.3575358-.3642492.7253106-.3642492.7253106z" mask="url(#l)"/><path d="m27.6033864 58.6701002s9.8896981-.9910769 4.9541844 12.855657c-3.5775419-.3913782 4.6010773 2.3103967 1.7941313 0 1.9263445-7.2294544 1.3383817-11.2973834-4.7831979-13.1338573-6.5607139-1.9682142-1.9651178.2782003-1.9651178.2782003z" mask="url(#l)" transform="matrix(-1 0 0 1 61.368404 0)"/></g><circle cx="28.807349" cy="75.511442" fill="#4cb3e7" mask="url(#l)" r="3.703579" stroke="#29a4e2" stroke-width="1.6896"/><g mask="url(#l)"><g fill-rule="evenodd" transform="translate(33.949474 49.381053)"><use fill="#f1faff" xlink:href="#c"/><path d="m18.5178951 1.23452634c.2468192 1.92113254-4.8017084 6.45598653-8.92564361 6.41833347-4.12393522-.03703579-9.49252211-5.09831723-9.15688085-6.57288473z" fill="#89d3f8" mask="url(#m)"/></g></g><path d="m32.1001538 18.4277746c6.2467033-6.7028607 17.5524955-6.3405272 23.5985882.5030695 2.8696645 3.2485974 3.726802 7.4038943 3.756621 11.1961567.2309084-.0407183.4564699-.0302482.671625.0355639 1.4690863.4499849 1.8962324 3.3097651.9542888 6.3874393-.7519833 2.4574973-2.14954 4.3111219-3.4301188 4.7298564-1.8951586 5.9069063-6.2109642 12.9663607-12.8076061 14.1133363-1.0400884.1808581-1.5783419.1814754-3.1554493-.1339461-7.111644-1.423906-10.8726243-9.9123835-12.260854-13.8718854-1.3181167-.3465482-2.7112423-2.3624645-3.3404726-5.0071086-.7456539-3.1319933-.1382669-5.9584413 1.3567445-6.3146022.0928903-.0221003.1870233-.0341313.2820643-.0365074.1655643-3.9109886 1.2314406-8.2280091 4.374569-11.6013724z" fill="#f1faff" mask="url(#l)"/><path d="m59.540588 33.6538052c-.3752961-.0049381.0438256-9.5348642-3.9819647-12.8983312-4.0264077-3.3640842-9.3416608-.1012311-12.0483598-.1012311-3.1832262 0-6.961494-2.1740009-10.6817392-.64504-4.2165247 1.7326577-4.6016969 13.7569442-4.8769962 13.7674377-.4203563-1.9777112-2.4672009-20.5153587 5.7893112-24.2609116 9.0682132-4.11467628 15.3686184-2.22646825 21.747416.912315 6.3781803 3.1381659 4.5942897 21.0141073 4.0523327 23.2257612" fill="#4cb3e7" mask="url(#l)"/><path d="m43.5787797 74.2981158-9.0731513-16.0969889 9.0311774 23.6529073 8.4182351-23.4627903z" fill="#89d3f8" mask="url(#l)"/><g fill="#f1faff"><path d="m51.9550409 58.3912439 5.5029011 2.6178131-7.6194965 6.8423623 4.2436843 1.3771141-10.545324 12.6255008z" mask="url(#l)"/><path d="m34.5056284 58.2011269 9.0311774 23.6529073-10.8008709-12.2150208 4.0097415-2.1258544-7.9528186-6.9448279z" mask="url(#l)"/></g></g><g transform="translate(116.085969 208.784174)"><use fill="url(#d)" xlink:href="#e"/><path d="m52.0642965 58.1610048s-1.5703175-4.7300877.4604783-7.4651808c2.0301785-2.7350931-17.996925 0-17.996925 0s1.4592102 2.4264615-.0222214 7.5053029c-1.9098123.1277735-7.4941922.987621-11.5347969 2.2344926-6.0189331 1.8573449-18.25679268 8.471937-17.63829499 15.7667532.15555032 1.8394442.0419739 3.7011099.05185011 5.5522822 2.31226783 12.6292044 31.98349108 19.8141481 38.41907688 19.8246411 18.7110984.030246 29.8033175-9.8749761 37.021593-19.6777325.0857996-1.0265087.1425878-2.0573381.2604851-3.0813777.8475023-7.3664187-8.4077416-12.9341325-14.6871598-16.437101-6.4831151-3.6171621-7.2985197-3.3702569-14.3340853-4.22208z" fill="#53dbaa" mask="url(#n)"/><g fill="#03cc88"><circle cx="51.850106" cy="83.947791" mask="url(#n)" r="2.237579"/><circle cx="59.695521" cy="83.947791" mask="url(#n)" r="2.237579"/><path d="m51.3663471 58.5853424s10.676123-1.5178034 5.7406093 12.3289306c-3.577542-.3913783-5.7406093 12.3695363-5.7406093 13.1033698-.0000001.7338336 1.3734926-.30096 1.3734926-.30096s2.1911848-11.0180782 4.3671167-11.0180782 1.985934 11.3190373 1.985934 11.3190373 1.3967903.9692675 1.3967903-.3009601c0-4.6576616.1414004-9.9580073-1.7849438-12.2431284 1.9263445-7.2294545 1.283241-13.1671766-6.9741406-13.6135216-6.6144119-.3575358-.3642492.7253106-.3642492.7253106z" mask="url(#n)"/><path d="m27.6033864 58.6701002s9.8896981-.9910769 4.9541844 12.855657c-3.5775419-.3913782 4.6010773 2.3103967 1.7941313 0 1.9263445-7.2294544 1.3383817-11.2973834-4.7831979-13.1338573-6.5607139-1.9682142-1.9651178.2782003-1.9651178.2782003z" mask="url(#n)" transform="matrix(-1 0 0 1 61.368404 0)"/></g><circle cx="28.807349" cy="75.511442" fill="#53dbaa" mask="url(#n)" r="3.703579" stroke="#03cc88" stroke-width="1.6896"/><g mask="url(#n)"><g fill-rule="evenodd" transform="translate(33.949474 49.381053)"><use fill="#e9fff7" xlink:href="#f"/><path d="m18.5178951 1.23452634c.2468192 1.92113254-4.8017084 6.45598653-8.92564361 6.41833347-4.12393522-.03703579-9.49252211-5.09831723-9.15688085-6.57288473z" fill="#5be9b5" mask="url(#o)"/></g></g><path d="m49.4261435 22.8798742c-4.0264076-3.3640842-3.209181-2.2256313-5.91588-2.2256313-3.1832262 0-6.049179.0205696-9.7694241 1.5495305-3.3843358 1.390694 1.3825447 29.748685 1.3825447 29.748685s.0543341 2.7342595 0 2.7363305c-1.06614-.6587715 1.692604-.0804799-6.212393-1.9315259-12.3939785-16.4984796-2.9611949-40.1520727 5.4009878-44.39530466 8.7547331-4.44242426 12.4465255-.82234165 21.0858596.37756612 5.7945862.8048038 12.4005796 28.72646854 2.5819734 44.50062074-.5987169-.6386337-5.6231088.7075342-6.2774683.8048045-.375296-.0049381 1.7495903-27.8016085-2.2762001-31.1650755z" fill="#53dbaa" mask="url(#n)"/><path d="m32.1001538 18.4277746c6.2467033-6.7028607 17.5524955-6.3405272 23.5985882.5030695 2.8696645 3.2485974 3.726802 7.4038943 3.756621 11.1961567.2309084-.0407183.4564699-.0302482.671625.0355639 1.4690863.4499849 1.8962324 3.3097651.9542888 6.3874393-.7519833 2.4574973-2.14954 4.3111219-3.4301188 4.7298564-1.8951586 5.9069063-6.2109642 12.9663607-12.8076061 14.1133363-1.0400884.1808581-1.5783419.1814754-3.1554493-.1339461-7.111644-1.423906-10.8726243-9.9123835-12.260854-13.8718854-1.3181167-.3465482-2.7112423-2.3624645-3.3404726-5.0071086-.7456539-3.1319933-.1382669-5.9584413 1.3567445-6.3146022.0928903-.0221003.1870233-.0341313.2820643-.0365074.1655643-3.9109886 1.2314406-8.2280091 4.374569-11.6013724z" fill="#e9fff7" mask="url(#n)"/><path d="m49.4261435 22.8798742c-4.0264076-3.3640842-6.4035519-4.0680395-11.9990144-.3154218-3.5380039 2.3727755-9.1931816 7.5502079-9.468481 7.5607013-1.06614-.6587714-2.0026407 1.834595-1.7948601 1.1406398-2.3548469-3.2192461-.2139918-18.6606032 8.1481909-22.90383516 8.7547331-4.44242426 14.1764923-2.25345052 21.8161554.96576454 4.7483865 2.00088372 5.9089332 16.72862042 4.9676774 21.55832482-.598717-.6386336-.8182477-.8581643-1.4726072-.760894-.3752961-.0049381-6.1712706-3.8818125-10.197061-7.2452795z" fill="#53dbaa" mask="url(#n)"/><path d="m34.5056284 58.2011269 9.0311774 23.6529073 8.4182351-23.4627903-8.3762612 15.9068719z" fill="#5be9b5" mask="url(#n)"/><g fill="#e9fff7"><path d="m51.9550409 58.3912439 5.5029011 2.6178131-7.6194965 6.8423623 4.2436843 1.3771141-10.545324 12.6255008z" mask="url(#n)"/><path d="m34.5056284 58.2011269 9.0311774 23.6529073-10.8008709-12.2150208 4.0097415-2.1258544-7.9528186-6.9448279z" mask="url(#n)"/></g></g><g transform="translate(378.3236 70.85)"><circle cx="127.276332" cy="126.267185" fill="url(#a)" r="115.7376"/><g transform="translate(35.657105 20.253301)"><g transform="translate(10.30185 .815863)"><path d="m2.79188379 95.3603758c-1.39846093 0-2.53213752-1.1349152-2.53213752-2.5328767v-90.08847237c0-1.3988692 1.1286907-2.53287674 2.53820613-2.53287674h44.0561837l22.8204123 23.13372521v69.4784074c0 1.4039593-1.1326404 2.5420932-2.5321375 2.5420932z" fill="url(#g)"/><path d="m46.8843561.19208431v.76652841 21.50533138c0 .4233419.3530225.7665284.7741985.7665284l22.1250449-.0000004" fill="#69e2b6"/></g><g transform="matrix(.82903757 -.5591929 .5591929 .82903757 6.087029 44.774252)"><g transform="translate(.052415 6.602162)"><circle cx="16.568838" cy="10.214874" fill="#24cf93" r="9.903243"/><circle cx="16.568838" cy="10.214874" fill="#55e4b0" mask="url(#p)" r="9.903243"/></g><circle cx="16.621253" cy="16.817036" fill="#00b574" mask="url(#q)" r="9.903243"/></g><g transform="matrix(.22495105 .97437006 -.97437006 .22495105 41.883593 53.693891)"><g transform="translate(0 6.708193)"><circle cx="17.739989" cy="10.378924" fill="#24cf93" r="10.062289"/><circle cx="17.739989" cy="10.378924" fill="#55e4b0" mask="url(#r)" r="10.062289"/></g><path d="m17.7399893 27.1494053c5.5572487 0 10.0622889-4.5050401 10.0622889-10.0622888s-4.5050402-10.06228886-10.0622889-10.06228886c-5.5572486 0-10.06228882 4.50504016-10.06228882 10.06228886s4.50504022 10.0622888 10.06228882 10.0622888z" fill="#00b574" mask="url(#s)"/></g><g fill="#3ce1a4"><path d="m46.585412 74.893844h1.628526v6.20987h-1.628526z"/><path d="m58.163689 72.160177h1.628526v8.943537h-1.628526z"/><path d="m52.285253 72.160177h1.628526v8.943537h-1.628526z"/><path d="m49.555554 70.531651h1.628526v10.572063h-1.628526z"/><path d="m61.133831 70.531651h1.628526v10.572063h-1.628526z"/><path d="m55.255395 73.788703h1.628526v7.315011h-1.628526z"/></g><path d="m.38620818 5.60413542s.80081902.80408969 1.79006442 1.79737533l-.30650283-.30775463c.98862528.99266298 2.68929738 1.10594473 3.79907039.25262745l-.26377636.20282068c1.10954336-.85314069 2.94138785-.90410112 4.09729655-.10986737l.02461627.01691402c1.15333108.79246262 2.71949308.49515175 3.49739788-.66298601l.8535715-1.27078969c.7782285-1.15861968 2.0041443-1.13416521 2.7377184.05390598l1.4349502 2.32399557c.7337717 1.18839113 1.7279495 1.09673056 2.228479-.22565574l2.7030239-7.14132109" stroke="#3ce1a4" stroke-width="1.6896" transform="translate(44.066198 44.249053)"/></g><g transform="translate(141.182324 21.069164)"><path d="m2.79188379 95.3603758c-1.39846093 0-2.53213752-1.1349152-2.53213752-2.5328767v-90.08847237c0-1.3988692 1.1286907-2.53287674 2.53820613-2.53287674h44.0561837l22.8204123 23.13372521v69.4784074c0 1.4039593-1.1326404 2.5420932-2.5321375 2.5420932z" fill="url(#h)"/><path d="m46.8843561.19208431v.76652841 21.50533138c0 .4233419.3530225.7665284.7741985.7665284l22.1250449-.0000004" fill="#65c1f0"/></g><g stroke="#8cd3f6" transform="translate(140.351655 20.253301)"><g stroke-linecap="square" stroke-width="2.5344"><path d="m10.9925495 33.4826881h14.0563573"/><path d="m10.9925495 48.9536837h44.784461"/><path d="m10.9925495 54.6535242h30.9419913"/><path d="m10.9925495 60.3533647h26.9199808"/></g><path d="m.44694015 4.73531639s.32438209-.86934402.71748067-1.92284823l.47725886-1.27905378c.39625364-1.06195976 1.05833944-1.06576518 1.47578925-.01609537l1.01080031 2.54163866c.41880226 1.05307054 1.08754886 1.04099335 1.49171254-.02178228l.83114262-2.18554553c.40504783-1.06510056 1.0506486-1.05454518 1.46760842-.01278978 0 0 .40655464 1.41072135.86877397 1.41072146.46221932.00000011 10.93461231.00000005 10.93461231.00000005" stroke-width="1.6896" transform="translate(10.585418 73.788703)"/></g><g transform="translate(141.182323 134.421565)"><path d="m2.79188379 95.3603758c-1.39846093 0-2.53213752-1.1349152-2.53213752-2.5328767v-90.08847237c0-1.3988692 1.1286907-2.53287674 2.53820613-2.53287674h44.0561837l22.8204123 23.13372521v69.4784074c0 1.4039593-1.1326404 2.5420932-2.5321375 2.5420932z" fill="url(#i)"/><path d="m46.8843561.19208431v.76652841 21.50533138c0 .4233419.3530225.7665284.7741985.7665284l22.1250449-.0000004" fill="#ff8e8e"/></g><g transform="translate(150.12281 168.035157)"><path d="m22.3401211 2.77331763s2.7911054 11.26354947 3.4888815 18.77258417c.6977762 7.5090347.8415498 11.2488891-1.3236658 12.8297352-2.1652157 1.5808461-12.2829718 8.4970642-16.12074171 9.4850935-3.09149092.7959007-6.40990873.1860241-7.75947202.7453302-.32578157.1350152-.43231411 1.1283164-.43231421 1.4372235-.00000048 1.588567 1.17332371 3.6512674 3.44109674 3.6512664s3.01306355-1.2811596 5.62972437-.4907345c2.61666083.7904251 2.96554953.4907336 6.62887453.490733s3.1474906-1.2811581 7.5085911 0c4.3611006 1.2811582 4.5355456 2.4733592 9.0710918 2.4733587s6.8033189-3.3593037 6.8033189-8.4970644c0-5.1377608-1.9188844-6.3233971-1.9188848-10.0779136-.0000005-3.7545166 4.8844341-24.69382169 4.8844354-30.81961217.0000012-6.12579047-19.9009358 0-19.9009358 0z" fill="#ffc4c4"/><g fill="#ff7878"><ellipse cx="31.199127" cy="44.597781" rx="3.714182" ry="2.524403"/><path d="m25.0621468 44.3280566c2.0399013-.4984801 3.519896-1.5852726 3.3056607-2.427419s-2.0415741-1.120743-4.0814754-.6222629c-2.0399013.4984802-3.519896 1.5852727-3.3056607 2.4274191s2.041574 1.120743 4.0814754.6222628z"/><path d="m17.7818989 46.0308081c2.0226024-.4219897 3.5396029-1.1756948 3.3883155-1.6834473-.1081813-.3630792-.8141277-.5492287-2.0759452-.4446692-.502787.041663-3.0354747.6333124-3.6117727.7535495-2.0226024.4219898-1.7880607.7115272-1.6367733 1.2192797.1512874.5077526 1.9135733.5772771 3.9361757.1552873z"/><path d="m32.4728789 19.4786403c.1615865-5.1258737.0065602-17.74068703.0065602-17.74068703-.0101481-.93277064.4335332-1.64955711.9951862-1.60062178l.5006109.04361689c.5597742.04877164.9611918.83123209.895141 1.76824696l-.6612816 9.38112956-.4696894 27.7881107c-.0157836.9337992-.4804867 1.6514195-1.0421396 1.6024842l-.5006109-.0436169c-.5597742-.0487717-.9574188-.8323715-.8886757-1.7587764 0 0 .9357505-12.1707992 1.1648989-19.4398862z"/><path d="m11.4833271 47.5784256c1.5381197.0905487 2.8111508-.3963019 2.8433946-1.0874112.0322437-.6911094-1.1885099-1.3247686-2.7266296-1.4153173-1.5381196-.0905488-2.81115071.3963018-2.84339449 1.0874112-.03224377.6911093 1.18850984 1.3247685 2.72662949 1.4153173z"/><path d="m5.9003478 47.5844045c1.53831127-.0606235 2.76793981-.6727002 2.7464522-1.3671117-.0214876-.6944114-1.28595443-1.2081981-2.8242657-1.1475747-1.53831127.0606235-2.7679398.6727002-2.74645219 1.3671117.0214876.6944115 1.28595442 1.2081982 2.82426569 1.1475747z"/></g></g><g transform="translate(44.913505 133.389236)"><g transform="translate(.823775 1.032329)"><path d="m2.79188379 95.3603758c-1.39846093 0-2.53213752-1.1349152-2.53213752-2.5328767v-90.08847237c0-1.3988692 1.1286907-2.53287674 2.53820613-2.53287674h44.0561837l22.8204123 23.13372521v69.4784074c0 1.4039593-1.1326404 2.5420932-2.5321375 2.5420932z" fill="url(#j)"/><path d="m46.8843561.19208431v.76652841 21.50533138c0 .4233419.3530225.7665284.7741985.7665284l22.1250449-.0000004" fill="#ffa68a"/></g><path d="m11.8068124 48.1394208h44.7844611" stroke="#ffbea7" stroke-linecap="square" stroke-width="2.5344"/><circle cx="15.470996" cy="79.488544" fill="#ffbea7" r="5.292709"/><g stroke="#ffbea7" stroke-linecap="square" stroke-width="2.5344"><path d="m11.8068124 53.8771945h30.9419913"/><path d="m11.8068124 59.577035h26.9199808"/><path d="m11.8068124 32.7063584h11.6664782"/></g></g></g><g transform="translate(658.7972 70.85)"><circle cx="127.112149" cy="125.844785" fill="url(#a)" r="115.7376"/><g transform="matrix(.89100652 .4539905 -.4539905 .89100652 84.237861 36.929586)"><path d="m52.2365454 13.1261286h8.0669968c11.664254 0 21.12 9.455746 21.12 21.12v65.2457905c0 11.6642539-9.455746 21.1199999-21.12 21.1199999h-8.0669968c-11.6642539 0-21.12-9.455746-21.12-21.1199999v-65.2457905c0-11.664254 9.4557461-21.12 21.12-21.12z" fill="#fff"/><path d="m52.2365454.93426036h8.0669968c11.6638339.00107575 21.1194059 9.45616624 21.1210758 21.11999994l.0019721 38.7189528-50.3115323.0080907.0009626-38.7270434c.0008149-11.6640489 9.4564761-21.11947508 21.120525-21.12000004z" fill="url(#k)"/><path d="m51.6351566 13.5345747h3.3438177c4.6657016 0 8.448 3.7822984 8.448 8.448v44.1277237c0 4.6657016-3.7822984 8.448-8.448 8.448h-3.3438177c-4.6657015 0-8.448-3.7822984-8.448-8.448v-44.1277237c0-4.6657016 3.7822985-8.448 8.448-8.448z" fill="#fff" mask="url(#t)"/></g><g transform="translate(146.597204 112.869508)"><circle cx="23.232" cy="23.232" fill="#fff" r="23.232"/><path d="m8.42359641 26.9448917 30.41279999-6.7584" stroke="#cff0ff" stroke-linecap="square" stroke-width="2.5344"/></g></g></g></svg>