<svg height="1436" viewBox="0 0 1084 1436" width="1084" xmlns="http://www.w3.org/2000/svg" xmlns:xlink="http://www.w3.org/1999/xlink"><defs><path id="a" d="m406 159.992967c0-6.623533 5.379274-11.992967 12.00543-11.992967h107.98914c6.630416 0 12.00543 5.373209 12.00543 11.992967v229.073961c0 6.623532-5.379274 11.992966-12.00543 11.992966h-107.98914c-6.630416 0-12.00543-5.373209-12.00543-11.992966z"/><filter id="b" height="121.7%" width="141.7%" x="-20.8%" y="-6.9%"><feMorphology in="SourceAlpha" operator="erode" radius="2.5" result="shadowSpreadOuter1"/><feOffset dx="0" dy="10" in="shadowSpreadOuter1" result="shadowOffsetOuter1"/><feGaussianBlur in="shadowOffsetOuter1" result="shadowBlurOuter1" stdDeviation="10"/><feColorMatrix in="shadowBlurOuter1" type="matrix" values="0 0 0 0 0.826086957   0 0 0 0 0.826086957   0 0 0 0 0.826086957  0 0 0 1 0"/></filter><rect id="c" height="167" rx="12" width="132" x="300" y="801"/><filter id="d" height="132.9%" width="141.7%" x="-20.8%" y="-10.5%"><feMorphology in="SourceAlpha" operator="erode" radius="2.5" result="shadowSpreadOuter1"/><feOffset dx="0" dy="10" in="shadowSpreadOuter1" result="shadowOffsetOuter1"/><feGaussianBlur in="shadowOffsetOuter1" result="shadowBlurOuter1" stdDeviation="10"/><feColorMatrix in="shadowBlurOuter1" type="matrix" values="0 0 0 0 0.826086957   0 0 0 0 0.826086957   0 0 0 0 0.826086957  0 0 0 1 0"/></filter><rect id="e" height="157" rx="12" width="123.357143" x="664.321429" y="818.5"/><filter id="f" height="135%" width="144.6%" x="-22.3%" y="-11.1%"><feMorphology in="SourceAlpha" operator="erode" radius="2.5" result="shadowSpreadOuter1"/><feOffset dx="0" dy="10" in="shadowSpreadOuter1" result="shadowOffsetOuter1"/><feGaussianBlur in="shadowOffsetOuter1" result="shadowBlurOuter1" stdDeviation="10"/><feColorMatrix in="shadowBlurOuter1" type="matrix" values="0 0 0 0 0.826086957   0 0 0 0 0.826086957   0 0 0 0 0.826086957  0 0 0 1 0"/></filter><rect id="g" height="151" rx="12" width="118.642857" x="773.678571" y="381.5"/><filter id="h" height="136.4%" width="146.4%" x="-23.2%" y="-11.6%"><feMorphology in="SourceAlpha" operator="erode" radius="2.5" result="shadowSpreadOuter1"/><feOffset dx="0" dy="10" in="shadowSpreadOuter1" result="shadowOffsetOuter1"/><feGaussianBlur in="shadowOffsetOuter1" result="shadowBlurOuter1" stdDeviation="10"/><feColorMatrix in="shadowBlurOuter1" type="matrix" values="0 0 0 0 0.826086957   0 0 0 0 0.826086957   0 0 0 0 0.826086957  0 0 0 1 0"/></filter><rect id="i" height="151" rx="12" width="118.642857" x="907.678571" y="381.5"/><filter id="j" height="136.4%" width="146.4%" x="-23.2%" y="-11.6%"><feMorphology in="SourceAlpha" operator="erode" radius="2.5" result="shadowSpreadOuter1"/><feOffset dx="0" dy="10" in="shadowSpreadOuter1" result="shadowOffsetOuter1"/><feGaussianBlur in="shadowOffsetOuter1" result="shadowBlurOuter1" stdDeviation="10"/><feColorMatrix in="shadowBlurOuter1" type="matrix" values="0 0 0 0 0.826086957   0 0 0 0 0.826086957   0 0 0 0 0.826086957  0 0 0 1 0"/></filter><rect id="k" height="156" rx="12" width="132" x="74" y="530"/><filter id="l" height="135.3%" width="141.7%" x="-20.8%" y="-11.2%"><feMorphology in="SourceAlpha" operator="erode" radius="2.5" result="shadowSpreadOuter1"/><feOffset dx="0" dy="10" in="shadowSpreadOuter1" result="shadowOffsetOuter1"/><feGaussianBlur in="shadowOffsetOuter1" result="shadowBlurOuter1" stdDeviation="10"/><feColorMatrix in="shadowBlurOuter1" type="matrix" values="0 0 0 0 0.826086957   0 0 0 0 0.826086957   0 0 0 0 0.826086957  0 0 0 1 0"/></filter><mask id="m" fill="#fff"><path d="m8.73985319 17.3844269 45.40074781 9.5910958-6.3395893 11.2959468-45.4007478-9.5910957z" fill="#fff" fill-rule="evenodd"/></mask><mask id="n" fill="#fff"><path d="m8.44263485.24315752h21.30484465v48.47543878h-21.30484465z" fill="#fff" fill-rule="evenodd"/></mask><mask id="o" fill="#fff"><path d="m8.73985319 17.3844269 45.40074781 9.5910958-6.3395893 11.2959468-45.4007478-9.5910957z" fill="#fff" fill-rule="evenodd"/></mask><mask id="p" fill="#fff"><path d="m8.44263485.24315752h21.30484465v48.47543878h-21.30484465z" fill="#fff" fill-rule="evenodd"/></mask><mask id="q" fill="#fff"><path d="m8.73985319 17.3844269 45.40074781 9.5910958-6.3395893 11.2959468-45.4007478-9.5910957z" fill="#fff" fill-rule="evenodd"/></mask><mask id="r" fill="#fff"><path d="m8.44263485.24315752h21.30484465v48.47543878h-21.30484465z" fill="#fff" fill-rule="evenodd"/></mask><mask id="s" fill="#fff"><path d="m-.92218 18.470873h52.571283v21.222487h-52.571283z" fill="#fff" fill-rule="evenodd"/></mask><mask id="t" fill="#fff"><path d="m7.03200876.24706261h21.64699904v49.25395099h-21.64699904z" fill="#fff" fill-rule="evenodd"/></mask></defs><g fill="none" fill-rule="evenodd"><path d="m0 0h1084v1436h-1084z" fill="#f9f9f9"/><g transform="translate(0 235.5)"><g><use fill="#000" filter="url(#b)" xlink:href="#a"/><use fill="#fff" fill-rule="evenodd" xlink:href="#a"/></g><g><use fill="#000" filter="url(#d)" xlink:href="#c"/><use fill="#fff" fill-rule="evenodd" xlink:href="#c"/></g><g><use fill="#000" filter="url(#f)" xlink:href="#e"/><use fill="#fff" fill-rule="evenodd" xlink:href="#e"/></g><g><use fill="#000" filter="url(#h)" xlink:href="#g"/><use fill="#fff" fill-rule="evenodd" xlink:href="#g"/></g><g><use fill="#000" filter="url(#j)" xlink:href="#i"/><use fill="#fff" fill-rule="evenodd" xlink:href="#i"/></g><g><use fill="#000" filter="url(#l)" xlink:href="#k"/><use fill="#fff" fill-rule="evenodd" xlink:href="#k"/></g></g><g transform="translate(189 539.5)"><g stroke="#4cb3e7" stroke-dasharray="10" stroke-linecap="square" stroke-width="2"><path d="m34.4152195 327.079124s106.7099365 37.521726 299.0847805 0c192.374844-37.521727 228.618361-84.161117 228.618361-84.161117"/><path d="m642.363736 52.5s4.307097-52.5 67.501905-52.5c63.194809 0 74.865642 53.4809565 74.865642 53.4809565"/><path d="m181.331007 52.4994457s-100.8081389-8.7319972-115.8481776 155.8498433c-15.0400387 164.581841 85.4195336 270.780596 85.4195336 270.780596"/><path d="m445.964947 217.223365s-306.00426-212.84059389-383.7124077-70.385913c-77.7081475 142.454681 15.3135272 307.030109 15.3135272 307.030109" transform="matrix(-.98768834 .15643447 -.15643447 -.98768834 512.4556 503.257064)"/><path d="m459.163868 59.7968807s44.315511 23.4014651-33.392637 165.8561463c-77.708147 142.454681 36.966623 312.918473 36.966623 312.918473" transform="matrix(-.98768834 .15643447 -.15643447 -.98768834 911.090371 526.664013)"/></g><path d="m199.684211 52.4411765-18.684211 10.4411764v-20.8823529z" fill="#8cd3f6"/><path d="m53.1233522 361.338266-18.6842106 10.441176v-20.882353z" fill="#8cd3f6" transform="matrix(-.91354546 -.40673664 .40673664 -.91354546 -63.192107 709.244635)"/><path d="m464.574877 543.661201-18.68421 10.441177v-20.882353z" fill="#8cd3f6" transform="matrix(.8660254 .5 -.5 .8660254 332.820227 -154.779596)"/><path d="m579.691905 237.006685-18.68421 10.441176v-20.882353z" fill="#8cd3f6" transform="matrix(.81915204 -.57357644 .57357644 .81915204 -32.794854 370.00138)"/><path d="m793.159123 51.1113711-18.68421 10.4411764v-20.8823529z" fill="#8cd3f6" transform="matrix(.30901699 .95105652 -.95105652 .30901699 590.214041 -710.137194)"/></g><g transform="translate(334 235.5)"><g fill="#2597d0" transform="translate(99)"><path d="m39.9012195 41.7618308c9.8856098 0 17.9002439-9.3489816 17.9002439-20.8807939 0-15.99178767-8.0146341-20.8810369-17.9002439-20.8810369-9.8865854 0-17.9012195 4.88924923-17.9012195 20.8810369 0 11.5318123 8.0146341 20.8807939 17.9012195 20.8807939z"/><path d="m79.4463415 72.6744092-9.0309756-20.2752892c-.4124391-.9285538-1.1385366-1.6976492-2.0417074-2.1658154l-14.0158536-7.2714031c-.3085366-.1604307-.6831708-.1290738-.9612195.0807016-3.9634147 2.9881446-8.6243903 4.5671723-13.477561 4.5671723-4.8541464 0-9.515122-1.5790277-13.4785366-4.5671723-.2790244-.2097754-.6534146-.2411323-.9621951-.0807016l-14.0148781 7.2714031c-.9041463.4681662-1.62829265 1.2372616-2.04170728 2.1658154l-9.03097561 20.2752892c-.62317073 1.3976923-.49560976 2.9966523.34097561 4.278397.83658536 1.2819876 2.25121951 2.0471938 3.78536585 2.0471938h70.80219513c1.534878 0 2.9495122-.7652062 3.7860976-2.0471938.8356097-1.2817447.9641463-2.881677.3409756-4.278397z"/></g><text fill="#505050" font-family="Helvetica" font-size="21"><tspan x="106.04208" y="117">Patient</tspan></text><text fill="#505050" font-family="Helvetica-Bold, Helvetica" font-size="21" font-weight="bold"><tspan x="92.640224" y="182">On paper</tspan></text><g transform="translate(96 272)"><path d="m.83308385 44.4723657c-.40916048 0-.74085059-.3284645-.74085059-.7260969v-42.49364617c0-.40101228.32574678-.72609697.72680073-.72609697h20.39075181c.4014009 0 .9602069.23308735 1.2428189.51531317l9.6666153 9.65340767c.2849889.2845996.5160182.844517.5160182 1.2409667v31.8104991c0 .4007673-.3220896.7256534-.7408506.7256534z" fill="#ff9191"/><path d="m20.4316113.52652566v.9289914 10.50178474c0 .5130678.4076992.9289914.9123042.9289914h10.8608118" stroke="#fff" stroke-width="2"/></g><g transform="translate(143 334)"><path d="m.83308385 44.4723657c-.40916048 0-.74085059-.3284645-.74085059-.7260969v-42.49364617c0-.40101228.32574678-.72609697.72680073-.72609697h20.39075181c.4014009 0 .9602069.23308735 1.2428189.51531317l9.6666153 9.65340767c.2849889.2845996.5160182.844517.5160182 1.2409667v31.8104991c0 .4007673-.3220896.7256534-.7408506.7256534z" fill="#4d8db3"/><path d="m20.4316113.52652566v.9289914 10.50178474c0 .5130678.4076992.9289914.9123042.9289914h10.8608118" stroke="#fff" stroke-width="2"/></g><g transform="translate(97 334)"><path d="m.83308385 44.4723657c-.40916048 0-.74085059-.3284645-.74085059-.7260969v-42.49364617c0-.40101228.32574678-.72609697.72680073-.72609697h20.39075181c.4014009 0 .9602069.23308735 1.2428189.51531317l9.6666153 9.65340767c.2849889.2845996.5160182.844517.5160182 1.2409667v31.8104991c0 .4007673-.3220896.7256534-.7408506.7256534z" fill="#78cca0"/><path d="m20.4316113.52652566v.9289914 10.50178474c0 .5130678.4076992.9289914.9123042.9289914h10.8608118" stroke="#fff" stroke-width="2"/></g><g transform="matrix(.82903757 -.5591929 .5591929 .82903757 70 234.336691)"><g transform="translate(1.521775 10.604002)"><ellipse cx="28.170607" cy="16.406526" fill="#09a8a7" rx="15.978634" ry="15.906003"/><ellipse cx="28.170607" cy="16.406526" fill="#81efef" mask="url(#m)" rx="15.978634" ry="15.906003"/></g><ellipse cx="29.692382" cy="27.010528" fill="#148484" mask="url(#n)" rx="15.978634" ry="15.906003"/></g><g fill="#0989a8" transform="matrix(0 1 -1 0 172 283)"><path d="m.20572 11.688661h4.383622v16.63958h-4.383622z"/><path d="m15.5483964 4.36369635h4.3836219v23.96454445h-4.3836219z"/><path d="m8.200668 0h4.383622v28.328241h-4.383622z"/><path d="m23.543344 8.727393h4.383622v19.600848h-4.383622z"/></g></g><g transform="translate(226 1050.5)"><g fill="#2597d0" transform="translate(99 186)"><path d="m39.9012195 41.7618308c9.8856098 0 17.9002439-9.3489816 17.9002439-20.8807939 0-15.99178767-8.0146341-20.8810369-17.9002439-20.8810369-9.8865854 0-17.9012195 4.88924923-17.9012195 20.8810369 0 11.5318123 8.0146341 20.8807939 17.9012195 20.8807939z"/><path d="m79.4463415 72.6744092-9.0309756-20.2752892c-.4124391-.9285538-1.1385366-1.6976492-2.0417074-2.1658154l-14.0158536-7.2714031c-.3085366-.1604307-.6831708-.1290738-.9612195.0807016-3.9634147 2.9881446-8.6243903 4.5671723-13.477561 4.5671723-4.8541464 0-9.515122-1.5790277-13.4785366-4.5671723-.2790244-.2097754-.6534146-.2411323-.9621951-.0807016l-14.0148781 7.2714031c-.9041463.4681662-1.62829265 1.2372616-2.04170728 2.1658154l-9.03097561 20.2752892c-.62317073 1.3976923-.49560976 2.9966523.34097561 4.278397.83658536 1.2819876 2.25121951 2.0471938 3.78536585 2.0471938h70.80219513c1.534878 0 2.9495122-.7652062 3.7860976-2.0471938.8356097-1.2817447.9641463-2.881677.3409756-4.278397z"/></g><text fill="#505050" font-family="Helvetica" font-size="21"><tspan x="99.048916" y="304">Doctor 2</tspan></text><text fill="#505050" font-family="Helvetica-Bold, Helvetica" font-size="21" font-weight="bold"><tspan x="109.979824" y="20">Silo B</tspan></text><g transform="translate(96 91)"><path d="m.83308385 44.4723657c-.40916048 0-.74085059-.3284645-.74085059-.7260969v-42.49364617c0-.40101228.32574678-.72609697.72680073-.72609697h20.39075181c.4014009 0 .9602069.23308735 1.2428189.51531317l9.6666153 9.65340767c.2849889.2845996.5160182.844517.5160182 1.2409667v31.8104991c0 .4007673-.3220896.7256534-.7408506.7256534z" fill="#78cca0"/><path d="m20.4316113.52652566v.9289914 10.50178474c0 .5130678.4076992.9289914.9123042.9289914h10.8608118" stroke="#fff" stroke-width="2"/></g><g transform="matrix(.82903757 -.5591929 .5591929 .82903757 119 115.336691)"><g transform="translate(1.521775 10.604002)"><ellipse cx="28.170607" cy="16.406526" fill="#09a8a7" rx="15.978634" ry="15.906003"/><ellipse cx="28.170607" cy="16.406526" fill="#81efef" mask="url(#o)" rx="15.978634" ry="15.906003"/></g><ellipse cx="29.692382" cy="27.010528" fill="#148484" mask="url(#p)" rx="15.978634" ry="15.906003"/></g><g fill="#0989a8" transform="matrix(0 1 -1 0 157 62)"><path d="m.20572 11.688661h4.383622v16.63958h-4.383622z"/><path d="m15.5483964 4.36369635h4.3836219v23.96454445h-4.3836219z"/><path d="m8.200668 0h4.383622v28.328241h-4.383622z"/><path d="m23.543344 8.727393h4.383622v19.600848h-4.383622z"/></g></g><g transform="translate(590 1070.5)"><g fill="#2597d0" transform="translate(85.444444 169)"><path d="m28.3932743 85.0496346h18.5569874v-18.9727796h11.1534267v18.9727796h18.5569874v-84.94264575h-48.2674015zm27.5201478-63.7797096h11.1534267v-11.1528427h-11.1534267zm0 17.9232054h11.1534267v-11.1528427h-11.1534267zm0 17.9221219h11.1534267v-11.1517592h-11.1534267zm-17.9263207-35.8453273h11.1536976v-11.1528427h-11.1536976zm0 17.9232054h11.1536976v-11.1528427h-11.1536976zm0 17.9221219h11.1536976v-11.1517592h-11.1536976z"/><g transform="translate(0 7.58402)"><path d="m80.9943419.13244949v60.06056051h7.1651644v17.2726049h16.8944437v-77.33316541zm5.1702205 51.90205141h10.1548712v-10.1528356h-10.1548712zm0-16.3181019h10.1548712v-10.1528355h-10.1548712zm0-16.3170183h10.1548712v-10.1531064h-10.1548712z"/><path d="m0 77.4656149h16.8944439v-17.2726049h7.166248v-60.06056051h-24.0606919zm8.73451661-58.0662342h10.15487109v-10.1531064h-10.15487109zm0 16.3170183h10.15487109v-10.1528355h-10.15487109zm0 16.3170184h10.15487109v-10.1528355h-10.15487109z"/></g></g><text fill="#505050" font-family="Helvetica-Bold, Helvetica" font-size="21" font-weight="bold"><tspan x="106.979824" y="20">Silo C</tspan></text><text fill="#505050" font-family="Helvetica" font-size="21"><tspan x="54.106044" y="297">Research Institute</tspan></text><g transform="matrix(.82903757 -.5591929 .5591929 .82903757 73 57.336691)"><g transform="translate(1.521775 10.604002)"><ellipse cx="28.170607" cy="16.406526" fill="#09a8a7" rx="15.978634" ry="15.906003"/><ellipse cx="28.170607" cy="16.406526" fill="#81efef" mask="url(#q)" rx="15.978634" ry="15.906003"/></g><ellipse cx="29.692382" cy="27.010528" fill="#148484" mask="url(#r)" rx="15.978634" ry="15.906003"/></g><g transform="matrix(.22495105 .97437006 -.97437006 .22495105 133.26368 68.999999)"><g transform="translate(0 10.774302)"><ellipse cx="28.623025" cy="16.670013" fill="#0989a8" rx="16.235249" ry="16.161453"/><ellipse cx="28.623025" cy="16.670013" fill="#61cbff" mask="url(#s)" rx="16.235249" ry="16.161453"/></g><path d="m28.6230253 43.6057676c8.9664806 0 16.2352493-7.2357288 16.2352493-16.1614527 0-8.9257238-7.2687687-16.1614526-16.2352493-16.1614526s-16.2352492 7.2357288-16.2352492 16.1614526c0 8.9257239 7.2687686 16.1614527 16.2352492 16.1614527z" fill="#147384" mask="url(#t)"/></g><g fill="#0989a8" transform="translate(141 97)"><path d="m.12331 7.006296h2.627585v9.973925h-2.627585z"/><path d="m18.804568 2.615642h2.627585v14.36458h-2.627585z"/><path d="m9.31985924 2.61564182h2.62758536v14.36457988h-2.62758536z"/><path d="m4.91555949 0h2.62758539v16.9802217h-2.62758539z"/><path d="m23.596817 0h2.627585v16.980222h-2.627585z"/><path d="m14.1121083 5.23128364h2.6275854v11.74893806h-2.6275854z"/></g><path d="m.62313716 9.00103055s1.42936172 1.42867585 3.17918435 3.17765875l-1.07645572-1.0759391c1.75581503 1.7549725 4.78654372 1.9473594 6.7553093.4404338l-1.09488548.8380434c1.97503929-1.5117277 5.23433899-1.6030324 7.28271769-.2019732l-.6346594-.4340971c2.0470946 1.4001809 4.8348594.8631336 6.2190438-1.1882608l.8994321-1.33297993c1.3875884-2.05643925 3.5732757-2.01324726 4.8868191.1044522l1.8538809 2.98883363c1.3113273 2.1141266 3.0871774 1.9533006 3.9705327-.3698936l4.2170103-11.09059322" stroke="#09a8a7" stroke-width="3" transform="translate(137 54)"/></g><g transform="translate(695 630.5)"><path d="m129.736625 83.9775481c.15632-.4834039.249022-1.0013366.249022-1.5338077v-56.4928269c0-2.6841635-2.173941-4.848577-4.84956-4.848577h-26.996124v60.1274423c0 .9649904-.1763145 1.8881827-.4816841 2.7477693h-3.1682093c.1563201-.4834039.2490216-1.0013366.2490216-1.5338077v-77.58995194c0-2.67689423-2.1721228-4.84857692-4.8495596-4.84857692h-42.3609393c-2.6756191 0-4.8495596 2.17168269-4.8495596 4.84857692v77.58995194c0 .5324711.0927014 1.0504038.2562923 1.5338077h-3.1663916c-.3053696-.8595866-.4835018-1.7827789-.4835018-2.7477693v-60.1274423h-26.3490314c-2.6828898 0-4.84955964 2.1644135-4.84955964 4.848577v56.4928269c0 .5324711.09270148 1.0504038.24902161 1.5338077h-8.33586217v10.0224519h137.425395v-10.0224519zm-114.0518987-19.7995673h6.950793v-6.9493846h-6.950793zm0-12.2032212h6.950793v-6.9566538h-6.950793zm0-11.8052308h6.950793v-6.9493846h-6.950793zm10.827896 24.008452h6.950793v-6.9493846h-6.950793zm0-12.2032212h6.950793v-6.9566538h-6.950793zm0-11.8052308h6.950793v-6.9493846h-6.950793zm32.5763894 43.4881731h20.4125015v-25.4641154h-20.4125015zm9.6209591-47.2863461c-9.4446446 0-17.0970605-7.6526827-17.0970605-17.0935962 0-9.44091345 7.6596867-17.09359614 17.0970605-17.09359614 9.4428268 0 17.0970605 7.65268269 17.0970605 17.09359614 0 9.4409135-7.6542337 17.0935962-17.0970605 17.0935962zm37.1914692 27.806625h6.950793v-6.9493846h-6.950793zm0-12.2032212h6.950793v-6.9566538h-6.950793zm0-11.8052308h6.950793v-6.9493846h-6.950793zm10.827896 24.008452h6.950793v-6.9493846h-6.950793zm0-12.2032212h6.950793v-6.9566538h-6.950793zm0-11.8052308h6.950793v-6.9493846h-6.950793zm-43.7732741-25.1297307h6.5454513v8.4831923h-6.5454513v6.5459423h-8.4849116v-6.5459423h-6.5545397v-8.4831923h6.5545397v-6.55139425h8.4849116z" fill="#2597d0" transform="translate(127.178571 174)"/><g fill="#505050" font-size="21"><text font-family="Helvetica-Bold, Helvetica" font-weight="bold"><tspan x="108.979824" y="20">Silo D</tspan></text><text font-family="Helvetica-Bold, Helvetica" font-weight="bold"><tspan x="243.559169" y="20">Silo E</tspan></text><text font-family="Helvetica"><tspan x="155.797206" y="332">Hospital</tspan></text><text font-family="Helvetica"><tspan x="114.045498" y="302">unit 1</tspan></text><text font-family="Helvetica"><tspan x="226.045498" y="302">unit 2</tspan></text></g><g transform="translate(235 67)"><path d="m.83308385 44.4723657c-.40916048 0-.74085059-.3284645-.74085059-.7260969v-42.49364617c0-.40101228.32574678-.72609697.72680073-.72609697h20.39075181c.4014009 0 .9602069.23308735 1.2428189.51531317l9.6666153 9.65340767c.2849889.2845996.5160182.844517.5160182 1.2409667v31.8104991c0 .4007673-.3220896.7256534-.7408506.7256534z" fill="#ff9191"/><path d="m20.4316113.52652566v.9289914 10.50178474c0 .5130678.4076992.9289914.9123042.9289914h10.8608118" stroke="#fff" stroke-width="2"/></g><g transform="translate(120 67)"><path d="m.83308385 44.4723657c-.40916048 0-.74085059-.3284645-.74085059-.7260969v-42.49364617c0-.40101228.32574678-.72609697.72680073-.72609697h20.39075181c.4014009 0 .9602069.23308735 1.2428189.51531317l9.6666153 9.65340767c.2849889.2845996.5160182.844517.5160182 1.2409667v31.8104991c0 .4007673-.3220896.7256534-.7408506.7256534z" fill="#ffbf55"/><path d="m20.4316113.52652566v.9289914 10.50178474c0 .5130678.4076992.9289914.9123042.9289914h10.8608118" stroke="#fff" stroke-width="2"/></g><g transform="translate(278 67)"><path d="m.83308385 44.4723657c-.40916048 0-.74085059-.3284645-.74085059-.7260969v-42.49364617c0-.40101228.32574678-.72609697.72680073-.72609697h20.39075181c.4014009 0 .9602069.23308735 1.2428189.51531317l9.6666153 9.65340767c.2849889.2845996.5160182.844517.5160182 1.2409667v31.8104991c0 .4007673-.3220896.7256534-.7408506.7256534z" fill="#ffbf55"/><path d="m20.4316113.52652566v.9289914 10.50178474c0 .5130678.4076992.9289914.9123042.9289914h10.8608118" stroke="#fff" stroke-width="2"/></g></g><g transform="translate(0 783.5)"><g fill="#2597d0" transform="translate(98 176)"><path d="m39.9012195 41.7618308c9.8856098 0 17.9002439-9.3489816 17.9002439-20.8807939 0-15.99178767-8.0146341-20.8810369-17.9002439-20.8810369-9.8865854 0-17.9012195 4.88924923-17.9012195 20.8810369 0 11.5318123 8.0146341 20.8807939 17.9012195 20.8807939z"/><path d="m79.4463415 72.6744092-9.0309756-20.2752892c-.4124391-.9285538-1.1385366-1.6976492-2.0417074-2.1658154l-14.0158536-7.2714031c-.3085366-.1604307-.6831708-.1290738-.9612195.0807016-3.9634147 2.9881446-8.6243903 4.5671723-13.477561 4.5671723-4.8541464 0-9.515122-1.5790277-13.4785366-4.5671723-.2790244-.2097754-.6534146-.2411323-.9621951-.0807016l-14.0148781 7.2714031c-.9041463.4681662-1.62829265 1.2372616-2.04170728 2.1658154l-9.03097561 20.2752892c-.62317073 1.3976923-.49560976 2.9966523.34097561 4.278397.83658536 1.2819876 2.25121951 2.0471938 3.78536585 2.0471938h70.80219513c1.534878 0 2.9495122-.7652062 3.7860976-2.0471938.8356097-1.2817447.9641463-2.881677.3409756-4.278397z"/></g><text fill="#505050" font-family="Helvetica" font-size="21"><tspan x="101.048915" y="292">Doctor 1</tspan></text><text fill="#505050" font-family="Helvetica-Bold, Helvetica" font-size="21" font-weight="bold"><tspan x="109.364345" y="20">Silo A</tspan></text><g transform="translate(146 71)"><path d="m.83308385 44.4723657c-.40916048 0-.74085059-.3284645-.74085059-.7260969v-42.49364617c0-.40101228.32574678-.72609697.72680073-.72609697h20.39075181c.4014009 0 .9602069.23308735 1.2428189.51531317l9.6666153 9.65340767c.2849889.2845996.5160182.844517.5160182 1.2409667v31.8104991c0 .4007673-.3220896.7256534-.7408506.7256534z" fill="#ffbf55"/><path d="m20.4316113.52652566v.9289914 10.50178474c0 .5130678.4076992.9289914.9123042.9289914h10.8608118" stroke="#fff" stroke-width="2"/></g><g transform="translate(101 70)"><path d="m.83308385 44.4723657c-.40916048 0-.74085059-.3284645-.74085059-.7260969v-42.49364617c0-.40101228.32574678-.72609697.72680073-.72609697h20.39075181c.4014009 0 .9602069.23308735 1.2428189.51531317l9.6666153 9.65340767c.2849889.2845996.5160182.844517.5160182 1.2409667v31.8104991c0 .4007673-.3220896.7256534-.7408506.7256534z" fill="#78cca0"/><path d="m20.4316113.52652566v.9289914 10.50178474c0 .5130678.4076992.9289914.9123042.9289914h10.8608118" stroke="#fff" stroke-width="2"/></g></g><text fill="#1b1b1b" font-family="Helvetica-Bold, Helvetica" font-size="44" font-weight="bold"><tspan x="428.336914" y="108">Status quo</tspan></text></g></svg>