<svg height="1016" viewBox="0 0 1276 1016" width="1276" xmlns="http://www.w3.org/2000/svg" xmlns:xlink="http://www.w3.org/1999/xlink"><mask id="a" fill="#fff"><path d="m114.458618 228.569653c63.070413 0 114.19922-51.128807 114.19922-114.19922 0-63.0704132-51.128807-114.19870407-114.19922-114.19870407s-114.19921965 51.12829087-114.19921965 114.19870407c0 63.070413 51.12880665 114.19922 114.19921965 114.19922z" fill="#fff" fill-rule="evenodd"/></mask><mask id="b" fill="#fff"><path d="m82.5871736 3.5150281c14.9868297 7.6360066 20.9452564 25.9754182 13.3092495 40.9622479l-38.1310413 74.836681c-7.6365223 14.98683-25.9754182 20.945772-40.9622479 13.309765-14.98631407-7.636006-20.94525621-25.975418-13.3092496-40.9622476l38.131557-74.8371967c7.6360066-14.98631406 25.9754182-20.94525621 40.9617323-13.3092496z" fill="#fff" fill-rule="evenodd"/></mask><mask id="c" fill="#fff"><path d="m76.8308913 27.7468782-19.0655095 37.4183185c-7.6365223 14.9868297-25.9754182 20.9457719-40.9622479 13.3097653-14.98631407-7.6360066-20.94525621-25.9754182-13.3092496-40.962248l19.0657385-37.41851985z" fill="#fff" fill-rule="evenodd"/></mask><mask id="d" fill="#fff"><path d="m22.5596228.09419415 54.2712685 27.65268405-19.0655095 37.4183185c-7.6365223 14.9868297-25.9754182 20.9457719-40.9622479 13.3097653-14.98631407-7.6360066-20.94525621-25.9754182-13.3092496-40.962248z" fill="#fff" fill-rule="evenodd"/></mask><mask id="e" fill="#fff"><path d="m28.1217543 1.09255117-18.60910637 36.52227193-9.12301833-4.6484169 13.1212597-25.75172851c2.7606749-5.4184676 8.99923-7.90378828 14.610865-6.12212652z" fill="#fff" fill-rule="evenodd"/></mask><g fill="none" fill-rule="evenodd"><path d="m0 0h1276v1016h-1276z" fill="#094c6d"/><path d="m-25.5257256 254.354777h279.9686876v-279.9686877h-279.9686876z" fill="#087fb9" mask="url(#a)" transform="translate(237.14876 249.211901)"/><path d="m82.5871736 3.5150281c14.9868297 7.6360066 20.9452564 25.9754182 13.3092495 40.9622479l-38.1310413 74.836681c-7.6365223 14.98683-25.9754182 20.945772-40.9622479 13.309765-14.98631407-7.636522-20.94525621-25.975418-13.3092496-40.9622476l38.131557-74.8371967c7.6360066-14.98631406 25.9754182-20.94525621 40.9617323-13.3092496z" mask="url(#b)" stroke="#fff" stroke-width="19.2" transform="translate(302.256198 296.269752)"/><g transform="translate(302.256198 350.418512)"><path d="m82.5871736-50.6337322c14.9868297 7.6360066 20.9452564 25.9754182 13.3092495 40.9622479l-38.1310413 74.836681c-7.6365223 14.9868297-25.9754182 20.9457719-40.9622479 13.3097653-14.98631407-7.6360066-20.94525621-25.9754182-13.3092496-40.962248l38.131557-74.8371966c7.6360066-14.9863141 25.9754182-20.9452562 40.9617323-13.3092496z" fill="#fff" mask="url(#c)"/><path d="m82.5871736-50.6337322c14.9868297 7.6360066 20.9452564 25.9754182 13.3092495 40.9622479l-38.1310413 74.836681c-7.6365223 14.9868297-25.9754182 20.9457719-40.9622479 13.3097653-14.98631407-7.6365223-20.94525621-25.9754182-13.3092496-40.962248l38.131557-74.8371966c7.6360066-14.9863141 25.9754182-20.9452562 40.9617323-13.3092496z" mask="url(#d)" stroke="#fff" stroke-width="19.2"/></g><path d="m29.9906777 1.86013884c6.0295934 3.07203967 8.4270942 10.45019506 5.3550545 16.47978846l-22.4181024 43.9976727c-3.07203972 6.0295934-10.45071079 8.4270942-16.48030418 5.3550545-6.02907769-3.0725553-8.42657852-10.4507107-5.35453884-16.4803041l22.41810252-43.99767271c3.0720396-6.02959339 10.4507107-8.42709422 16.4797884-5.35453885z" mask="url(#e)" stroke="#fff" stroke-width="19.2" transform="translate(344.801653 315.608595)"/><g transform="translate(522.933884 248.644628)"><circle cx="114.686497" cy="114.686497" fill="#087fb9" r="114.686497"/><path d="m156.272745 74.4101335h-5.198281v-5.198281c0-2.8709326-2.32727-5.198281-5.198281-5.198281s-5.198281 2.3273484-5.198281 5.198281v5.198281h-51.9828099v-5.198281c0-2.8709326-2.3273743-5.198281-5.1982809-5.198281-2.8709067 0-5.198281 2.3273484-5.198281 5.198281v5.198281h-5.198281c-5.7181091 0-10.396562 4.6784529-10.396562 10.396562v67.5776525c0 5.718109 4.6784529 10.396562 10.396562 10.396562h83.1724958c5.718109 0 10.396562-4.678453 10.396562-10.396562v-67.5776525c0-5.7181091-4.678453-10.396562-10.396562-10.396562zm1.264343 78.5477895h-83.1724956v-51.98281h83.1724956z" fill="#fff" fill-rule="nonzero"/></g><circle cx="924.534369" cy="363.012387" fill="#087fb9" r="114.345168"/><g fill="#fff" transform="translate(872.793212 317.563027)"><path d="m36.2247224.4541488-9.4359885 10.2191047h-16.3454009c-5.67190564 0-10.31255573 4.5985971-10.31255573 10.2191047v61.3146283c0 5.6205075 4.64065009 10.2191047 10.31255573 10.2191047h82.5004461c5.6719057 0 10.3125559-4.5985972 10.3125559-10.2191047v-61.3146283c0-5.6205076-4.6406502-10.2191047-10.3125559-10.2191047h-16.3454009l-9.4359885-10.2191047zm15.4688337 76.6432853c-14.231327 0-25.7813894-11.4453973-25.7813894-25.5477618s11.5500624-25.5477617 25.7813894-25.5477617c14.2313269 0 25.7813894 11.4453972 25.7813894 25.5477617s-11.5500625 25.5477618-25.7813894 25.5477618z"/><circle cx="51.693556" cy="51.415796" r="16.296985"/></g><circle cx="351.623269" cy="651.11625" fill="#087fb9" r="114.743802"/><g fill="#fff" transform="translate(265.135666 567.950413)"><path d="m65.3419227 78.5079111.3175459.2284587c5.9228292 4.203376 13.1613945 6.6743667 20.9770906 6.6743667 7.9612422 0 15.3236588-2.5638786 21.3066068-6.9109937 2.825801-.0671178 14.777506.1754014 22.308999 8.5279025 8.995099 9.9756552 7.471196 36.4784197 7.471196 36.4784197-.056759 4.638873-3.858797 8.399422-8.503989 8.399422h-85.3286961c-4.639864.000001-8.3939072-3.754496-8.2917268-8.398601 0 0-.6340841-27.8047216 7.2202162-36.4792419 8.470372-9.3549281 20.9041492-8.6545215 22.5227574-8.519733z"/><path d="m86.6365592 69.9553055c11.5044475 0 20.8306448-9.3261975 20.8306448-20.830645s-9.3261973-20.830645-20.8306448-20.830645c-11.5044476 0-20.830645 9.3261975-20.830645 20.830645s9.3261974 20.830645 20.830645 20.830645z"/></g><circle cx="637.53056" cy="649.66373" fill="#087fb9" r="113.776287"/><g fill="#fff" transform="translate(587.249568 591.002573)"><path d="m.59834495 75.3084011v-71.81102448c0-1.67010908 1.35389092-3.024 3.024-3.024h33.45611295c1.2920661 0 2.5295697.52089824 3.4326937 1.44491217l15.2489871 15.60170811c.871108.8912575 1.3614227 2.0863809 1.3672538 3.3326293l.2547273 54.441626c.0078142 1.6700908-1.3397272 3.0303016-3.009818 3.0381158-.0047163.0000221-.0094326.0000331-.0141489.0000331h-50.73580795c-1.67010908 0-3.024-1.3538909-3.024-3.024z" transform="translate(22.466301 18.922095)"/><g fill-rule="nonzero"><path d="m88.9428287 9.45765975h11.1483373v-9.02479338h-14.1731306c-3.3137085 0-6 2.6862915-6 5.99999999v14.17313024h9.0247933z" transform="matrix(0 1 -1 0 100.524031 -79.485169)"/><path d="m9.07452509 9.45765975h11.14833691v-9.02479338h-14.1731303c-3.3137085 0-6 2.6862915-6 5.99999999v14.17313024h9.02479339z"/><path d="m20.222862 104.9509v-9.0247931h-14.1731303c-3.3137085 0-6 2.6862915-6 6.0000001v14.17313h9.02479339v-11.148337z" transform="matrix(0 -1 1 0 -95.876375 116.148969)"/><path d="m100.091166 104.9509v-9.0247931h-14.1731306c-3.3137085 0-6 2.6862915-6 6.0000001v14.17313h9.0247933v-11.148337z" transform="matrix(-1 0 0 -1 180.0092 212.025344)"/></g></g><path d="m114.385136 228.569735c63.070444 0 114.19914-51.128696 114.19914-114.199139 0-63.0704432-51.128696-114.19913947-114.19914-114.19913947-63.0704427 0-114.19913898 51.12869627-114.19913898 114.19913947 0 63.070443 51.12869628 114.199139 114.19913898 114.199139z" fill="#087fb9" transform="translate(808.289256 534.429752)"/><g stroke="#fff" stroke-linecap="square" stroke-width="9.6" transform="translate(839.774249 569.443236)"><path d="m43.291866 49.8399304h85.498043"/><path d="m43.291866 72.2322749h85.498043"/><path d="m43.291866 94.6246194h85.498043"/><path d="m43.291866 118.257449h56.998695"/></g></g></svg>