<svg height="539" viewBox="0 0 1194 539" width="1194" xmlns="http://www.w3.org/2000/svg"><g fill="none" fill-rule="evenodd"><path d="m0 0h1194v539h-1194z" fill="#2597d0"/><g transform="translate(-7 165)"><path d="m.3876336 92.451024c241.1625744 211.57213 614.1539664 11.10456 390.4354224 50.624784-103.54608 18.291744-153.719424 64.61208-100.829664 102.167568 52.88976 37.555402 334.229328 15.503184 470.529648-84.62448" stroke="#fff" stroke-width="2.808"/><path d="m822.45024 124.781904 24.11856-24.560496-4.52304-13.203648s-15.04224 1.591056-15.5088 2.84472c-.46656 1.25496-2.31984 18.124128-2.6352 21.078144-.31536 2.951856-1.45152 13.84128-1.45152 13.84128z" fill="#1a75a2"/><path d="m940.81392.852768c-.67824-.752112-1.73232-1.027728-2.68272-.713664l-158.89392 52.87896c-.96768.322704-1.65024 1.200096-1.72368 2.222208-.07776 1.02384.46656 1.99152 1.3824 2.452896l27.76032 14.044752c2.16 1.093824 3.68064 3.1752 4.07376 5.567184l7.51248 46.001088c.1728 1.055808.98928 1.890432 2.03904 2.08656 1.02816.186624 2.10384-.292464 2.64384-1.21608l15.31872-26.282016c.41472-.714096 1.1232-1.16856 1.944-1.246752.82512-.078192 1.5984.23112 2.14272.851472l34.33968 39.252384c.46656.530928 1.1232.837648 1.8144.86184.1512.005184.3024-.003456.4536-.024192.85536-.125712 1.58112-.675216 1.93968-1.459728l60.3504-132.527232c.41904-.917136.25488-1.997568-.41472-2.74968z" fill="#fff"/><path d="m939.708.152064-130.788 73.413648c.91584 1.056672 1.5768 2.328048 1.81008 3.739392l7.51248 46.001088c.1728 1.055808.98928 1.890432 2.03904 2.08656 1.02816.184896 2.10384-.292464 2.64384-1.21608l15.31872-26.282016c.108-.185328.2808-.298512.42336-.44712.01296-.055296.02592-.110592.02592-.110592l102.09888-96.498864c-.3024-.330048-.67824-.552096-1.08432-.686016z" fill="#cee8fa"/></g></g></svg>