<svg height="24" viewBox="0 0 24 24" width="24" xmlns="http://www.w3.org/2000/svg">
	<path d="m22.3592881 5.82427054v.59619016c0 .24378184-.1417446.46531584-.3630886.56747461l-8.9485541 4.13010189c-.6647377.306802-1.4305531.306802-2.0952908 0l-8.94855408-4.13010189c-.22134402-.10215877-.36308864-.32369277-.36308864-.56747461v-.59619016c0-.55012277.44596262-.99608539.9960854-.99608539h18.72640542c.5501228 0 .9960854.44596262.9960854.99608539zm-1.25 13.34754436h-18.21857622c-.69035594 0-1.25-.5596441-1.25-1.25v-8.52329148c0-.20710678.16789322-.375.375-.375.05424403 0 .10784237.01176807.15709707.03449228l8.78345405 4.0523453c.6647826.3067049 1.4305981.306593 2.095291-.0003062l8.7755375-4.05180448c.1880319-.08681729.4108411-.00476666.4976584.18326519.0227541.04928162.0345382.1029156.0345382.1571966v8.52310279c0 .6903559-.559644 1.25-1.25 1.25z" />
</svg>
