<svg height="24" viewBox="0 0 24 24" width="24" xmlns="http://www.w3.org/2000/svg">
	<path d="m21.0247938 8.63275418c.2692962 5.94511812-4.1645259 12.57304192-12.0138477 12.57304192-2.38687665 0-4.60746657-.7004644-6.47782429-1.8997889 2.24266338.2648815 4.48091208-.3590616 6.25708971-1.7496895-1.84828426-.033846-3.40961356-1.2567156-3.94967751-2.93577.66367531.1265545 1.31704969.0897654 1.91008994-.0721066-2.03222975-.4090948-3.43610171-2.2397203-3.39048323-4.1983718.57096679.3163862 1.22139804.5062179 1.91450464.5282914-1.88213023-1.25818714-2.41483637-3.74365857-1.30822031-5.64344757 2.08373448 2.55757806 5.19903526 4.2395756 8.71165825 4.41616327-.6165852-2.64292877 1.3891564-5.19020588 4.1189074-5.19020588 1.2140402 0 2.3132985.5135758 3.0843979 1.33470846.9624028-.18836018 1.8688862-.54153552 2.6841326-1.02568004-.3163862.98741938-.9859478 1.81443829-1.8585852 2.33831504.8549786-.10300948 1.670225-.32963032 2.4266089-.66661845-.5650806.85056393-1.2802606 1.59517527-2.1087511 2.19115865z" />
</svg>
