<?xml version="1.0" encoding="UTF-8"?>
<svg width="861px" height="577px" viewBox="0 0 861 577" version="1.1" xmlns="http://www.w3.org/2000/svg" xmlns:xlink="http://www.w3.org/1999/xlink">
    <!-- Generator: Sketch 46.2 (44496) - http://www.bohemiancoding.com/sketch -->
    <title>gabrieladorf</title>
    <desc>Created with Sketch.</desc>
    <defs></defs>
    <g id="Page-1" stroke="none" stroke-width="1" fill="none" fill-rule="evenodd">
        <g transform="translate(466.731234, 315.107985) rotate(-360.000000) translate(-466.731234, -315.107985) translate(215.731234, 50.607985)">
            <path d="M123.47,216.645423 L127.211871,215.452064 L123.5737,190.9945 L120.1047,157.2345 L110.1617,125.3265 L105.9997,75.6125 L113.6307,44.3965 L134.9037,24.9725 L159.8767,13.8735 L166.5817,8.5555 L181.3807,7.8615 L196.6417,0.0005 L220.9197,5.0875 L225.3137,1.8495 L253.0607,12.0245 L300.2307,58.9645 L316.6487,82.0855 L312.9487,81.1615 L321.7357,94.5725 L318.9607,93.1855 L321.2727,111.9145 L318.7287,107.2895 L319.6547,120.4695 L318.7287,117.4645 L315.7237,139.6615 L309.4807,137.3495 L303.4677,138.0435 L294.9127,146.8305 L289.8267,160.2405 L284.7377,180.1265 L286.8197,201.6315 L285.4327,211.8045 L285.4327,230.3035 L280.3457,246.4885 L276.1837,266.6055 L263.0027,292.2715 L241.2677,309.1515 L219.9957,315.6255 L189.2417,311.6945 L169.3567,295.7405 L162.426022,286.848694 L170.754581,330.148418 L171.027782,345.800105 L200.829581,366.788418 L239.544581,368.863418 L285.519581,348.468418 L317.615552,310.838281 L303.9782,302.8882 L290.088836,283.718821 L283.79762,249.817381 L286.194231,231.27273 L286.6952,216.8152 L288.7702,208.1742 L296.3742,207.8272 L302.9412,206.0992 L311.9302,197.8032 L315.3862,191.5822 L320.5722,173.9512 L323.119123,160.892233 L323.388557,162.778743 L320.624557,176.950743 L315.438557,194.581743 L311.982557,200.802743 L302.993557,209.098743 L296.426557,210.826743 L288.822557,211.173743 L287.440942,216.74876 L286.929875,230.259737 L286.025902,250.278562 L289.70521,268.36483 L368.296343,273.767971 L392.796343,302.767971 C389.796343,318.101304 389.796343,325.934637 392.796343,326.267971 C395.796343,326.601304 406.296343,337.101304 424.296343,357.767971 L420.796343,369.267971 L417.500425,371.206746 L419.296343,370.267971 L479.296343,411.767971 L501.796343,467.267971 L501.796343,528.767971 L0.296342917,528.767971 L5.29634292,516.267971 L21.2963429,433.767971 L52.2963429,379.767971 L107.991117,359.560132 L100.796343,348.767971 L117.796343,325.267971 L117.796343,307.767971 L120.153369,287.679134 L155.899843,278.347519 L143.4587,261.0565 L137.2157,254.5815 L128.622692,222.305145 L121.861557,218.778743 L116.213926,205.23533 L115.221222,200.407661 L116.6242,204.7172 L121.8092,215.7792 L123.47,216.645423 L123.47,216.645423 Z M245.987089,233.968287 L247.5107,232.1525 L264.3907,223.5975 L272.2527,206.2555 L280.5767,176.8895 L278.9587,152.1485 L278.7267,137.1185 L267.6287,108.4455 L268.3217,87.6355 L256.2977,74.2245 L240.1117,76.0745 L213.9827,100.3535 L187.3917,104.7465 L192.4787,97.5785 L168.4307,97.5785 L171.4367,91.7975 L149.2397,102.6655 L167.5067,87.6355 L170.2817,79.5425 L146.6957,89.4855 L133.7467,89.4855 L125.8857,98.0415 L125.8857,104.5155 L122.1857,112.1455 L119.6417,120.9325 L119.8737,135.4995 L122.4167,141.2805 L121.4927,157.2345 L125.6537,196.0815 L135.94694,236.702 L144.7551,236.702 L151.5941,227.975 L166.2171,213.353 L173.2931,209.579 L182.2551,213.825 L189.0951,212.174 L201.1231,207.692 L216.6901,210.994 L222.1141,212.881 L233.4351,224.438 L245.987089,233.968287 L245.987089,233.968287 Z M235.485695,246.483485 L231.3131,236.938 L219.9911,229.627 L194.9911,225.381 L185.0861,227.504 L176.5951,225.617 L162.6791,231.749 L157.7261,240.24 L154.589111,256.974155 L157.1007,258.5125 L164.9637,267.9925 L173.531863,265.74421 L179.7617,258.5125 L192.4787,258.0505 L204.9647,260.1315 L209.244878,263.495605 L216.5267,263.3685 L230.6307,252.2695 L235.485695,246.483485 L235.485695,246.483485 Z" id="Path-5" fill="#3D3D3D"></path>
            <polygon id="Fill-9" fill="#3D3D3D" points="296.4085 157.8304 300.2515 150.7524 307.5315 144.0784 315.6215 147.5164 319.4645 155.4034 320.0705 165.3134 317.0375 170.9764 314.6105 183.5154 304.4985 196.0534 312.3865 184.1214 314.4085 170.3694 316.0255 162.2794 314.0035 151.9654 309.1495 148.7294 302.6785 151.3584"></polygon>
            <polygon id="Fill-10" fill="#494949" points="294.5892 161.6732 291.9592 169.5602 297.0162 168.1452 300.4532 176.4362 298.2292 183.1102 294.7912 186.1442 290.5442 187.3572 290.7462 190.3912 294.3862 192.4132 297.8242 187.3572 303.0822 186.5482 307.7352 181.0882 304.9022 172.5942 299.8472 163.6952"></polygon>
            <polyline id="Fill-11" fill="#494949" points="120.2591 159.0438 118.5511 156.2218 116.2081 156.4018 111.7651 163.6958 112.3711 180.2788 115.8091 196.6608 121.4721 206.3678 121.8771 202.9298 118.6411 198.0758 115.6071 188.7728 114.5961 172.5938 116.0121 164.7068"></polyline>
        </g>
    </g>
</svg>