<?xml version="1.0" standalone="no"?>
<!DOCTYPE svg PUBLIC "-//W3C//DTD SVG 20010904//EN"
 "http://www.w3.org/TR/2001/REC-SVG-20010904/DTD/svg10.dtd">
<svg version="1.0" xmlns="http://www.w3.org/2000/svg"
 width="260.000000pt" height="260.000000pt" viewBox="0 0 260.000000 260.000000"
 preserveAspectRatio="xMidYMid meet">
<metadata>
Created by potrace 1.11, written by Peter Selinger 2001-2013
</metadata>
<g transform="translate(0.000000,260.000000) scale(0.100000,-0.100000)"
fill="#000000" stroke="none">
<path d="M719 2076 c-111 -30 -184 -101 -219 -215 -19 -59 -20 -94 -20 -561 0
-469 1 -502 20 -562 44 -143 144 -216 309 -226 129 -7 213 20 285 91 37 36 61
71 77 112 23 58 24 72 27 368 l3 307 -170 0 -171 0 0 -110 0 -110 56 0 56 0
-4 -182 c-3 -201 -7 -216 -64 -243 -41 -19 -78 -19 -119 1 -65 31 -65 30 -65
554 0 416 2 476 16 506 38 79 162 88 211 15 14 -20 18 -53 21 -148 l4 -123
115 0 115 0 -4 138 c-6 174 -26 232 -103 309 -42 41 -67 56 -120 72 -76 24
-184 27 -256 7z"/>
<path d="M1540 2063 c-1 -5 -56 -351 -124 -770 l-122 -763 113 0 c69 0 113 4
113 10 0 14 29 209 36 242 l6 28 149 0 c89 0 149 -4 149 -10 0 -14 30 -221 35
-247 5 -22 9 -23 125 -23 76 0 120 4 120 10 0 6 -54 349 -120 762 -66 413
-120 755 -120 759 0 11 -360 12 -360 2z m225 -654 c30 -200 55 -370 55 -376 0
-10 -30 -13 -115 -13 l-116 0 6 33 c13 78 105 703 105 716 0 55 18 -44 65
-360z"/>
</g>
</svg>
